<svg width="40" height="71" viewBox="0 0 40 71" fill="none" xmlns="http://www.w3.org/2000/svg">
<g clip-path="url(#clip0_0_586)">
<path d="M20 40C31.0457 40 40 31.0457 40 20C40 8.9543 31.0457 0 20 0C8.9543 0 0 8.9543 0 20C0 31.0457 8.9543 40 20 40Z" fill="white"/>
<path d="M20 39.5C30.7696 39.5 39.5 30.7696 39.5 20C39.5 9.23045 30.7696 0.5 20 0.5C9.23045 0.5 0.5 9.23045 0.5 20C0.5 30.7696 9.23045 39.5 20 39.5Z" stroke="#707070"/>
<mask id="mask0_0_586" style="mask-type:luminance" maskUnits="userSpaceOnUse" x="8" y="8" width="24" height="24">
<path d="M32 8H8V32H32V8Z" fill="white"/>
</mask>
<g mask="url(#mask0_0_586)">
<path d="M9.5 21.5H18.5V30.5C18.5 30.8978 18.658 31.2794 18.9393 31.5607C19.2206 31.842 19.6022 32 20 32C20.3978 32 20.7794 31.842 21.0607 31.5607C21.342 31.2794 21.5 30.8978 21.5 30.5V21.5H30.5C30.8978 21.5 31.2794 21.342 31.5607 21.0607C31.842 20.7794 32 20.3978 32 20C32 19.6022 31.842 19.2206 31.5607 18.9393C31.2794 18.658 30.8978 18.5 30.5 18.5H21.5V9.5C21.5 9.10218 21.342 8.72064 21.0607 8.43934C20.7794 8.15804 20.3978 8 20 8C19.6022 8 19.2206 8.15804 18.9393 8.43934C18.658 8.72064 18.5 9.10218 18.5 9.5V18.5H9.5C9.10218 18.5 8.72064 18.658 8.43934 18.9393C8.15804 19.2206 8 19.6022 8 20C8 20.3978 8.15804 20.7794 8.43934 21.0607C8.72064 21.342 9.10218 21.5 9.5 21.5Z" fill="#464646"/>
</g>
</g>
<path d="M12.846 62.83H8.59L7.806 65H6.462L9.99 55.298H11.46L14.974 65H13.63L12.846 62.83ZM12.482 61.794L10.718 56.866L8.954 61.794H12.482ZM16.0356 61.136C16.0356 60.352 16.1943 59.666 16.5116 59.078C16.8289 58.4807 17.2629 58.0187 17.8136 57.692C18.3736 57.3653 18.9989 57.202 19.6896 57.202C20.2869 57.202 20.8423 57.342 21.3556 57.622C21.8689 57.8927 22.2609 58.252 22.5316 58.7V54.64H23.8196V65H22.5316V63.558C22.2796 64.0153 21.9063 64.3933 21.4116 64.692C20.9169 64.9813 20.3383 65.126 19.6756 65.126C18.9943 65.126 18.3736 64.958 17.8136 64.622C17.2629 64.286 16.8289 63.8147 16.5116 63.208C16.1943 62.6013 16.0356 61.9107 16.0356 61.136ZM22.5316 61.15C22.5316 60.5713 22.4149 60.0673 22.1816 59.638C21.9483 59.2087 21.6309 58.882 21.2296 58.658C20.8376 58.4247 20.4036 58.308 19.9276 58.308C19.4516 58.308 19.0176 58.42 18.6256 58.644C18.2336 58.868 17.9209 59.1947 17.6876 59.624C17.4543 60.0533 17.3376 60.5573 17.3376 61.136C17.3376 61.724 17.4543 62.2373 17.6876 62.676C17.9209 63.1053 18.2336 63.4367 18.6256 63.67C19.0176 63.894 19.4516 64.006 19.9276 64.006C20.4036 64.006 20.8376 63.894 21.2296 63.67C21.6309 63.4367 21.9483 63.1053 22.1816 62.676C22.4149 62.2373 22.5316 61.7287 22.5316 61.15ZM25.4965 61.136C25.4965 60.352 25.6552 59.666 25.9725 59.078C26.2899 58.4807 26.7239 58.0187 27.2745 57.692C27.8345 57.3653 28.4599 57.202 29.1505 57.202C29.7479 57.202 30.3032 57.342 30.8165 57.622C31.3299 57.8927 31.7219 58.252 31.9925 58.7V54.64H33.2805V65H31.9925V63.558C31.7405 64.0153 31.3672 64.3933 30.8725 64.692C30.3779 64.9813 29.7992 65.126 29.1365 65.126C28.4552 65.126 27.8345 64.958 27.2745 64.622C26.7239 64.286 26.2899 63.8147 25.9725 63.208C25.6552 62.6013 25.4965 61.9107 25.4965 61.136ZM31.9925 61.15C31.9925 60.5713 31.8759 60.0673 31.6425 59.638C31.4092 59.2087 31.0919 58.882 30.6905 58.658C30.2985 58.4247 29.8645 58.308 29.3885 58.308C28.9125 58.308 28.4785 58.42 28.0865 58.644C27.6945 58.868 27.3819 59.1947 27.1485 59.624C26.9152 60.0533 26.7985 60.5573 26.7985 61.136C26.7985 61.724 26.9152 62.2373 27.1485 62.676C27.3819 63.1053 27.6945 63.4367 28.0865 63.67C28.4785 63.894 28.9125 64.006 29.3885 64.006C29.8645 64.006 30.2985 63.894 30.6905 63.67C31.0919 63.4367 31.4092 63.1053 31.6425 62.676C31.8759 62.2373 31.9925 61.7287 31.9925 61.15Z" fill="black"/>
<defs>
<clipPath id="clip0_0_586">
<rect width="40" height="40" fill="white"/>
</clipPath>
</defs>
</svg>
