<svg width="48" height="48" viewBox="0 0 48 48" fill="none" xmlns="http://www.w3.org/2000/svg">
<rect width="48" height="48" rx="10" fill="#FC4189"/>
<g clip-path="url(#clip0_1_16)">
<mask id="mask0_1_16" style="mask-type:luminance" maskUnits="userSpaceOnUse" x="10" y="10" width="28" height="28">
<path d="M38 10H10V38H38V10Z" fill="white"/>
</mask>
<g mask="url(#mask0_1_16)">
<path d="M19.338 24C19.338 24.7318 19.555 25.4472 19.9616 26.0556C20.3681 26.6641 20.946 27.1383 21.6221 27.4184C22.2982 27.6984 23.0421 27.7717 23.7598 27.6289C24.4776 27.4862 25.1368 27.1338 25.6543 26.6163C26.1717 26.0989 26.5241 25.4396 26.6669 24.7218C26.8097 24.0041 26.7364 23.2602 26.4564 22.5841C26.1763 21.908 25.7021 21.3301 25.0936 20.9236C24.4851 20.517 23.7698 20.3 23.038 20.3C22.0571 20.3013 21.1168 20.6916 20.4232 21.3852C19.7296 22.0788 19.3393 23.0191 19.338 24Z" fill="white"/>
<path d="M23.038 19.646V10.963C19.5804 10.9633 16.2644 12.3369 13.8194 14.7817C11.3744 17.2265 10.0005 20.5424 10 24H18.682C18.6831 22.8452 19.1424 21.7381 19.9591 20.9217C20.7759 20.1054 21.8832 19.6465 23.038 19.646Z" fill="white"/>
<path d="M25.901 36.338C25.2071 36.338 24.5415 36.0623 24.0509 35.5717C23.5602 35.081 23.2845 34.4155 23.2845 33.7215C23.2845 33.0276 23.5602 32.3621 24.0509 31.8714C24.5415 31.3807 25.2071 31.105 25.901 31.105C26.2737 31.1035 26.6423 31.1834 26.981 31.339L33.796 27.577V18.344C33.3227 18.3116 32.8794 18.1007 32.5557 17.7539C32.2319 17.4071 32.0519 16.9504 32.052 16.476V14.589C29.7918 12.4152 26.8203 11.1341 23.688 10.983V19.698C24.4848 19.8175 25.2328 20.1558 25.8488 20.6752C26.4647 21.1947 26.9244 21.8748 27.1766 22.6401C27.4289 23.4053 27.4638 24.2255 27.2775 25.0094C27.0912 25.7933 26.691 26.5101 26.1214 27.08C25.5519 27.6499 24.8353 28.0505 24.0516 28.2373C23.2678 28.4241 22.4475 28.3897 21.6822 28.1379C20.9168 27.8861 20.2363 27.4268 19.7165 26.8112C19.1967 26.1956 18.858 25.4478 18.738 24.651H10.013C10.1504 27.4138 11.1632 30.0613 12.9048 32.2103C14.6465 34.3594 17.0268 35.8986 19.7012 36.6053C22.3757 37.312 25.2056 37.1494 27.7815 36.1412C30.3574 35.133 32.5458 33.3314 34.03 30.997L28.485 34.056C28.4073 34.6863 28.1016 35.2664 27.6256 35.6868C27.1495 36.1072 26.5361 36.3389 25.901 36.338ZM22.835 35.798C20.0185 35.7489 17.3123 34.6951 15.2042 32.8267C13.0962 30.9583 11.725 28.3982 11.338 25.608C11.3317 25.5656 11.334 25.5224 11.3448 25.4809C11.3555 25.4394 11.3745 25.4005 11.4007 25.3665C11.4268 25.3326 11.4595 25.3042 11.4969 25.2831C11.5342 25.2621 11.5754 25.2488 11.618 25.244C11.6605 25.2373 11.7038 25.2392 11.7455 25.2498C11.7872 25.2604 11.8262 25.2794 11.8603 25.3056C11.8944 25.3318 11.9227 25.3647 11.9437 25.4023C11.9646 25.4398 11.9776 25.4812 11.982 25.524C12.3583 28.1542 13.656 30.5655 15.6442 32.3282C17.6323 34.0909 20.1816 35.0905 22.838 35.149C22.9243 35.1499 23.0068 35.1851 23.0671 35.2468C23.1275 35.3085 23.1609 35.3917 23.16 35.478C23.1591 35.5643 23.1239 35.6468 23.0622 35.7072C23.0005 35.7675 22.9173 35.8009 22.831 35.8L22.835 35.798Z" fill="white"/>
<path d="M36.783 10.963H33.926C33.6034 10.9635 33.2942 11.0919 33.066 11.32C32.8379 11.5482 32.7095 11.8574 32.709 12.18V16.47C32.7095 16.7926 32.8379 17.1019 33.066 17.33C33.2942 17.5581 33.6034 17.6865 33.926 17.687H34.453V27.957L26.981 32.077C26.6599 31.8668 26.2848 31.754 25.901 31.752C25.5119 31.7506 25.1311 31.8648 24.8069 32.0799C24.4826 32.2951 24.2295 32.6017 24.0797 32.9608C23.9298 33.3199 23.8899 33.7154 23.9649 34.0973C24.04 34.4791 24.2267 34.83 24.5014 35.1057C24.776 35.3813 25.1263 35.5693 25.5079 35.6457C25.8894 35.7221 26.2851 35.6836 26.6447 35.535C27.0044 35.3864 27.3118 35.1344 27.5282 34.811C27.7445 34.4875 27.86 34.1071 27.86 33.718V33.653L34.447 30.015L34.655 29.904L36.255 29.019V17.693H36.782C37.1046 17.6925 37.4138 17.5641 37.642 17.336C37.8701 17.1079 37.9985 16.7986 37.999 16.476V12.187C37.9998 11.8635 37.8722 11.5529 37.6442 11.3235C37.4162 11.094 37.1065 10.9643 36.783 10.963Z" fill="white"/>
</g>
</g>
<defs>
<clipPath id="clip0_1_16">
<rect width="28" height="28" fill="white" transform="translate(10 10)"/>
</clipPath>
</defs>
</svg>
