<svg width="24" height="24" viewBox="0 0 24 24" fill="none" xmlns="http://www.w3.org/2000/svg">
<path d="M9.72177 14.3801C9.75377 14.7009 9.79123 15.0166 9.83416 15.3272C9.97699 16.3364 10.1795 17.239 10.4371 18.0117C10.5577 18.3699 10.6876 18.6954 10.8258 18.9787C11.6032 19.1083 12.3968 19.1083 13.1743 18.9787C13.3124 18.6954 13.4424 18.3699 13.5629 18.0117C13.8205 17.239 14.023 16.3364 14.1659 15.3272C14.2096 15.0174 14.247 14.7017 14.2783 14.3801H9.72177Z" fill="black"/>
<path d="M14.3555 10.6736H9.64449C9.62107 11.1091 9.61053 11.5516 9.61053 12C9.61053 12.4484 9.62107 12.8909 9.64449 13.3264H14.3555C14.3789 12.8909 14.3895 12.4484 14.3895 12C14.3895 11.5516 14.3789 11.1091 14.3555 10.6736Z" fill="black"/>
<path d="M14.5627 5.65463C14.9362 6.77736 15.2008 8.13775 15.3366 9.6199H18.665C18.6205 9.49346 18.5725 9.36936 18.5198 9.24526C17.8009 7.54923 16.4508 6.19911 14.7547 5.48019C14.6576 5.43922 14.5592 5.40058 14.4609 5.36429C14.4948 5.45795 14.5288 5.55512 14.5627 5.65463Z" fill="black"/>
<path d="M15.4431 12C15.4431 12.448 15.4326 12.8901 15.4115 13.3264H18.9518C19.1173 12.4499 19.1173 11.5501 18.9518 10.6736H15.4115C15.4326 11.1091 15.4431 11.5512 15.4431 12Z" fill="black"/>
<path d="M8.55689 12C8.55689 11.552 8.56742 11.1098 8.5885 10.6736H5.0482C4.88274 11.5501 4.88274 12.4499 5.0482 13.3264H8.5885C8.56742 12.8909 8.55689 12.4488 8.55689 12Z" fill="black"/>
<path d="M9.43727 18.3454C9.0638 17.2226 8.79922 15.8622 8.66341 14.3801H5.33502C5.37951 14.5065 5.42751 14.6306 5.48019 14.7547C6.19911 16.4508 7.54923 17.8009 9.24527 18.5198C9.34244 18.5608 9.44078 18.5994 9.53912 18.6357C9.50517 18.542 9.47122 18.4449 9.43727 18.3454Z" fill="black"/>
<path d="M15.3366 14.3801C15.2008 15.8622 14.9362 17.2226 14.5627 18.3454C14.5288 18.4449 14.4948 18.542 14.4609 18.6357C14.5592 18.5994 14.6576 18.5608 14.7547 18.5198C16.4508 17.8009 17.8009 16.4508 18.5198 14.7547C18.5725 14.6306 18.6205 14.5065 18.665 14.3801H15.3366Z" fill="black"/>
<path d="M14.2783 9.6199C14.247 9.29912 14.2096 8.98342 14.1659 8.67278C14.023 7.66361 13.8205 6.76098 13.5629 5.98829C13.4424 5.63005 13.3124 5.30459 13.1743 5.02127C12.3968 4.89171 11.6032 4.89171 10.8258 5.02127C10.6876 5.30459 10.5577 5.63005 10.4371 5.98829C10.1795 6.76098 9.97699 7.66361 9.83416 8.67278C9.79045 8.98342 9.75299 9.29912 9.72177 9.6199H14.2783Z" fill="black"/>
<path d="M8.66341 9.6199C8.79922 8.13775 9.0638 6.77736 9.43727 5.65463C9.47122 5.55512 9.50517 5.45795 9.53912 5.36429C9.44078 5.40058 9.34244 5.43922 9.24527 5.48019C7.54923 6.19911 6.19911 7.54923 5.48019 9.24526C5.42751 9.36936 5.37951 9.49346 5.33502 9.6199H8.66341Z" fill="black"/>
</svg>
