<svg width="158" height="56" viewBox="0 0 158 56" fill="none" xmlns="http://www.w3.org/2000/svg">
<path d="M146 0H12C5.37258 0 0 5.37258 0 12V44C0 50.6274 5.37258 56 12 56H146C152.627 56 158 50.6274 158 44V12C158 5.37258 152.627 0 146 0Z" fill="#E4DEFF"/>
<mask id="mask0_0_866" style="mask-type:luminance" maskUnits="userSpaceOnUse" x="10" y="16" width="25" height="24">
<path d="M15.0734 16.026H29.167C31.9008 16.026 34.117 18.2646 34.117 21.026V34.975C34.117 37.7364 31.9008 39.975 29.167 39.975H15.0734C12.3396 39.975 10.1234 37.7364 10.1234 34.975V21.026C10.1234 18.2646 12.3396 16.026 15.0734 16.026Z" fill="white"/>
</mask>
<g mask="url(#mask0_0_866)">
<path d="M11.398 18.186V29.386C11.4253 32.2111 12.5667 34.9111 14.574 36.8992C16.5814 38.8872 19.2923 40.0025 22.1175 40.0025C24.9427 40.0025 27.6537 38.8872 29.661 36.8992C31.6683 34.9111 32.8097 32.2111 32.837 29.386V18.186C32.8372 17.8643 32.7648 17.5468 32.6253 17.2569C32.4857 16.9671 32.2826 16.7125 32.031 16.512C31.7784 16.3084 31.4838 16.1633 31.1684 16.0872C30.853 16.0111 30.5247 16.0059 30.207 16.072C27.5383 16.5694 24.8275 16.8058 22.113 16.778C19.4015 16.8052 16.6938 16.5688 14.028 16.072C13.88 16.0414 13.7292 16.026 13.578 16.026C13.0782 16.0257 12.5933 16.1965 12.204 16.51C11.9523 16.7108 11.7491 16.9657 11.6095 17.2559C11.47 17.5461 11.3977 17.864 11.398 18.186ZM24.024 23.834C24.8109 23.0601 25.8703 22.6264 26.974 22.6264C28.0777 22.6264 29.1371 23.0601 29.924 23.834C30.0458 23.9538 30.1425 24.0966 30.2085 24.2541C30.2745 24.4116 30.3085 24.5807 30.3085 24.7515C30.3085 24.9223 30.2745 25.0914 30.2085 25.2489C30.1425 25.4064 30.0458 25.5492 29.924 25.669C29.6764 25.9126 29.3429 26.0491 28.9955 26.0491C28.6481 26.0491 28.3147 25.9126 28.067 25.669C27.7754 25.382 27.3827 25.2212 26.9735 25.2212C26.5644 25.2212 26.1716 25.382 25.88 25.669C25.6324 25.9126 25.2989 26.0491 24.9515 26.0491C24.6041 26.0491 24.2707 25.9126 24.023 25.669C23.9013 25.5492 23.8047 25.4063 23.7388 25.2487C23.6729 25.0912 23.6389 24.9221 23.639 24.7513C23.6391 24.5805 23.6732 24.4114 23.7393 24.2539C23.8054 24.0965 23.9022 23.9537 24.024 23.834ZM24.579 31.153C24.8267 30.9094 25.1601 30.7729 25.5075 30.7729C25.8549 30.7729 26.1884 30.9094 26.436 31.153C26.5578 31.2728 26.6545 31.4156 26.7205 31.5731C26.7865 31.7306 26.8205 31.8997 26.8205 32.0705C26.8205 32.2413 26.7865 32.4104 26.7205 32.5679C26.6545 32.7254 26.5578 32.8682 26.436 32.988C25.284 34.1211 23.7329 34.7562 22.117 34.7562C20.5011 34.7562 18.95 34.1211 17.798 32.988C17.6761 32.8683 17.5793 32.7255 17.5132 32.568C17.4472 32.4104 17.4131 32.2413 17.4131 32.0705C17.4131 31.8997 17.4472 31.7306 17.5132 31.573C17.5793 31.4155 17.6761 31.2727 17.798 31.153C18.0457 30.9094 18.3791 30.7729 18.7265 30.7729C19.0739 30.7729 19.4074 30.9094 19.655 31.153C20.3118 31.7987 21.196 32.1605 22.117 32.1605C23.038 32.1605 23.9222 31.7987 24.579 31.153ZM14.163 23.834C14.9505 23.0613 16.0097 22.6284 17.113 22.6284C18.2163 22.6284 19.2755 23.0613 20.063 23.834C20.1849 23.9537 20.2817 24.0965 20.3478 24.254C20.4139 24.4116 20.4479 24.5807 20.4479 24.7515C20.4479 24.9223 20.4139 25.0915 20.3478 25.249C20.2817 25.4065 20.1849 25.5493 20.063 25.669C19.8154 25.9126 19.4819 26.0491 19.1345 26.0491C18.7871 26.0491 18.4537 25.9126 18.206 25.669C17.9141 25.3825 17.5215 25.222 17.1125 25.222C16.7035 25.222 16.3109 25.3825 16.019 25.669C15.7714 25.9126 15.4379 26.0491 15.0905 26.0491C14.7431 26.0491 14.4097 25.9126 14.162 25.669C14.0402 25.5492 13.9435 25.4064 13.8775 25.2488C13.8115 25.0913 13.7775 24.9221 13.7776 24.7513C13.7777 24.5805 13.8118 24.4114 13.878 24.2539C13.9442 24.0964 14.0411 23.9536 14.163 23.834Z" fill="#543FEB"/>
</g>
<path d="M60.704 24.848C61.92 24.848 62.9707 25.0773 63.856 25.536C64.752 25.984 65.4347 26.6293 65.904 27.472C66.384 28.3147 66.624 29.3067 66.624 30.448C66.624 31.5893 66.384 32.5813 65.904 33.424C65.4347 34.256 64.752 34.896 63.856 35.344C62.9707 35.7813 61.92 36 60.704 36H57.232V24.848H60.704ZM60.704 34.8C62.144 34.8 63.2427 34.4213 64 33.664C64.7573 32.896 65.136 31.824 65.136 30.448C65.136 29.0613 64.752 27.9787 63.984 27.2C63.2267 26.4213 62.1333 26.032 60.704 26.032H58.688V34.8H60.704ZM69.2965 25.808C69.0192 25.808 68.7845 25.712 68.5925 25.52C68.4005 25.328 68.3045 25.0933 68.3045 24.816C68.3045 24.5387 68.4005 24.304 68.5925 24.112C68.7845 23.92 69.0192 23.824 69.2965 23.824C69.5632 23.824 69.7872 23.92 69.9685 24.112C70.1605 24.304 70.2565 24.5387 70.2565 24.816C70.2565 25.0933 70.1605 25.328 69.9685 25.52C69.7872 25.712 69.5632 25.808 69.2965 25.808ZM70.0005 27.232V36H68.5445V27.232H70.0005ZM75.586 36.144C74.914 36.144 74.3113 36.032 73.778 35.808C73.2447 35.5733 72.8233 35.2533 72.514 34.848C72.2047 34.432 72.034 33.9573 72.002 33.424H73.506C73.5487 33.8613 73.7513 34.2187 74.114 34.496C74.4873 34.7733 74.9727 34.912 75.57 34.912C76.1247 34.912 76.562 34.7893 76.882 34.544C77.202 34.2987 77.362 33.9893 77.362 33.616C77.362 33.232 77.1913 32.9493 76.85 32.768C76.5087 32.576 75.9807 32.3893 75.266 32.208C74.6153 32.0373 74.082 31.8667 73.666 31.696C73.2607 31.5147 72.9087 31.2533 72.61 30.912C72.322 30.56 72.178 30.1013 72.178 29.536C72.178 29.088 72.3113 28.6773 72.578 28.304C72.8447 27.9307 73.2233 27.6373 73.714 27.424C74.2047 27.2 74.7647 27.088 75.394 27.088C76.3647 27.088 77.1487 27.3333 77.746 27.824C78.3433 28.3147 78.6633 28.9867 78.706 29.84H77.25C77.218 29.3813 77.0313 29.0133 76.69 28.736C76.3593 28.4587 75.9113 28.32 75.346 28.32C74.8233 28.32 74.4073 28.432 74.098 28.656C73.7887 28.88 73.634 29.1733 73.634 29.536C73.634 29.824 73.7247 30.064 73.906 30.256C74.098 30.4373 74.3327 30.5867 74.61 30.704C74.898 30.8107 75.2927 30.9333 75.794 31.072C76.4233 31.2427 76.9353 31.4133 77.33 31.584C77.7247 31.744 78.0607 31.9893 78.338 32.32C78.626 32.6507 78.7753 33.0827 78.786 33.616C78.786 34.096 78.6527 34.528 78.386 34.912C78.1193 35.296 77.7407 35.6 77.25 35.824C76.77 36.0373 76.2153 36.144 75.586 36.144ZM84.4574 27.088C85.2147 27.088 85.876 27.2533 86.4414 27.584C87.0174 27.9147 87.444 28.3307 87.7214 28.832V27.232H89.1934V36.192C89.1934 36.992 89.0227 37.7013 88.6814 38.32C88.34 38.9493 87.8494 39.44 87.2094 39.792C86.58 40.144 85.844 40.32 85.0014 40.32C83.8494 40.32 82.8894 40.048 82.1214 39.504C81.3534 38.96 80.9 38.2187 80.7614 37.28H82.2014C82.3614 37.8133 82.692 38.24 83.1934 38.56C83.6947 38.8907 84.2974 39.056 85.0014 39.056C85.8014 39.056 86.452 38.8053 86.9534 38.304C87.4654 37.8027 87.7214 37.0987 87.7214 36.192V34.352C87.4334 34.864 87.0067 35.2907 86.4414 35.632C85.876 35.9733 85.2147 36.144 84.4574 36.144C83.6787 36.144 82.9694 35.952 82.3294 35.568C81.7 35.184 81.204 34.6453 80.8414 33.952C80.4787 33.2587 80.2974 32.4693 80.2974 31.584C80.2974 30.688 80.4787 29.904 80.8414 29.232C81.204 28.5493 81.7 28.0213 82.3294 27.648C82.9694 27.2747 83.6787 27.088 84.4574 27.088ZM87.7214 31.6C87.7214 30.9387 87.588 30.3627 87.3214 29.872C87.0547 29.3813 86.692 29.008 86.2334 28.752C85.7854 28.4853 85.2894 28.352 84.7454 28.352C84.2014 28.352 83.7054 28.48 83.2574 28.736C82.8094 28.992 82.452 29.3653 82.1854 29.856C81.9187 30.3467 81.7854 30.9227 81.7854 31.584C81.7854 32.256 81.9187 32.8427 82.1854 33.344C82.452 33.8347 82.8094 34.2133 83.2574 34.48C83.7054 34.736 84.2014 34.864 84.7454 34.864C85.2894 34.864 85.7854 34.736 86.2334 34.48C86.692 34.2133 87.0547 33.8347 87.3214 33.344C87.588 32.8427 87.7214 32.2613 87.7214 31.6ZM99.4299 27.232V36H97.9739V34.704C97.6965 35.152 97.3072 35.504 96.8059 35.76C96.3152 36.0053 95.7712 36.128 95.1739 36.128C94.4912 36.128 93.8779 35.9893 93.3339 35.712C92.7899 35.424 92.3579 34.9973 92.0379 34.432C91.7285 33.8667 91.5739 33.1787 91.5739 32.368V27.232H93.0139V32.176C93.0139 33.04 93.2325 33.7067 93.6699 34.176C94.1072 34.6347 94.7045 34.864 95.4619 34.864C96.2405 34.864 96.8539 34.624 97.3019 34.144C97.7499 33.664 97.9739 32.9653 97.9739 32.048V27.232H99.4299ZM102.64 25.808C102.363 25.808 102.128 25.712 101.936 25.52C101.744 25.328 101.648 25.0933 101.648 24.816C101.648 24.5387 101.744 24.304 101.936 24.112C102.128 23.92 102.363 23.824 102.64 23.824C102.907 23.824 103.131 23.92 103.312 24.112C103.504 24.304 103.6 24.5387 103.6 24.816C103.6 25.0933 103.504 25.328 103.312 25.52C103.131 25.712 102.907 25.808 102.64 25.808ZM103.344 27.232V36H101.888V27.232H103.344ZM108.93 36.144C108.258 36.144 107.655 36.032 107.122 35.808C106.588 35.5733 106.167 35.2533 105.858 34.848C105.548 34.432 105.378 33.9573 105.346 33.424H106.85C106.892 33.8613 107.095 34.2187 107.458 34.496C107.831 34.7733 108.316 34.912 108.914 34.912C109.468 34.912 109.906 34.7893 110.226 34.544C110.546 34.2987 110.706 33.9893 110.706 33.616C110.706 33.232 110.535 32.9493 110.194 32.768C109.852 32.576 109.324 32.3893 108.61 32.208C107.959 32.0373 107.426 31.8667 107.01 31.696C106.604 31.5147 106.252 31.2533 105.954 30.912C105.666 30.56 105.522 30.1013 105.522 29.536C105.522 29.088 105.655 28.6773 105.922 28.304C106.188 27.9307 106.567 27.6373 107.058 27.424C107.548 27.2 108.108 27.088 108.738 27.088C109.708 27.088 110.492 27.3333 111.09 27.824C111.687 28.3147 112.007 28.9867 112.05 29.84H110.594C110.562 29.3813 110.375 29.0133 110.034 28.736C109.703 28.4587 109.255 28.32 108.69 28.32C108.167 28.32 107.751 28.432 107.442 28.656C107.132 28.88 106.978 29.1733 106.978 29.536C106.978 29.824 107.068 30.064 107.25 30.256C107.442 30.4373 107.676 30.5867 107.954 30.704C108.242 30.8107 108.636 30.9333 109.138 31.072C109.767 31.2427 110.279 31.4133 110.674 31.584C111.068 31.744 111.404 31.9893 111.682 32.32C111.97 32.6507 112.119 33.0827 112.13 33.616C112.13 34.096 111.996 34.528 111.73 34.912C111.463 35.296 111.084 35.6 110.594 35.824C110.114 36.0373 109.559 36.144 108.93 36.144ZM122.185 31.28C122.185 31.5573 122.169 31.8507 122.137 32.16H115.129C115.182 33.024 115.476 33.7013 116.009 34.192C116.553 34.672 117.209 34.912 117.977 34.912C118.606 34.912 119.129 34.768 119.545 34.48C119.972 34.1813 120.27 33.7867 120.441 33.296H122.009C121.774 34.1387 121.305 34.8267 120.601 35.36C119.897 35.8827 119.022 36.144 117.977 36.144C117.145 36.144 116.398 35.9573 115.737 35.584C115.086 35.2107 114.574 34.6827 114.201 34C113.828 33.3067 113.641 32.5067 113.641 31.6C113.641 30.6933 113.822 29.8987 114.185 29.216C114.548 28.5333 115.054 28.0107 115.705 27.648C116.366 27.2747 117.124 27.088 117.977 27.088C118.809 27.088 119.545 27.2693 120.185 27.632C120.825 27.9947 121.316 28.496 121.657 29.136C122.009 29.7653 122.185 30.48 122.185 31.28ZM120.681 30.976C120.681 30.4213 120.558 29.9467 120.313 29.552C120.068 29.1467 119.732 28.8427 119.305 28.64C118.889 28.4267 118.425 28.32 117.913 28.32C117.177 28.32 116.548 28.5547 116.025 29.024C115.513 29.4933 115.22 30.144 115.145 30.976H120.681Z" fill="#543FEB"/>
</svg>
