<svg width="69" height="71" viewBox="0 0 69 71" fill="none" xmlns="http://www.w3.org/2000/svg">
<g clip-path="url(#clip0_0_848)">
<mask id="mask0_0_848" style="mask-type:luminance" maskUnits="userSpaceOnUse" x="15" y="0" width="40" height="40">
<path d="M35 40C46.0457 40 55 31.0457 55 20C55 8.9543 46.0457 0 35 0C23.9543 0 15 8.9543 15 20C15 31.0457 23.9543 40 35 40Z" fill="white"/>
</mask>
<g mask="url(#mask0_0_848)">
<path d="M35 40C46.0457 40 55 31.0457 55 20C55 8.9543 46.0457 0 35 0C23.9543 0 15 8.9543 15 20C15 31.0457 23.9543 40 35 40Z" fill="#3B5998"/>
<path fill-rule="evenodd" clip-rule="evenodd" d="M40.315 12.958C39.6574 12.8288 38.99 12.7559 38.32 12.74C36.886 12.74 36.793 13.363 36.793 14.361V16.136H40.377L40.065 19.814H36.794V31H32.306V19.814H30V16.136H32.306V13.861C32.306 10.745 33.771 9 37.447 9C38.6023 9.01828 39.7519 9.16451 40.875 9.436L40.315 12.958Z" fill="white"/>
</g>
</g>
<path d="M6.594 55.242V56.278H2.352V59.568H5.796V60.604H2.352V65H1.078V55.242H6.594ZM7.65669 61.136C7.65669 60.352 7.81535 59.666 8.13269 59.078C8.45002 58.4807 8.88402 58.0187 9.43469 57.692C9.99469 57.3653 10.6154 57.202 11.2967 57.202C11.9687 57.202 12.552 57.3467 13.0467 57.636C13.5414 57.9253 13.91 58.2893 14.1527 58.728V57.328H15.4407V65H14.1527V63.572C13.9007 64.02 13.5227 64.3933 13.0187 64.692C12.524 64.9813 11.9454 65.126 11.2827 65.126C10.6014 65.126 9.98535 64.958 9.43469 64.622C8.88402 64.286 8.45002 63.8147 8.13269 63.208C7.81535 62.6013 7.65669 61.9107 7.65669 61.136ZM14.1527 61.15C14.1527 60.5713 14.036 60.0673 13.8027 59.638C13.5694 59.2087 13.252 58.882 12.8507 58.658C12.4587 58.4247 12.0247 58.308 11.5487 58.308C11.0727 58.308 10.6387 58.42 10.2467 58.644C9.85469 58.868 9.54202 59.1947 9.30869 59.624C9.07535 60.0533 8.95869 60.5573 8.95869 61.136C8.95869 61.724 9.07535 62.2373 9.30869 62.676C9.54202 63.1053 9.85469 63.4367 10.2467 63.67C10.6387 63.894 11.0727 64.006 11.5487 64.006C12.0247 64.006 12.4587 63.894 12.8507 63.67C13.252 63.4367 13.5694 63.1053 13.8027 62.676C14.036 62.2373 14.1527 61.7287 14.1527 61.15ZM17.1176 61.15C17.1176 60.3567 17.2763 59.666 17.5936 59.078C17.911 58.4807 18.3496 58.0187 18.9096 57.692C19.479 57.3653 20.1276 57.202 20.8556 57.202C21.7983 57.202 22.573 57.4307 23.1796 57.888C23.7956 58.3453 24.2016 58.98 24.3976 59.792H23.0256C22.895 59.3253 22.6383 58.9567 22.2556 58.686C21.8823 58.4153 21.4156 58.28 20.8556 58.28C20.1276 58.28 19.5396 58.532 19.0916 59.036C18.6436 59.5307 18.4196 60.2353 18.4196 61.15C18.4196 62.074 18.6436 62.788 19.0916 63.292C19.5396 63.796 20.1276 64.048 20.8556 64.048C21.4156 64.048 21.8823 63.9173 22.2556 63.656C22.629 63.3947 22.8856 63.0213 23.0256 62.536H24.3976C24.1923 63.32 23.7816 63.95 23.1656 64.426C22.5496 64.8927 21.7796 65.126 20.8556 65.126C20.1276 65.126 19.479 64.9627 18.9096 64.636C18.3496 64.3093 17.911 63.8473 17.5936 63.25C17.2763 62.6527 17.1176 61.9527 17.1176 61.15ZM33.0975 60.87C33.0975 61.1127 33.0835 61.3693 33.0555 61.64H26.9235C26.9702 62.396 27.2269 62.9887 27.6935 63.418C28.1695 63.838 28.7435 64.048 29.4155 64.048C29.9662 64.048 30.4235 63.922 30.7875 63.67C31.1609 63.4087 31.4222 63.0633 31.5715 62.634H32.9435C32.7382 63.3713 32.3275 63.9733 31.7115 64.44C31.0955 64.8973 30.3302 65.126 29.4155 65.126C28.6875 65.126 28.0342 64.9627 27.4555 64.636C26.8862 64.3093 26.4382 63.8473 26.1115 63.25C25.7849 62.6433 25.6215 61.9433 25.6215 61.15C25.6215 60.3567 25.7802 59.6613 26.0975 59.064C26.4149 58.4667 26.8582 58.0093 27.4275 57.692C28.0062 57.3653 28.6689 57.202 29.4155 57.202C30.1435 57.202 30.7875 57.3607 31.3475 57.678C31.9075 57.9953 32.3369 58.434 32.6355 58.994C32.9435 59.5447 33.0975 60.17 33.0975 60.87ZM31.7815 60.604C31.7815 60.1187 31.6742 59.7033 31.4595 59.358C31.2449 59.0033 30.9509 58.7373 30.5775 58.56C30.2135 58.3733 29.8075 58.28 29.3595 58.28C28.7155 58.28 28.1649 58.4853 27.7075 58.896C27.2595 59.3067 27.0029 59.876 26.9375 60.604H31.7815ZM36.0532 58.756C36.3145 58.2987 36.6972 57.9253 37.2012 57.636C37.7052 57.3467 38.2792 57.202 38.9232 57.202C39.6138 57.202 40.2345 57.3653 40.7852 57.692C41.3358 58.0187 41.7698 58.4807 42.0872 59.078C42.4045 59.666 42.5632 60.352 42.5632 61.136C42.5632 61.9107 42.4045 62.6013 42.0872 63.208C41.7698 63.8147 41.3312 64.286 40.7712 64.622C40.2205 64.958 39.6045 65.126 38.9232 65.126C38.2605 65.126 37.6772 64.9813 37.1732 64.692C36.6785 64.4027 36.3052 64.034 36.0532 63.586V65H34.7792V54.64H36.0532V58.756ZM41.2612 61.136C41.2612 60.5573 41.1445 60.0533 40.9112 59.624C40.6778 59.1947 40.3605 58.868 39.9592 58.644C39.5672 58.42 39.1332 58.308 38.6572 58.308C38.1905 58.308 37.7565 58.4247 37.3552 58.658C36.9632 58.882 36.6458 59.2133 36.4032 59.652C36.1698 60.0813 36.0532 60.5807 36.0532 61.15C36.0532 61.7287 36.1698 62.2373 36.4032 62.676C36.6458 63.1053 36.9632 63.4367 37.3552 63.67C37.7565 63.894 38.1905 64.006 38.6572 64.006C39.1332 64.006 39.5672 63.894 39.9592 63.67C40.3605 63.4367 40.6778 63.1053 40.9112 62.676C41.1445 62.2373 41.2612 61.724 41.2612 61.136ZM47.5861 65.126C46.8674 65.126 46.2141 64.9627 45.6261 64.636C45.0474 64.3093 44.5901 63.8473 44.2541 63.25C43.9274 62.6433 43.7641 61.9433 43.7641 61.15C43.7641 60.366 43.9321 59.6753 44.2681 59.078C44.6134 58.4713 45.0801 58.0093 45.6681 57.692C46.2561 57.3653 46.9141 57.202 47.6421 57.202C48.3701 57.202 49.0281 57.3653 49.6161 57.692C50.2041 58.0093 50.6661 58.4667 51.0021 59.064C51.3474 59.6613 51.5201 60.3567 51.5201 61.15C51.5201 61.9433 51.3428 62.6433 50.9881 63.25C50.6428 63.8473 50.1714 64.3093 49.5741 64.636C48.9768 64.9627 48.3141 65.126 47.5861 65.126ZM47.5861 64.006C48.0434 64.006 48.4728 63.8987 48.8741 63.684C49.2754 63.4693 49.5974 63.1473 49.8401 62.718C50.0921 62.2887 50.2181 61.766 50.2181 61.15C50.2181 60.534 50.0968 60.0113 49.8541 59.582C49.6114 59.1527 49.2941 58.8353 48.9021 58.63C48.5101 58.4153 48.0854 58.308 47.6281 58.308C47.1614 58.308 46.7321 58.4153 46.3401 58.63C45.9574 58.8353 45.6494 59.1527 45.4161 59.582C45.1828 60.0113 45.0661 60.534 45.0661 61.15C45.0661 61.7753 45.1781 62.3027 45.4021 62.732C45.6354 63.1613 45.9434 63.4833 46.3261 63.698C46.7088 63.9033 47.1288 64.006 47.5861 64.006ZM56.5412 65.126C55.8225 65.126 55.1692 64.9627 54.5812 64.636C54.0025 64.3093 53.5452 63.8473 53.2092 63.25C52.8825 62.6433 52.7192 61.9433 52.7192 61.15C52.7192 60.366 52.8872 59.6753 53.2232 59.078C53.5685 58.4713 54.0352 58.0093 54.6232 57.692C55.2112 57.3653 55.8692 57.202 56.5972 57.202C57.3252 57.202 57.9832 57.3653 58.5712 57.692C59.1592 58.0093 59.6212 58.4667 59.9572 59.064C60.3025 59.6613 60.4752 60.3567 60.4752 61.15C60.4752 61.9433 60.2979 62.6433 59.9432 63.25C59.5979 63.8473 59.1265 64.3093 58.5292 64.636C57.9319 64.9627 57.2692 65.126 56.5412 65.126ZM56.5412 64.006C56.9985 64.006 57.4279 63.8987 57.8292 63.684C58.2305 63.4693 58.5525 63.1473 58.7952 62.718C59.0472 62.2887 59.1732 61.766 59.1732 61.15C59.1732 60.534 59.0519 60.0113 58.8092 59.582C58.5665 59.1527 58.2492 58.8353 57.8572 58.63C57.4652 58.4153 57.0405 58.308 56.5832 58.308C56.1165 58.308 55.6872 58.4153 55.2952 58.63C54.9125 58.8353 54.6045 59.1527 54.3712 59.582C54.1379 60.0113 54.0212 60.534 54.0212 61.15C54.0212 61.7753 54.1332 62.3027 54.3572 62.732C54.5905 63.1613 54.8985 63.4833 55.2812 63.698C55.6639 63.9033 56.0839 64.006 56.5412 64.006ZM66.4343 65L63.4243 61.612V65H62.1503V54.64H63.4243V60.73L66.3783 57.328H68.1563L64.5443 61.15L68.1703 65H66.4343Z" fill="black"/>
<defs>
<clipPath id="clip0_0_848">
<rect width="40" height="40" fill="white" transform="translate(15)"/>
</clipPath>
</defs>
</svg>
