<svg width="48" height="48" viewBox="0 0 48 48" fill="none" xmlns="http://www.w3.org/2000/svg">
<rect width="48" height="48" rx="10" fill="#FFA041"/>
<path fill-rule="evenodd" clip-rule="evenodd" d="M26.3333 35.6667H21.6667C17.2669 35.6667 15.067 35.6667 13.7002 34.2998C12.3333 32.933 12.3333 30.7331 12.3333 26.3333V21.6667C12.3333 17.2669 12.3333 15.067 13.7002 13.7002C15.067 12.3333 17.2785 12.3333 21.7014 12.3333C22.4084 12.3333 22.975 12.3333 23.4517 12.3528C23.436 12.446 23.4278 12.5412 23.4274 12.6373L23.4167 15.9441C23.4166 17.2241 23.4164 18.3552 23.5391 19.267C23.6719 20.2553 23.977 21.2435 24.7835 22.0499C25.5899 22.8564 26.5781 23.1615 27.5664 23.2944C28.4783 23.417 29.6093 23.4169 30.8893 23.4168H31H35.617C35.6667 24.0401 35.6667 24.8051 35.6667 25.8234V26.3333C35.6667 30.7331 35.6667 32.933 34.2998 34.2998C32.9331 35.6667 30.7331 35.6667 26.3333 35.6667Z" fill="white"/>
<path opacity="0.5" d="M19.3333 26.9167C19.3333 27.8831 18.811 28.6667 18.1667 28.6667C17.5223 28.6667 17 27.8831 17 26.9167C17 25.9502 17.5223 25.1667 18.1667 25.1667C18.811 25.1667 19.3333 25.9502 19.3333 26.9167Z" fill="#FFA041"/>
<path opacity="0.5" d="M20.9854 29.6887C20.5834 29.4207 20.0401 29.5293 19.772 29.9314C19.504 30.3335 19.6126 30.8768 20.0147 31.1448C22.428 32.7537 25.5721 32.7537 27.9854 31.1448C28.3876 30.8768 28.4962 30.3335 28.2281 29.9314C27.9601 29.5293 27.4168 29.4207 27.0148 29.6887C25.1892 30.9057 22.8109 30.9057 20.9854 29.6887Z" fill="#FFA041"/>
<path opacity="0.5" d="M31 26.9167C31 27.8831 30.4777 28.6667 29.8333 28.6667C29.189 28.6667 28.6667 27.8831 28.6667 26.9167C28.6667 25.9502 29.189 25.1667 29.8333 25.1667C30.4777 25.1667 31 25.9502 31 26.9167Z" fill="#FFA041"/>
<path opacity="0.5" d="M23.4274 12.6368L23.4167 15.9436C23.4165 17.2235 23.4164 18.3547 23.539 19.2665C23.6719 20.2548 23.977 21.2429 24.7835 22.0495C25.59 22.8559 26.5781 23.1609 27.5665 23.2938C28.4782 23.4164 29.6093 23.4163 30.8893 23.4162H35.617C35.6314 23.5977 35.6417 23.7912 35.6489 23.9994H35.6667C35.6667 23.6873 35.6667 23.5314 35.6551 23.3476C35.5891 22.304 35.1553 21.1081 34.5367 20.265C34.4279 20.1165 34.3533 20.0274 34.2045 19.8492C33.2799 18.7425 32.0628 17.3639 31 16.4161C30.0541 15.5725 28.7585 14.6496 27.6284 13.8949C26.6578 13.2465 26.1723 12.9224 25.5067 12.6814C25.3303 12.6175 25.0976 12.547 24.9154 12.5021C24.4674 12.3918 24.0313 12.3535 23.4167 12.3402L23.4274 12.6368Z" fill="white"/>
</svg>
