<svg width="158" height="56" viewBox="0 0 158 56" fill="none" xmlns="http://www.w3.org/2000/svg">
<path d="M146 0H12C5.37258 0 0 5.37258 0 12V44C0 50.6274 5.37258 56 12 56H146C152.627 56 158 50.6274 158 44V12C158 5.37258 152.627 0 146 0Z" fill="#D0FFCB"/>
<path d="M63.536 24.848V26.032H58.688V29.792H62.624V30.976H58.688V36H57.232V24.848H63.536ZM66.0465 25.808C65.7692 25.808 65.5345 25.712 65.3425 25.52C65.1505 25.328 65.0545 25.0933 65.0545 24.816C65.0545 24.5387 65.1505 24.304 65.3425 24.112C65.5345 23.92 65.7692 23.824 66.0465 23.824C66.3132 23.824 66.5372 23.92 66.7185 24.112C66.9105 24.304 67.0065 24.5387 67.0065 24.816C67.0065 25.0933 66.9105 25.328 66.7185 25.52C66.5372 25.712 66.3132 25.808 66.0465 25.808ZM66.7505 27.232V36H65.2945V27.232H66.7505ZM73.504 27.072C74.5707 27.072 75.4347 27.3973 76.096 28.048C76.7573 28.688 77.088 29.616 77.088 30.832V36H75.648V31.04C75.648 30.1653 75.4293 29.4987 74.992 29.04C74.5547 28.5707 73.9573 28.336 73.2 28.336C72.432 28.336 71.8187 28.576 71.36 29.056C70.912 29.536 70.688 30.2347 70.688 31.152V36H69.232V27.232H70.688V28.48C70.976 28.032 71.3653 27.6853 71.856 27.44C72.3573 27.1947 72.9067 27.072 73.504 27.072ZM83.0824 27.088C83.8397 27.088 84.501 27.2533 85.0664 27.584C85.6424 27.9147 86.069 28.3307 86.3464 28.832V27.232H87.8184V36.192C87.8184 36.992 87.6477 37.7013 87.3064 38.32C86.965 38.9493 86.4744 39.44 85.8344 39.792C85.205 40.144 84.469 40.32 83.6264 40.32C82.4744 40.32 81.5144 40.048 80.7464 39.504C79.9784 38.96 79.525 38.2187 79.3864 37.28H80.8264C80.9864 37.8133 81.317 38.24 81.8184 38.56C82.3197 38.8907 82.9224 39.056 83.6264 39.056C84.4264 39.056 85.077 38.8053 85.5784 38.304C86.0904 37.8027 86.3464 37.0987 86.3464 36.192V34.352C86.0584 34.864 85.6317 35.2907 85.0664 35.632C84.501 35.9733 83.8397 36.144 83.0824 36.144C82.3037 36.144 81.5944 35.952 80.9544 35.568C80.325 35.184 79.829 34.6453 79.4664 33.952C79.1037 33.2587 78.9224 32.4693 78.9224 31.584C78.9224 30.688 79.1037 29.904 79.4664 29.232C79.829 28.5493 80.325 28.0213 80.9544 27.648C81.5944 27.2747 82.3037 27.088 83.0824 27.088ZM86.3464 31.6C86.3464 30.9387 86.213 30.3627 85.9464 29.872C85.6797 29.3813 85.317 29.008 84.8584 28.752C84.4104 28.4853 83.9144 28.352 83.3704 28.352C82.8264 28.352 82.3304 28.48 81.8824 28.736C81.4344 28.992 81.077 29.3653 80.8104 29.856C80.5437 30.3467 80.4104 30.9227 80.4104 31.584C80.4104 32.256 80.5437 32.8427 80.8104 33.344C81.077 33.8347 81.4344 34.2133 81.8824 34.48C82.3304 34.736 82.8264 34.864 83.3704 34.864C83.9144 34.864 84.4104 34.736 84.8584 34.48C85.317 34.2133 85.6797 33.8347 85.9464 33.344C86.213 32.8427 86.3464 32.2613 86.3464 31.6ZM98.2789 31.28C98.2789 31.5573 98.2629 31.8507 98.2309 32.16H91.2229C91.2762 33.024 91.5695 33.7013 92.1029 34.192C92.6469 34.672 93.3029 34.912 94.0709 34.912C94.7002 34.912 95.2229 34.768 95.6389 34.48C96.0655 34.1813 96.3642 33.7867 96.5349 33.296H98.1029C97.8682 34.1387 97.3989 34.8267 96.6949 35.36C95.9909 35.8827 95.1162 36.144 94.0709 36.144C93.2389 36.144 92.4922 35.9573 91.8309 35.584C91.1802 35.2107 90.6682 34.6827 90.2949 34C89.9215 33.3067 89.7349 32.5067 89.7349 31.6C89.7349 30.6933 89.9162 29.8987 90.2789 29.216C90.6415 28.5333 91.1482 28.0107 91.7989 27.648C92.4602 27.2747 93.2175 27.088 94.0709 27.088C94.9029 27.088 95.6389 27.2693 96.2789 27.632C96.9189 27.9947 97.4095 28.496 97.7509 29.136C98.1029 29.7653 98.2789 30.48 98.2789 31.28ZM96.7749 30.976C96.7749 30.4213 96.6522 29.9467 96.4069 29.552C96.1615 29.1467 95.8255 28.8427 95.3989 28.64C94.9829 28.4267 94.5189 28.32 94.0069 28.32C93.2709 28.32 92.6415 28.5547 92.1189 29.024C91.6069 29.4933 91.3135 30.144 91.2389 30.976H96.7749ZM101.657 28.656C101.913 28.1547 102.275 27.7653 102.745 27.488C103.225 27.2107 103.806 27.072 104.489 27.072V28.576H104.105C102.473 28.576 101.657 29.4613 101.657 31.232V36H100.201V27.232H101.657V28.656ZM107.626 28.848C107.914 28.3467 108.34 27.9307 108.906 27.6C109.482 27.2587 110.148 27.088 110.906 27.088C111.684 27.088 112.388 27.2747 113.017 27.648C113.657 28.0213 114.159 28.5493 114.522 29.232C114.884 29.904 115.066 30.688 115.066 31.584C115.066 32.4693 114.884 33.2587 114.522 33.952C114.159 34.6453 113.657 35.184 113.017 35.568C112.388 35.952 111.684 36.144 110.906 36.144C110.159 36.144 109.498 35.9787 108.922 35.648C108.356 35.3067 107.924 34.8853 107.626 34.384V40.16H106.17V27.232H107.626V28.848ZM113.578 31.584C113.578 30.9227 113.444 30.3467 113.178 29.856C112.911 29.3653 112.548 28.992 112.09 28.736C111.642 28.48 111.146 28.352 110.602 28.352C110.068 28.352 109.572 28.4853 109.114 28.752C108.666 29.008 108.303 29.3867 108.026 29.888C107.759 30.3787 107.626 30.9493 107.626 31.6C107.626 32.2613 107.759 32.8427 108.026 33.344C108.303 33.8347 108.666 34.2133 109.114 34.48C109.572 34.736 110.068 34.864 110.602 34.864C111.146 34.864 111.642 34.736 112.09 34.48C112.548 34.2133 112.911 33.8347 113.178 33.344C113.444 32.8427 113.578 32.256 113.578 31.584ZM118.438 28.656C118.694 28.1547 119.057 27.7653 119.526 27.488C120.006 27.2107 120.587 27.072 121.27 27.072V28.576H120.886C119.254 28.576 118.438 29.4613 118.438 31.232V36H116.982V27.232H118.438V28.656ZM123.703 25.808C123.425 25.808 123.191 25.712 122.999 25.52C122.807 25.328 122.711 25.0933 122.711 24.816C122.711 24.5387 122.807 24.304 122.999 24.112C123.191 23.92 123.425 23.824 123.703 23.824C123.969 23.824 124.193 23.92 124.375 24.112C124.567 24.304 124.663 24.5387 124.663 24.816C124.663 25.0933 124.567 25.328 124.375 25.52C124.193 25.712 123.969 25.808 123.703 25.808ZM124.407 27.232V36H122.951V27.232H124.407ZM131.16 27.072C132.227 27.072 133.091 27.3973 133.752 28.048C134.414 28.688 134.744 29.616 134.744 30.832V36H133.304V31.04C133.304 30.1653 133.086 29.4987 132.648 29.04C132.211 28.5707 131.614 28.336 130.856 28.336C130.088 28.336 129.475 28.576 129.016 29.056C128.568 29.536 128.344 30.2347 128.344 31.152V36H126.888V27.232H128.344V28.48C128.632 28.032 129.022 27.6853 129.512 27.44C130.014 27.1947 130.563 27.072 131.16 27.072ZM138.899 28.432V33.6C138.899 34.0267 138.989 34.3307 139.171 34.512C139.352 34.6827 139.667 34.768 140.115 34.768H141.187V36H139.875C139.064 36 138.456 35.8133 138.051 35.44C137.645 35.0667 137.443 34.4533 137.443 33.6V28.432H136.307V27.232H137.443V25.024H138.899V27.232H141.187V28.432H138.899Z" fill="#29A71A"/>
<mask id="mask0_0_874" style="mask-type:luminance" maskUnits="userSpaceOnUse" x="10" y="16" width="24" height="24">
<path d="M34 16H10V40H34V16Z" fill="white"/>
</mask>
<g mask="url(#mask0_0_874)">
<path d="M23.748 25.312C24.0971 25.3125 24.4318 25.4515 24.6787 25.6983C24.9256 25.9452 25.0645 26.2799 25.065 26.629C25.0693 26.7018 25.1013 26.7702 25.1543 26.8202C25.2074 26.8703 25.2776 26.8981 25.3505 26.8981C25.4234 26.8981 25.4936 26.8703 25.5467 26.8202C25.5997 26.7702 25.6317 26.7018 25.636 26.629C25.636 26.2796 25.7748 25.9445 26.0219 25.6974C26.269 25.4503 26.6041 25.3115 26.9535 25.3115C27.3029 25.3115 27.638 25.4503 27.8851 25.6974C28.1322 25.9445 28.271 26.2796 28.271 26.629V27.141C28.2753 27.2138 28.3073 27.2822 28.3603 27.3322C28.4134 27.3823 28.4836 27.4101 28.5565 27.4101C28.6294 27.4101 28.6996 27.3823 28.7527 27.3322C28.8057 27.2822 28.8377 27.2138 28.842 27.141C28.842 26.7917 28.9808 26.4567 29.2278 26.2098C29.4747 25.9628 29.8097 25.824 30.159 25.824C30.5083 25.824 30.8433 25.9628 31.0903 26.2098C31.3373 26.4567 31.476 26.7917 31.476 27.141V36.054C31.476 38.747 29.652 40 25.734 40C22.524 40 21.886 39.151 19.958 35.919C19.952 35.8951 19.949 35.8706 19.949 35.846C19.9504 35.7926 19.9365 35.7399 19.909 35.694L15.135 27.617C15.1229 27.5962 15.1081 27.577 15.091 27.56C14.9622 27.4392 14.8589 27.2937 14.7874 27.1322C14.716 26.9707 14.6777 26.7965 14.6749 26.6199C14.6721 26.4433 14.7049 26.268 14.7713 26.1043C14.8376 25.9406 14.9362 25.792 15.0612 25.6672C15.1862 25.5424 15.335 25.444 15.4988 25.3779C15.6626 25.3118 15.838 25.2793 16.0146 25.2824C16.1912 25.2855 16.3653 25.324 16.5267 25.3957C16.6881 25.4675 16.8334 25.571 16.954 25.7L18.737 27.48C18.7769 27.5198 18.8276 27.5469 18.8829 27.558C18.9381 27.5691 18.9954 27.5636 19.0475 27.5422C19.0996 27.5208 19.1443 27.4846 19.1758 27.4379C19.2074 27.3913 19.2245 27.3363 19.225 27.28V18.42C19.225 18.0707 19.3638 17.7357 19.6108 17.4888C19.8577 17.2418 20.1927 17.103 20.542 17.103C20.8913 17.103 21.2263 17.2418 21.4733 17.4888C21.7203 17.7357 21.859 18.0707 21.859 18.42V26.629C21.859 26.7049 21.8891 26.7776 21.9428 26.8312C21.9964 26.8849 22.0692 26.915 22.145 26.915C22.2209 26.915 22.2936 26.8849 22.3472 26.8312C22.4009 26.7776 22.431 26.7049 22.431 26.629C22.4315 26.2799 22.5705 25.9452 22.8173 25.6983C23.0642 25.4515 23.3989 25.3125 23.748 25.312Z" fill="#29A71A"/>
<path d="M22.431 20.348V18.42C22.431 17.919 22.232 17.4385 21.8777 17.0843C21.5235 16.73 21.043 16.531 20.542 16.531C20.041 16.531 19.5605 16.73 19.2063 17.0843C18.852 17.4385 18.653 17.919 18.653 18.42V20.482C18.633 20.463 18.614 20.443 18.595 20.424C18.2427 20.0579 18.0048 19.597 17.9104 19.0977C17.816 18.5984 17.8692 18.0825 18.0635 17.613C18.2578 17.1435 18.5848 16.7408 19.0044 16.4543C19.424 16.1677 19.9181 16.0098 20.4261 15.9997C20.9341 15.9897 21.4341 16.1279 21.8647 16.3976C22.2954 16.6673 22.638 17.0567 22.8508 17.5181C23.0635 17.9795 23.1371 18.493 23.0626 18.9956C22.988 19.4982 22.7686 19.9682 22.431 20.348Z" fill="#29A71A"/>
<path d="M16.232 19.253C16.1787 19.2005 16.1068 19.1711 16.032 19.1711C15.9572 19.1711 15.8853 19.2005 15.832 19.253L12.612 22.473C12.5789 22.4975 12.5515 22.5288 12.5316 22.5648C12.5118 22.6008 12.4999 22.6407 12.4968 22.6817C12.4938 22.7228 12.4996 22.764 12.5139 22.8025C12.5282 22.8411 12.5507 22.8761 12.5798 22.9052C12.6089 22.9343 12.6439 22.9568 12.6825 22.9711C12.7211 22.9854 12.7623 22.9912 12.8033 22.9882C12.8443 22.9851 12.8842 22.9733 12.9202 22.9534C12.9562 22.9335 12.9875 22.9061 13.012 22.873L16.232 19.653C16.2845 19.5997 16.314 19.5279 16.314 19.453C16.314 19.3782 16.2845 19.3063 16.232 19.253Z" fill="#29A71A"/>
<path d="M16.745 20.939C16.7857 20.8839 16.8053 20.816 16.8002 20.7477C16.7951 20.6794 16.7657 20.6152 16.7173 20.5667C16.6688 20.5183 16.6046 20.4889 16.5363 20.4838C16.468 20.4787 16.4001 20.4983 16.345 20.539L13.12 23.756C13.0869 23.7805 13.0595 23.8118 13.0396 23.8478C13.0197 23.8838 13.0079 23.9237 13.0048 23.9647C13.0018 24.0058 13.0076 24.047 13.0219 24.0855C13.0362 24.1241 13.0587 24.1591 13.0878 24.1882C13.1169 24.2173 13.1519 24.2398 13.1905 24.2541C13.229 24.2684 13.2702 24.2742 13.3113 24.2712C13.3523 24.2681 13.3922 24.2563 13.4282 24.2364C13.4642 24.2165 13.4955 24.1891 13.52 24.156L16.745 20.939Z" fill="#29A71A"/>
<path d="M14.4 24.929C14.4533 24.9815 14.5251 25.011 14.6 25.011C14.6748 25.011 14.7467 24.9815 14.8 24.929L18.021 21.709C18.0617 21.6539 18.0813 21.586 18.0762 21.5177C18.0711 21.4494 18.0417 21.3852 17.9933 21.3367C17.9448 21.2883 17.8806 21.2589 17.8123 21.2538C17.744 21.2487 17.6761 21.2683 17.621 21.309L14.4 24.525C14.3734 24.5515 14.3523 24.583 14.3379 24.6176C14.3235 24.6523 14.316 24.6895 14.316 24.727C14.316 24.7645 14.3235 24.8017 14.3379 24.8364C14.3523 24.871 14.3734 24.9025 14.4 24.929Z" fill="#29A71A"/>
</g>
</svg>
