<svg width="364" height="272" viewBox="0 0 364 272" fill="none" xmlns="http://www.w3.org/2000/svg">
<path d="M327.527 250.66H303.43V250.806H327.527V250.66Z" fill="#EBEBEB"/>
<path d="M241.114 252.626H234.78V252.772H241.114V252.626Z" fill="#EBEBEB"/>
<path d="M302.703 243.89H288.725V244.036H302.703V243.89Z" fill="#EBEBEB"/>
<path d="M69.67 245.127H38.22V245.273H69.67V245.127Z" fill="#EBEBEB"/>
<path d="M80.735 245.127H76.149V245.273H80.735V245.127Z" fill="#EBEBEB"/>
<path d="M163.946 248.185H95.7321V248.331H163.946V248.185Z" fill="#EBEBEB"/>
<path d="M172.536 206.47H31.9601C30.8634 206.457 29.8154 206.016 29.0399 205.24C28.2644 204.465 27.823 203.417 27.8101 202.32V4.74198C27.823 3.64536 28.2644 2.59732 29.0399 1.82184C29.8154 1.04636 30.8634 0.604959 31.9601 0.59198H172.536C173.633 0.604959 174.681 1.04636 175.456 1.82184C176.232 2.59732 176.673 3.64536 176.686 4.74198V202.321C176.686 202.866 176.579 203.406 176.37 203.909C176.162 204.413 175.856 204.87 175.471 205.255C175.085 205.641 174.628 205.946 174.124 206.155C173.621 206.363 173.081 206.47 172.536 206.47ZM31.9601 0.73798C31.4345 0.736926 30.9139 0.839668 30.4281 1.04031C29.9423 1.24096 29.5009 1.53556 29.1293 1.9072C28.7576 2.27884 28.463 2.72022 28.2624 3.206C28.0617 3.69178 27.959 4.2124 27.9601 4.73798V202.321C27.959 202.847 28.0617 203.367 28.2624 203.853C28.463 204.339 28.7576 204.78 29.1293 205.152C29.5009 205.523 29.9423 205.818 30.4281 206.019C30.9139 206.219 31.4345 206.322 31.9601 206.321H172.536C173.062 206.322 173.582 206.219 174.068 206.019C174.554 205.818 174.995 205.523 175.367 205.152C175.738 204.78 176.033 204.339 176.234 203.853C176.434 203.367 176.537 202.847 176.536 202.321V4.74198C176.537 4.2164 176.434 3.69578 176.234 3.21C176.033 2.72422 175.738 2.28285 175.367 1.9112C174.995 1.53956 174.554 1.24496 174.068 1.04432C173.582 0.84367 173.062 0.740927 172.536 0.741982L31.9601 0.73798Z" fill="#EBEBEB"/>
<path d="M330.002 206.47H189.426C188.329 206.457 187.281 206.016 186.506 205.24C185.73 204.465 185.289 203.417 185.276 202.32V4.74198C185.289 3.64536 185.73 2.59732 186.506 1.82184C187.281 1.04636 188.329 0.604959 189.426 0.59198H330.002C331.099 0.604959 332.147 1.04636 332.922 1.82184C333.698 2.59732 334.139 3.64536 334.152 4.74198V202.321C334.152 202.866 334.045 203.406 333.836 203.909C333.628 204.413 333.322 204.87 332.937 205.255C332.551 205.641 332.094 205.946 331.59 206.155C331.087 206.363 330.547 206.47 330.002 206.47ZM189.426 0.73798C188.9 0.736926 188.38 0.839668 187.894 1.04031C187.408 1.24096 186.967 1.53556 186.595 1.9072C186.224 2.27884 185.929 2.72022 185.728 3.206C185.528 3.69178 185.425 4.2124 185.426 4.73798V202.321C185.425 202.847 185.528 203.367 185.728 203.853C185.929 204.339 186.224 204.78 186.595 205.152C186.967 205.523 187.408 205.818 187.894 206.019C188.38 206.219 188.9 206.322 189.426 206.321H330.002C330.528 206.322 331.048 206.219 331.534 206.019C332.02 205.818 332.461 205.523 332.833 205.152C333.204 204.78 333.499 204.339 333.7 203.853C333.9 203.367 334.003 202.847 334.002 202.321V4.74198C334.003 4.2164 333.9 3.69578 333.7 3.21C333.499 2.72422 333.204 2.28285 332.833 1.9112C332.461 1.53956 332.02 1.24496 331.534 1.04432C331.048 0.84367 330.528 0.740927 330.002 0.741982L189.426 0.73798Z" fill="#EBEBEB"/>
<path d="M364 238.939H0V239.085H364V238.939Z" fill="#EBEBEB"/>
<path d="M220.802 96.979H197.802C197.341 96.9854 196.9 97.1716 196.574 97.4978C196.248 97.8241 196.062 98.2647 196.055 98.726V114.742C196.062 115.203 196.248 115.644 196.574 115.97C196.9 116.296 197.341 116.483 197.802 116.489H220.802C221.263 116.483 221.704 116.296 222.03 115.97C222.356 115.644 222.543 115.203 222.549 114.742V98.726C222.543 98.2646 222.357 97.8238 222.031 97.4975C221.704 97.1712 221.263 96.9852 220.802 96.979Z" fill="#E0E0E0"/>
<path d="M209.955 98.653H198.016V105.278H209.955V98.653Z" fill="#EBEBEB"/>
<path d="M200.273 107.244H198.016V108.482H200.273V107.244Z" fill="#EBEBEB"/>
<path d="M200.273 109.355H198.016V110.593H200.273V109.355Z" fill="#EBEBEB"/>
<path d="M200.273 111.466H198.016V112.704H200.273V111.466Z" fill="#EBEBEB"/>
<path d="M200.273 113.505H198.016V114.743H200.273V113.505Z" fill="#EBEBEB"/>
<path d="M203.476 107.244H201.219V108.482H203.476V107.244Z" fill="#EBEBEB"/>
<path d="M203.476 109.355H201.219V110.593H203.476V109.355Z" fill="#EBEBEB"/>
<path d="M203.476 111.466H201.219V112.704H203.476V111.466Z" fill="#EBEBEB"/>
<path d="M203.476 113.505H201.219V114.743H203.476V113.505Z" fill="#EBEBEB"/>
<path d="M206.679 107.244H204.422V108.482H206.679V107.244Z" fill="#EBEBEB"/>
<path d="M206.679 109.355H204.422V110.593H206.679V109.355Z" fill="#EBEBEB"/>
<path d="M206.679 111.466H204.422V112.704H206.679V111.466Z" fill="#EBEBEB"/>
<path d="M206.679 113.505H204.422V114.743H206.679V113.505Z" fill="#EBEBEB"/>
<path d="M209.955 107.244H207.698V108.482H209.955V107.244Z" fill="#EBEBEB"/>
<path d="M209.955 109.355H207.698V110.593H209.955V109.355Z" fill="#EBEBEB"/>
<path d="M209.955 111.466H207.698V112.704H209.955V111.466Z" fill="#EBEBEB"/>
<path d="M209.955 113.505H207.698V114.743H209.955V113.505Z" fill="#EBEBEB"/>
<path d="M220.656 96.979H214.177V114.815H220.656V96.979Z" fill="#F0F0F0"/>
<path d="M220.656 101.929H214.177V109.355H220.656V101.929Z" fill="#E6E6E6"/>
<path d="M214.177 109.355L215.415 105.278H219.783L220.729 109.355H214.177Z" fill="#E0E0E0"/>
<path d="M323.154 19.156V239.376H276.344L276.417 239.012H316.166V25.417H233.542V239.017H259.095L276.349 239.381H227.354V19.156H323.154Z" fill="#EBEBEB"/>
<path d="M316.17 25.417V239.017H276.421L276.348 239.381L259.094 239.017H233.542V25.417H316.17Z" fill="#F0F0F0"/>
<path d="M316.17 25.417H233.542V239.012H316.17V25.417Z" fill="#F5F5F5"/>
<path d="M316.17 25.417V83.075L276.421 239.017L276.348 239.381L259.095 239.017L314.277 25.417H316.17Z" fill="white"/>
<path d="M243.224 109.646H233.542V141.532H243.224V109.646Z" fill="white"/>
<path d="M288.724 25.417L233.542 239.017L250.796 239.381L305.323 25.417H288.724Z" fill="white"/>
<path d="M190.155 210.692C190.125 210.696 190.095 210.693 190.067 210.684C190.039 210.674 190.013 210.658 189.992 210.637C189.971 210.616 189.955 210.59 189.945 210.562C189.936 210.534 189.933 210.504 189.937 210.474C189.282 191.474 195.106 184.266 195.106 184.193C195.125 184.172 195.148 184.156 195.173 184.144C195.198 184.133 195.226 184.126 195.254 184.126C195.281 184.125 195.309 184.13 195.335 184.14C195.361 184.151 195.384 184.166 195.404 184.186C195.424 184.206 195.439 184.229 195.45 184.255C195.46 184.281 195.465 184.309 195.464 184.336C195.464 184.364 195.457 184.392 195.446 184.417C195.434 184.442 195.418 184.465 195.397 184.484C195.324 184.557 189.646 191.691 190.297 210.474C190.37 210.62 190.297 210.692 190.151 210.692H190.155Z" fill="#E0E0E0"/>
<path d="M192.847 210.693C192.79 210.69 192.737 210.666 192.697 210.625C192.656 210.585 192.632 210.532 192.629 210.475C193.139 204.942 195.104 200.72 198.529 197.881C203.843 193.513 210.905 194.168 210.978 194.168C211.036 194.168 211.092 194.191 211.133 194.232C211.174 194.273 211.197 194.329 211.197 194.387C211.197 194.444 211.174 194.5 211.133 194.541C211.092 194.582 211.036 194.605 210.978 194.605C210.905 194.605 204.062 193.95 198.82 198.245C195.471 201.011 193.578 205.088 193.069 210.545C193.066 210.62 192.993 210.693 192.847 210.693Z" fill="#E0E0E0"/>
<path d="M206.607 194.313C205.588 192.275 197.07 190.819 201.948 186.378C206.826 181.864 206.826 191.478 209.01 191.478C212.068 191.405 211.485 178.592 216.436 181.868C221.459 185.217 211.486 190.458 213.087 192.788C214.543 194.972 223.425 187.91 223.57 192.206C223.788 196.506 214.179 193.298 213.524 195.919C213.014 197.957 222.551 199.777 218.324 202.762C214.102 205.674 212.791 196.792 210.462 197.375C208.715 197.812 211.044 205.165 207.477 204C203.986 202.83 207.699 196.497 206.607 194.313Z" fill="#F0F0F0"/>
<path d="M186.95 213.095C186.893 213.092 186.84 213.068 186.8 213.027C186.759 212.987 186.735 212.934 186.732 212.877C185.058 196.351 177.632 186.305 177.559 186.232C177.545 186.208 177.535 186.182 177.531 186.154C177.527 186.126 177.529 186.098 177.535 186.071C177.542 186.044 177.554 186.019 177.571 185.997C177.587 185.974 177.608 185.955 177.632 185.941C177.656 185.927 177.682 185.917 177.71 185.913C177.738 185.909 177.766 185.91 177.793 185.917C177.82 185.924 177.845 185.936 177.868 185.953C177.89 185.969 177.909 185.99 177.923 186.014C177.996 186.087 185.494 196.279 187.169 212.877C187.166 212.934 187.142 212.987 187.102 213.027C187.061 213.068 187.008 213.092 186.951 213.095H186.95Z" fill="#E0E0E0"/>
<path d="M179.524 192.496C176.976 194.607 177.777 207.129 169.842 201.742C161.907 196.355 175.448 193.224 174.642 190.167C173.55 185.867 155.642 191.041 158.626 182.887C161.61 174.733 172.312 186.964 175.152 183.979C177.773 181.213 164.814 171.093 170.852 169.346C176.89 167.599 175.584 182.232 179.442 182.232C182.427 182.232 181.917 168.254 187.45 173.205C192.983 178.156 180.898 183.033 182.5 186.091C183.738 188.421 193.2 182.669 192.838 188.057C192.41 193.296 182.218 190.235 179.524 192.496Z" fill="#E6E6E6"/>
<path d="M199.618 229.257L201.365 208.727H176.54L178.287 229.257C178.508 231.921 179.725 234.405 181.694 236.213C183.664 238.02 186.242 239.02 188.916 239.012C191.601 239.035 194.196 238.043 196.181 236.234C198.165 234.425 199.393 231.933 199.618 229.257Z" fill="#F5F5F5"/>
<path d="M193.575 190.749C196.123 192.86 195.322 205.382 203.257 199.995C211.192 194.608 197.651 191.477 198.457 188.42C199.549 184.12 217.457 189.294 214.473 181.14C211.489 172.986 200.787 185.217 197.947 182.232C195.326 179.466 208.285 169.346 202.247 167.599C196.209 165.852 197.515 180.485 193.657 180.485C190.672 180.485 191.182 166.507 185.649 171.458C180.116 176.409 192.201 181.286 190.599 184.344C189.361 186.674 179.899 180.922 180.261 186.31C180.689 191.619 190.881 188.489 193.575 190.749Z" fill="#F5F5F5"/>
<path d="M128.492 138.184H28.319V238.357H128.492V138.184Z" fill="#EBEBEB"/>
<path d="M121.649 145.828H35.963V238.211H121.649V145.828Z" fill="#FAFAFA"/>
<path d="M44.044 184.266H41.132V194.749H44.044V184.266Z" fill="#E6E6E6"/>
<path d="M42.588 179.389H39.676V199.991H42.588V179.389Z" fill="white"/>
<path d="M44.044 179.389H39.676V182.519H44.044V179.389Z" fill="white"/>
<path d="M44.044 196.861H39.676V199.991H44.044V196.861Z" fill="white"/>
<path d="M182 271.407C259.96 271.407 323.159 267.724 323.159 263.181C323.159 258.638 259.96 254.955 182 254.955C104.04 254.955 40.8409 258.638 40.8409 263.181C40.8409 267.724 104.04 271.407 182 271.407Z" fill="#F5F5F5"/>
<path d="M300.3 85.331C299.921 86.4543 299.271 87.4669 298.408 88.2795C297.544 89.092 296.494 89.6795 295.35 89.99C294.345 90.254 293.324 90.4485 292.292 90.572C292.146 90.572 291.928 90.645 291.782 90.645C288.288 91.082 284.72 91.009 281.226 91.445C281.08 91.445 280.862 91.518 280.716 91.518C278.99 91.8793 277.236 92.0984 275.474 92.173C275.084 92.185 274.694 92.1605 274.309 92.1C272.738 91.997 271.236 91.4125 270.009 90.426C268.585 88.9253 267.668 87.0155 267.388 84.966C268.407 84.6746 269.572 84.3106 270.882 83.874C280.128 80.816 270.008 75.72 273.282 67.567C277.868 56.21 296.582 57.011 296.282 64.728C302.12 66.33 302.994 77.541 300.3 85.331Z" fill="#263238"/>
<path d="M274.528 71.718C274.227 73.5136 273.814 75.2884 273.29 77.032C273.024 77.9087 272.546 78.7064 271.899 79.3545C271.252 80.0027 270.454 80.4812 269.578 80.748C272.272 81.913 275.62 80.602 277.44 78.273C279.26 75.944 279.84 72.886 279.915 69.901C279.915 69.246 280.061 68.372 279.551 67.935C276.057 64.51 274.892 69.898 274.528 71.718Z" fill="#263238"/>
<path d="M271.908 102.075C271.649 102.275 271.406 102.494 271.18 102.73C270.962 102.876 270.816 103.094 270.598 103.24C270.161 103.604 269.724 103.968 269.36 104.332C268.486 104.987 267.613 105.715 266.739 106.298C266.593 106.444 266.375 106.516 266.229 106.662C266.083 106.808 265.865 106.88 265.719 107.026C265.573 107.099 265.428 107.244 265.282 107.317C263.972 108.191 262.588 108.991 261.282 109.792L258.224 111.321C257.278 111.758 256.258 112.195 255.312 112.559L253.783 113.141C253.273 113.287 252.691 113.505 252.183 113.651L251.383 113.869L250.509 114.087C249.927 114.233 249.344 114.378 248.835 114.451C244.517 115.082 240.135 115.131 235.804 114.597C233.693 114.379 231.582 114.087 229.543 113.723C228.087 113.505 226.631 113.141 225.175 112.849C224.593 112.703 223.937 112.558 223.355 112.412L224.01 109.136C224.592 109.209 225.175 109.209 225.757 109.282C227.213 109.428 228.596 109.5 230.057 109.573C232.095 109.646 234.057 109.791 236.099 109.791C239.983 109.889 243.866 109.547 247.674 108.772C248.119 108.685 248.557 108.563 248.984 108.408L249.639 108.19L250.294 107.899C250.742 107.761 251.18 107.59 251.604 107.389L252.914 106.807C254.673 106.026 256.377 105.126 258.014 104.113C259.173 103.453 260.292 102.724 261.363 101.929L262.018 101.492C262.179 101.421 262.327 101.323 262.455 101.201C262.601 101.128 262.746 100.983 262.892 100.91C262.965 100.91 262.965 100.837 263.038 100.837C263.766 100.327 264.494 99.745 265.222 99.163L266.314 98.217C266.678 97.926 267.042 97.562 267.333 97.343L270.755 100.91L271.908 102.075Z" fill="#FFC3BD"/>
<path d="M226.335 109.354L219.856 107.316L221.021 113.795C221.021 113.795 224.515 113.795 226.19 111.757L226.335 109.354Z" fill="#FFC3BD"/>
<path d="M215.342 108.699L216.58 112.921L221.094 113.867L219.856 107.388L215.342 108.699Z" fill="#FFC3BD"/>
<path d="M220.438 109.209C219.743 108.067 219.367 106.76 219.347 105.423C219.42 103.676 220.366 103.823 220.366 103.823C220.366 103.823 220.148 105.861 222.841 109.356L222.914 109.429L220.438 109.209Z" fill="#FFC3BD"/>
<path d="M276.64 100.255C276.058 101.929 273.946 103.531 271.762 104.769C270.057 105.684 268.306 106.511 266.516 107.247C266.152 107.393 265.934 107.465 265.934 107.465L265.643 107.028L262.294 101.204L261.712 100.258C261.858 100.065 262.029 99.8935 262.222 99.748C264.457 97.5136 266.894 95.4909 269.502 93.706C270.52 92.9686 271.739 92.5619 272.996 92.541C277.077 93.484 277.732 96.979 276.64 100.255Z" fill="#407BFF"/>
<path opacity="0.3" d="M276.64 100.255C276.058 101.929 273.946 103.531 271.762 104.769C270.057 105.684 268.306 106.511 266.516 107.247C266.152 107.393 265.934 107.465 265.934 107.465L265.643 107.028L262.294 101.204L261.712 100.258C261.858 100.065 262.029 99.8935 262.222 99.748C264.457 97.5136 266.894 95.4909 269.502 93.706C270.52 92.9686 271.739 92.5619 272.996 92.541C277.077 93.484 277.732 96.979 276.64 100.255Z" fill="black"/>
<path d="M266.521 107.243C266.552 107.369 266.54 107.501 266.487 107.62C266.434 107.738 266.344 107.836 266.23 107.898C266.169 107.937 266.101 107.963 266.029 107.973C265.958 107.983 265.885 107.977 265.816 107.957C265.747 107.936 265.683 107.9 265.629 107.853C265.574 107.805 265.531 107.746 265.502 107.68L265.284 107.243L262.008 101.343L261.426 100.324C261.388 100.257 261.363 100.183 261.353 100.107C261.344 100.031 261.349 99.9531 261.369 99.8788C261.389 99.8045 261.424 99.7349 261.471 99.674C261.519 99.6132 261.577 99.5622 261.644 99.524C261.717 99.524 261.717 99.451 261.79 99.451C261.88 99.4182 261.977 99.4146 262.069 99.4408C262.161 99.4671 262.241 99.5218 262.3 99.597C262.34 99.6363 262.365 99.6876 262.373 99.743L262.883 100.689L266.159 106.589L266.45 107.099C266.491 107.137 266.516 107.188 266.521 107.243Z" fill="#407BFF"/>
<path d="M302.045 91.811C304.375 92.903 304.666 93.485 304.302 95.16C303.574 98.436 302.992 101.275 302.555 103.896C302.409 104.551 302.337 105.134 302.191 105.716C302.191 105.862 302.118 105.934 302.118 106.08C302.118 106.226 302.045 106.298 302.045 106.444C302.045 106.59 301.972 106.808 301.972 106.954C299.642 112.268 298.772 118.675 299.351 128.139C299.424 128.867 299.424 129.595 299.424 130.323H288.145L279.045 130.396H275.332C275.259 129.959 275.186 129.596 275.114 129.231C274.459 125.3 273.876 121.731 273.44 118.602C273.149 116.782 272.93 115.108 272.712 113.579C272.712 113.579 268.854 108.779 270.237 105.862C271.037 104.115 271.475 93.562 271.62 93.122C271.765 92.682 271.911 92.685 271.911 92.685L274.095 92.248C276.206 91.811 278.317 91.448 280.501 91.156C281.229 91.083 281.957 90.938 282.758 90.865C285.67 90.647 288.658 90.574 291.64 90.647H292.222C292.95 90.647 293.678 90.72 294.406 90.72C295.28 90.793 296.153 90.866 296.954 90.938C298.101 90.9872 299.244 91.1088 300.376 91.302C300.923 91.502 301.48 91.6719 302.045 91.811Z" fill="#407BFF"/>
<path d="M290.181 77.833C289.599 81.619 289.089 88.462 291.781 90.864C291.781 90.864 290.398 98.945 283.555 100.182C280.279 99.382 280.206 91.3 280.206 91.3C284.283 90.135 282.9 86.058 283.191 81.909L290.181 77.833Z" fill="#FFC3BD"/>
<path opacity="0.2" d="M282.391 77.833C283.119 80.818 283.847 85.768 282.828 88.971C285.012 88.534 288.215 86.787 288.728 84.894C288.861 83.588 288.886 82.2731 288.801 80.963L282.391 77.833Z" fill="black"/>
<path d="M295.058 72.955C294.258 79.143 294.039 81.764 290.69 84.749C285.667 89.19 278.241 86.86 277.149 80.527C276.203 74.849 277.731 65.676 283.919 63.637C286.063 62.9419 288.393 63.1171 290.409 64.1248C292.424 65.1326 293.963 66.8921 294.693 69.024C295.138 70.284 295.263 71.6346 295.058 72.955Z" fill="#FFC3BD"/>
<path d="M293.602 65.529C289.816 69.679 277.732 70.479 275.839 69.315C279.552 64.146 285.303 61.234 288.506 61.889C290.601 62.4203 292.42 63.7195 293.602 65.529Z" fill="#263238"/>
<path d="M296.223 64.874C296.15 64.947 296.077 64.947 296.077 65.02L296.223 64.874Z" fill="#263238"/>
<path d="M296.587 60.797C296.89 61.4487 297.015 62.1686 296.952 62.8843C296.888 63.6 296.636 64.2862 296.223 64.874C296.595 64.7215 296.919 64.4723 297.162 64.1523C297.406 63.8323 297.559 63.4531 297.606 63.054C297.663 62.6202 297.598 62.179 297.418 61.7802C297.238 61.3814 296.95 61.0409 296.587 60.797Z" fill="#263238"/>
<path d="M296.878 79.07C296.206 80.0848 295.159 80.7918 293.966 81.036C292.366 81.327 291.709 79.871 292.292 78.488C292.802 77.178 294.185 75.576 295.714 75.867C296.236 76.0077 296.684 76.342 296.968 76.8018C297.252 77.2616 297.351 77.8123 297.243 78.342C297.182 78.6104 297.056 78.8602 296.878 79.07Z" fill="#FFC3BD"/>
<path d="M291.345 66.039C290.399 67.131 290.545 68.733 290.545 70.116C290.618 74.338 291.127 79.653 287.851 81.473C291.637 80.381 294.694 78.634 296.66 75.139C298.189 72.445 298.116 70.771 296.951 67.859C296.077 65.75 293.457 63.564 291.345 66.039Z" fill="#263238"/>
<path opacity="0.1" d="M296.878 96.033C296.878 96.033 296.587 107.39 297.606 112.413C298.625 117.436 299.353 116.199 299.353 116.199C299.353 116.199 299.863 108.409 300.809 106.225C301.755 104.041 296.878 96.033 296.878 96.033Z" fill="black"/>
<path d="M307.871 105.497C307.798 106.297 307.725 107.171 307.725 108.045C307.652 108.919 307.652 109.792 307.652 110.739C307.652 112.486 307.652 114.306 307.798 116.053C308.005 119.565 308.54 123.051 309.398 126.463C309.616 127.263 309.908 128.137 310.126 128.863C310.417 129.663 310.708 130.463 311.072 131.263C311.8 132.863 312.601 134.539 313.402 136.141C315.076 139.417 316.824 142.693 318.571 145.969L315.805 147.935C313.288 145.051 310.953 142.011 308.816 138.835C307.712 137.239 306.691 135.587 305.758 133.885C305.239 132.993 304.777 132.069 304.375 131.119C303.938 130.173 303.647 129.226 303.283 128.28C302.033 124.482 301.251 120.546 300.953 116.559C300.747 114.599 300.65 112.63 300.662 110.659C300.662 109.64 300.662 108.693 300.735 107.674C300.808 106.655 300.881 105.708 300.953 104.616L307.871 105.497Z" fill="#FFC3BD"/>
<path d="M317.772 145.318L322.504 148.667L316.753 152.38C316.753 152.38 314.205 148.886 315.37 145.318H317.772Z" fill="#FFC3BD"/>
<path d="M324.106 154.054L319.156 156.675L316.68 152.307L322.504 148.594L324.106 154.054Z" fill="#FFC3BD"/>
<path d="M309.036 97.053C310.128 105.279 307.653 106.59 307.653 106.59L300.009 107.318C300.009 107.318 296.223 95.888 298.48 93.049C300.737 90.21 308.453 93.121 309.036 97.053Z" fill="#407BFF"/>
<path opacity="0.3" d="M309.036 97.053C310.128 105.279 307.653 106.59 307.653 106.59L300.009 107.318C300.009 107.318 296.223 95.888 298.48 93.049C300.737 90.21 308.453 93.121 309.036 97.053Z" fill="black"/>
<path d="M308.38 106.512C308.399 106.666 308.356 106.822 308.26 106.945C308.165 107.068 308.024 107.148 307.87 107.167L300.08 107.895C299.926 107.914 299.77 107.871 299.647 107.775C299.524 107.68 299.445 107.539 299.425 107.385C299.429 107.236 299.481 107.092 299.572 106.974C299.664 106.856 299.791 106.77 299.935 106.73L307.725 106.002C307.802 105.99 307.881 105.993 307.956 106.013C308.031 106.032 308.102 106.067 308.164 106.114C308.225 106.162 308.276 106.222 308.313 106.291C308.35 106.359 308.373 106.434 308.38 106.512Z" fill="#407BFF"/>
<path d="M275.038 129.229L273.946 131.559C273.873 131.777 274.092 131.923 274.383 131.923L299.426 130.758C299.644 130.758 299.863 130.612 299.863 130.467L300.009 128.21C300.009 128.064 299.791 127.919 299.572 127.919L275.472 129.011C275.387 129.009 275.304 129.028 275.228 129.066C275.152 129.104 275.087 129.16 275.038 129.229Z" fill="#263238"/>
<path d="M278.606 131.996H277.951C277.805 131.996 277.733 131.923 277.733 131.85L277.951 128.865C277.951 128.792 278.097 128.719 278.242 128.719H278.97C279.116 128.719 279.188 128.792 279.188 128.865L278.97 131.85C278.87 131.941 278.741 131.993 278.606 131.996Z" fill="#407BFF"/>
<path d="M297.679 131.268H297.024C296.878 131.268 296.806 131.195 296.806 131.122L297.024 128.137C297.024 128.064 297.17 127.991 297.315 127.991H298.043C298.189 127.918 298.261 128.064 298.261 128.137L298.043 131.122C297.943 131.213 297.814 131.265 297.679 131.268Z" fill="#407BFF"/>
<path d="M288.942 131.632H288.214C288.068 131.705 287.996 131.559 287.996 131.486L288.214 128.501C288.214 128.428 288.36 128.355 288.505 128.355H289.16C289.306 128.355 289.378 128.428 289.378 128.501L289.16 131.486C289.234 131.556 289.088 131.632 288.942 131.632Z" fill="#407BFF"/>
<path d="M285.522 74.047C285.538 74.2475 285.481 74.4469 285.36 74.6079C285.239 74.7688 285.064 74.8802 284.867 74.921C284.576 74.921 284.285 74.484 284.357 73.975C284.341 73.7745 284.399 73.575 284.519 73.4141C284.64 73.2531 284.815 73.1418 285.012 73.101C285.376 73.101 285.594 73.538 285.522 74.047Z" fill="#263238"/>
<path d="M279.843 73.61C279.77 74.12 279.479 74.484 279.188 74.484C278.824 74.484 278.606 74.047 278.678 73.538C278.75 73.029 279.042 72.664 279.333 72.664C279.624 72.664 279.915 73.101 279.843 73.61Z" fill="#263238"/>
<path d="M279.478 72.737L278.316 72.3C278.241 72.3 278.823 73.246 279.478 72.737Z" fill="#263238"/>
<path d="M281.298 74.629C280.757 75.7561 280.072 76.8083 279.26 77.759C279.495 77.966 279.777 78.1136 280.08 78.1896C280.384 78.2657 280.702 78.2678 281.007 78.196L281.298 74.629Z" fill="#ED847E"/>
<path d="M283.628 80.235C283.317 80.3078 282.993 80.3078 282.682 80.235C282.644 80.2324 282.608 80.2162 282.582 80.1894C282.555 80.1625 282.539 80.1269 282.536 80.089C282.539 80.0511 282.555 80.0155 282.582 79.9886C282.608 79.9618 282.644 79.9456 282.682 79.943C283.322 80.0144 283.97 79.9254 284.568 79.6839C285.165 79.4425 285.693 79.0563 286.104 78.56C286.104 78.487 286.177 78.487 286.25 78.487C286.323 78.487 286.323 78.56 286.323 78.633C286.009 79.0717 285.607 79.4405 285.143 79.7162C284.679 79.992 284.163 80.1686 283.628 80.235Z" fill="#263238"/>
<path d="M287.923 70.626C287.884 70.6308 287.843 70.6268 287.806 70.6142C287.768 70.6015 287.734 70.5806 287.705 70.553C287.495 70.2303 287.201 69.9715 286.854 69.8046C286.508 69.6378 286.122 69.5694 285.739 69.607C285.593 69.607 285.521 69.534 285.448 69.389C285.448 69.243 285.521 69.171 285.666 69.098C286.128 69.0992 286.584 69.2047 286.999 69.4064C287.415 69.6081 287.779 69.9009 288.066 70.263C288.086 70.2913 288.1 70.3234 288.108 70.3575C288.115 70.3915 288.115 70.4267 288.109 70.4608C288.102 70.495 288.088 70.5273 288.068 70.5559C288.048 70.5845 288.023 70.6087 287.993 70.627L287.923 70.626Z" fill="#263238"/>
<path d="M277.806 70.043C277.767 70.0478 277.727 70.0438 277.689 70.0312C277.651 70.0185 277.617 69.9976 277.588 69.97C277.552 69.9162 277.532 69.8529 277.532 69.788C277.532 69.7231 277.552 69.6597 277.588 69.606C277.9 69.2685 278.286 69.0076 278.715 68.8435C279.144 68.6795 279.606 68.6167 280.063 68.66C280.209 68.66 280.281 68.806 280.281 68.951C280.281 69.097 280.135 69.169 279.99 69.169C279.611 69.1283 279.228 69.1798 278.873 69.3191C278.518 69.4584 278.202 69.6813 277.952 69.969C277.914 70.011 277.862 70.0374 277.806 70.043Z" fill="#263238"/>
<path d="M263.536 258.085C263.109 257.948 262.671 257.851 262.226 257.794C261.28 257.576 260.115 257.43 259.751 257.794C259.605 257.867 259.605 258.085 259.678 258.231C259.706 258.372 259.767 258.505 259.855 258.619C259.944 258.733 260.058 258.824 260.188 258.886C260.674 259.078 261.204 259.129 261.717 259.032C262.259 258.92 262.793 258.774 263.317 258.595C263.39 258.522 263.535 258.522 263.608 258.449C263.681 258.449 263.681 258.376 263.681 258.303C263.608 258.158 263.608 258.085 263.536 258.085ZM260.26 258.595C260.042 258.522 259.969 258.304 259.896 258.158C259.896 258.085 259.896 258.012 259.969 258.012C260.042 257.939 260.115 257.939 260.26 257.939C261.243 257.916 262.224 258.039 263.172 258.303C262.371 258.522 260.988 258.959 260.26 258.595Z" fill="#407BFF"/>
<path d="M271.471 259.688L265.501 260.052L264.191 244.982L270.233 244.618L271.471 259.688Z" fill="#FFC3BD"/>
<path d="M312.894 249.422L306.994 251.679L302.044 237.92L307.871 235.736L312.894 249.422Z" fill="#FFC3BD"/>
<path d="M306.852 251.17L312.385 246.729C312.479 246.658 312.594 246.619 312.713 246.619C312.831 246.619 312.946 246.658 313.04 246.729L317.772 251.029C317.947 251.216 318.045 251.464 318.045 251.72C318.045 251.977 317.947 252.224 317.772 252.412L317.699 252.485C315.733 254.014 314.714 254.596 312.385 256.562C310.929 257.8 307.285 261.294 305.178 262.968C303.14 264.642 300.737 262.24 301.538 261.368C304.738 257.437 305.979 254.234 306.416 252.05C306.402 251.878 306.435 251.704 306.512 251.549C306.588 251.394 306.706 251.263 306.852 251.17Z" fill="#263238"/>
<path d="M264.701 257.14L272.054 255.902C272.121 255.882 272.191 255.875 272.261 255.882C272.33 255.89 272.398 255.911 272.459 255.945C272.52 255.979 272.574 256.025 272.617 256.08C272.659 256.135 272.691 256.198 272.709 256.266L275.257 261.799C275.355 262.022 275.364 262.274 275.283 262.504C275.202 262.734 275.036 262.925 274.82 263.037C274.747 263.11 274.674 263.11 274.529 263.11C271.908 263.547 270.743 263.765 267.467 264.275C265.501 264.566 259.75 266.532 256.984 266.168C254.218 265.877 253.999 263.038 255.164 262.968C260.333 262.386 262.371 259.401 263.682 257.654C263.981 257.412 264.328 257.236 264.701 257.14Z" fill="#263238"/>
<path opacity="0.2" d="M264.191 244.982L264.846 252.772L270.961 252.99L270.233 244.618L264.191 244.982Z" fill="black"/>
<path opacity="0.2" d="M308.454 237.338L302.63 239.595L305.178 246.657L311.078 244.4L308.454 237.338Z" fill="black"/>
<path d="M274.747 131.559C274.747 131.559 259.969 164.465 259.313 191.91C258.876 210.256 262.007 248.33 262.007 248.33L272.636 250.587C272.636 250.587 273.218 211.566 274.529 196.497C276.858 170.726 293.384 130.904 293.384 130.904L274.747 131.559Z" fill="#407BFF"/>
<path opacity="0.4" d="M274.747 131.559C274.747 131.559 259.969 164.465 259.313 191.91C258.876 210.256 262.007 248.33 262.007 248.33L272.636 250.587C272.636 250.587 273.218 211.566 274.529 196.497C276.858 170.726 293.384 130.904 293.384 130.904L274.747 131.559Z" fill="white"/>
<path opacity="0.2" d="M283.847 143.717L285.813 151.288C282.537 160.679 279.771 170.216 277.441 179.826C275.111 165.484 281.081 150.196 283.847 143.717Z" fill="black"/>
<path d="M260.115 250.005L273.583 251.097L273.729 245.928L259.605 245.346L260.115 250.005Z" fill="#407BFF"/>
<path d="M280.353 131.413C280.353 131.413 277.368 168.832 282.901 192.783C287.342 212.148 303.358 243.67 303.358 243.67L310.638 239.011C310.638 239.011 304.96 214.405 301.247 201.373C292.293 169.414 308.454 151.287 300.228 130.611L280.353 131.413Z" fill="#407BFF"/>
<path opacity="0.4" d="M280.353 131.413C280.353 131.413 277.368 168.832 282.901 192.783C287.342 212.148 303.358 243.67 303.358 243.67L310.638 239.011C310.638 239.011 304.96 214.405 301.247 201.373C292.293 169.414 308.454 151.287 300.228 130.611L280.353 131.413Z" fill="white"/>
<path d="M301.902 244.982L312.167 241.269L311.221 237.047L299.936 241.488L301.902 244.982Z" fill="#407BFF"/>
<path d="M306.852 251.971C306.779 251.898 306.779 251.898 306.706 251.971C306.557 252.008 306.41 252.057 306.269 252.117L305.614 252.335C304.959 252.626 304.231 252.99 304.085 253.427C304.052 253.505 304.049 253.593 304.076 253.673C304.103 253.753 304.158 253.821 304.231 253.864C304.291 253.945 304.368 254.012 304.456 254.062C304.543 254.113 304.641 254.144 304.741 254.155H304.959C305.344 254.06 305.681 253.827 305.905 253.5C306.253 253.062 306.569 252.6 306.851 252.117V252.044C306.851 252.044 306.852 252.043 306.852 251.971ZM306.488 252.335C306.377 252.575 306.23 252.796 306.051 252.99C305.614 253.572 305.251 253.936 304.886 254.009C304.789 254.019 304.692 254.005 304.602 253.967C304.513 253.928 304.435 253.868 304.376 253.791C304.348 253.762 304.327 253.728 304.315 253.69C304.302 253.653 304.298 253.612 304.303 253.573C304.449 253.136 305.468 252.699 306.196 252.408C306.269 252.408 306.342 252.335 306.487 252.335H306.488Z" fill="#407BFF"/>
<path d="M306.781 251.97C306.708 251.897 306.563 251.824 306.417 251.679C305.866 251.207 305.176 250.926 304.451 250.879C304.341 250.896 304.237 250.94 304.147 251.005C304.057 251.071 303.984 251.158 303.934 251.257C303.884 251.357 303.859 251.467 303.86 251.578C303.861 251.69 303.889 251.799 303.941 251.898C304.182 252.128 304.487 252.28 304.815 252.335C305.078 252.392 305.346 252.417 305.615 252.408H306.197C306.398 252.394 306.595 252.344 306.779 252.262H306.852V252.189C306.852 252.043 306.852 252.043 306.781 251.97ZM304.16 251.752C304.087 251.679 304.087 251.606 304.16 251.461C304.194 251.394 304.246 251.338 304.311 251.3C304.375 251.261 304.449 251.242 304.524 251.243H304.888C305.407 251.412 305.898 251.657 306.344 251.971C306.417 251.971 306.417 252.044 306.49 252.117H306.272C305.547 252.223 304.808 252.096 304.16 251.752Z" fill="#407BFF"/>
<path d="M263.682 258.158C263.631 258.097 263.605 258.019 263.609 257.94C263.318 257.285 262.371 255.54 261.209 255.902C260.845 255.975 260.772 256.193 260.772 256.339C260.772 256.776 261.5 257.285 262.228 257.722C262.529 257.897 262.846 258.044 263.174 258.159C263.247 258.159 263.32 258.232 263.392 258.232C263.447 258.24 263.499 258.265 263.538 258.305H263.611C263.621 258.305 263.63 258.304 263.639 258.3C263.648 258.296 263.656 258.291 263.663 258.284C263.67 258.277 263.675 258.269 263.679 258.26C263.683 258.251 263.684 258.242 263.684 258.232L263.682 258.158ZM260.988 256.411C260.988 256.411 260.988 256.265 261.206 256.193H261.279C262.225 256.047 263.026 257.503 263.245 258.086C262.37 257.72 260.988 256.848 260.988 256.411Z" fill="#407BFF"/>
<path d="M285.157 73.101L283.992 72.664C283.992 72.737 284.502 73.683 285.157 73.101Z" fill="#263238"/>
<path d="M138.611 44.27L140.431 44.634L138.973 43.47C138.609 43.179 138.173 42.888 137.735 42.596L137.662 42.523H137.516C128.27 40.776 117.059 37.5 104.174 32.841L104.028 32.768H103.882L102.572 32.986L100.972 33.277L102.572 33.859C116.698 38.958 128.783 42.452 138.611 44.27Z" fill="#407BFF"/>
<path d="M145.236 50.169L146.692 50.533L145.6 49.368L144.726 48.494L144.653 48.421H144.512C131.626 45.363 115.319 40.85 96.0999 35.099L95.9539 35.026L95.8079 35.099L94.9339 35.536L93.9149 36.046L95.0799 36.41C115.17 42.453 132.059 47.039 145.236 50.169Z" fill="#407BFF"/>
<path d="M151.351 57.158L152.807 57.668L151.861 56.43C151.715 56.284 151.57 56.066 151.424 55.92L151.206 55.702V55.484L150.915 55.338C139.777 51.407 120.193 45.292 90.054 38.667L89.836 38.594L89.69 38.74C89.4545 38.8868 89.235 39.0577 89.035 39.25L88.235 39.832L89.254 40.05C120.119 46.894 140.067 53.154 151.351 57.158Z" fill="#407BFF"/>
<path d="M156.956 65.235L158.412 65.963L157.538 64.58C157.32 64.216 157.101 63.925 156.883 63.561L156.81 63.415L156.664 63.342C143.264 56.572 119.9 47.617 84.81 43.031H84.592L84.446 43.177L83.864 43.759L83.209 44.414L84.155 44.56C120.047 49.223 143.561 58.396 156.956 65.235Z" fill="#407BFF"/>
<path d="M147.497 65.676C152.489 68.1304 157.305 70.9278 161.911 74.048L163.367 74.994L162.567 73.465L162.13 72.591L162.057 72.445V72.304L161.839 72.158C157.448 69.25 152.877 66.624 148.153 64.296C134.321 57.453 111.316 49.081 80.2309 48.207H80.0129L79.8669 48.353C79.718 48.5645 79.5471 48.7596 79.3569 48.935L78.7019 49.663H79.7209C110.797 50.534 133.734 58.833 147.497 65.676Z" fill="#407BFF"/>
<path d="M82.919 62.545L83.356 62.618V61.089L82.919 61.016C79.1273 60.7467 75.317 61.0908 71.635 62.035L71.417 62.108L71.344 62.254C71.198 62.472 71.126 62.764 70.98 62.982L70.543 63.928L71.562 63.637C75.2648 62.6677 79.0993 62.299 82.919 62.545Z" fill="#407BFF"/>
<path d="M148.002 70.772C154.366 74.3136 160.407 78.4059 166.056 83.002L167.439 84.094L166.784 82.494C166.638 82.13 166.42 81.694 166.274 81.329L166.201 81.183L166.128 81.11C140.695 60.8911 108.535 51.0816 76.1469 53.664H75.9289L75.7829 53.81C75.6343 54.012 75.5119 54.2321 75.4189 54.465L75.7829 54.756L75.3459 54.465L74.8359 55.265L75.7819 55.192C100.867 53.1155 126.004 58.5382 148.002 70.772Z" fill="#407BFF"/>
<path d="M99.5179 59.561C116.189 61.381 141.742 67.933 168.46 88.754L169.698 89.7L169.188 88.244C169.115 87.953 168.97 87.734 168.897 87.444L168.824 87.226V87.08L168.606 86.934C141.816 66.334 116.263 59.852 99.5189 58.034C90.9069 57.0425 82.2082 57.067 73.6019 58.107H73.3839L72.5099 59.781L73.4559 59.635C82.1129 58.6316 90.8553 58.6068 99.5179 59.561Z" fill="#407BFF"/>
<path d="M69.0869 119.911L67.6309 119.329L67.4849 119.766C65.2869 126.881 63.7993 134.197 63.0439 141.606V141.752L63.4809 143.718L64.1359 146.557L64.3539 143.718C64.9989 135.787 66.5127 127.95 68.8679 120.349L69.0869 119.911Z" fill="#407BFF"/>
<path d="M66.6849 93.486V93.049L65.0849 92.976V93.413C65.3759 103.241 64.2109 115.18 61.4449 132.07V132.216C61.5179 132.944 61.6629 133.672 61.7359 134.327L62.1729 137.312L62.6829 134.4C65.7429 116.418 66.9759 103.823 66.6849 93.486Z" fill="#407BFF"/>
<path d="M70.9799 114.961L72.9459 108.627L71.4899 108.045L69.4509 114.379L70.9799 114.961Z" fill="#407BFF"/>
<path d="M66.9009 89.408C67.3543 86.412 68.6986 83.6217 70.7589 81.4L71.1229 81.109L69.9599 79.944L69.6689 80.235C67.3224 82.6594 65.8152 85.7726 65.3689 89.117L65.2959 89.554L66.8249 89.845L66.9009 89.408Z" fill="#407BFF"/>
<path d="M67.5579 102.294L69.1579 102.512V102.075C69.3039 97.853 73.5259 91.883 73.7439 91.665L74.0349 91.301L72.7249 90.355L72.4339 90.719C72.2159 91.01 67.7749 97.125 67.5559 101.93L67.5579 102.294Z" fill="#407BFF"/>
<path d="M76.731 94.796L77.095 94.505L75.93 93.34L75.639 93.704C75.057 94.286 70.106 99.892 67.413 111.322L67.34 111.759L68.869 112.196L68.942 111.759C71.562 100.183 76.658 94.796 76.731 94.796Z" fill="#407BFF"/>
<path d="M77.5999 100.693L76.2169 99.819L72.7999 105.352L74.1829 106.298L77.5999 100.693Z" fill="#407BFF"/>
<path d="M78.479 81.546L78.916 81.4L78.334 79.871L77.897 80.017C77.533 80.09 69.743 82.711 67.559 90.791L67.413 91.228L68.942 91.738L69.088 91.301C71.053 83.949 78.187 81.619 78.479 81.546Z" fill="#407BFF"/>
<path d="M80.8079 71.28L81.2449 71.207L80.8809 69.678L80.4439 69.751C73.0179 70.843 68.7959 73.537 66.5439 75.575L66.3979 75.721V75.867L65.4519 79.143L66.8349 77.614C68.5769 75.722 72.6539 72.519 80.8079 71.28Z" fill="#407BFF"/>
<path d="M101.702 65.384C118.373 66.039 143.853 71.718 170.716 95.084L171.954 96.176L171.444 94.647C171.298 94.283 171.226 93.919 171.08 93.555V93.408L170.934 93.262C143.925 70.039 118.3 64.433 101.628 63.778C84.5199 63.123 72.2899 67.345 68.9409 68.656L68.7949 68.729L68.7219 68.875L68.5039 69.53L68.0669 70.768L69.0859 70.331C71.3439 69.388 83.7199 64.656 101.702 65.384Z" fill="#407BFF"/>
<path d="M103.667 69.534C92.3362 69.8978 81.2448 72.8884 71.267 78.27L70.903 78.488L71.849 79.798L72.213 79.58C72.723 79.289 85.2439 71.718 103.881 71.062C120.407 70.407 145.741 75.212 172.75 101.347L173.988 102.585L173.478 100.985C173.332 100.621 173.26 100.185 173.114 99.82L173.041 99.674L172.968 99.601C145.891 73.684 120.338 68.951 103.667 69.534Z" fill="#407BFF"/>
<path d="M138.902 80.017C128.415 75.6308 116.972 74.0296 105.683 75.369C94.3946 76.7083 83.6439 80.9425 74.474 87.661L74.11 87.952L75.129 89.19L75.493 88.899C84.4965 82.3579 95.0208 78.2234 106.069 76.887C122.376 74.921 147.569 78.78 174.501 107.827L175.739 109.137L175.302 107.39C175.156 106.953 175.084 106.59 174.938 106.152V106.006L174.865 105.933C163.363 93.776 151.278 85.04 138.902 80.017Z" fill="#407BFF"/>
<path d="M123.76 80.235C96.824 77.76 77.896 96.835 77.678 97.052L77.387 97.343L78.552 98.435L78.843 98.144C79.061 97.926 97.553 79.434 123.761 81.764C141.815 83.438 159.506 94.358 176.177 114.233L177.415 115.762L176.978 113.869C176.905 113.432 176.76 113.069 176.687 112.631V112.485L176.614 112.339C159.723 92.757 141.96 81.91 123.76 80.235Z" fill="#407BFF"/>
<path d="M78.6239 109.574C91.5819 90.939 117.79 78.707 147.057 93.413C162.272 101.057 168.606 110.084 176.031 120.64C176.759 121.659 177.414 122.678 178.142 123.698L179.307 125.372L178.943 123.406C178.87 122.969 178.797 122.46 178.725 122.023V121.877L178.652 121.731C178.215 121.076 177.706 120.421 177.269 119.765C169.769 109.065 163.291 99.818 147.712 92.028C117.646 76.886 90.7119 89.48 77.3869 108.628C65.2289 126.1 66.0299 146.193 67.7049 156.676V156.749C68.0689 157.768 68.4329 158.715 68.8699 159.734L69.7439 159.516C66.1019 141.097 69.3049 122.897 78.6239 109.574Z" fill="#407BFF"/>
<path d="M142.397 159.588C139.631 152.454 138.32 151.726 137.297 152.017C134.749 152.599 137.079 161.917 137.151 161.991C138.461 167.014 159.209 178.517 168.018 183.249L168.455 183.467L169.183 182.157L168.746 181.939C154.846 174.513 139.626 165.339 138.68 161.773C137.9 159.18 137.604 156.465 137.806 153.765C138.17 154.202 139.189 155.658 140.936 160.099C145.086 170.728 160.956 176.916 170.129 179.682L170.493 179.755L170.639 179.464C170.712 179.246 170.857 179.1 170.93 178.882L171.148 178.372L170.566 178.226C161.762 175.458 146.255 169.416 142.397 159.588Z" fill="#407BFF"/>
<path d="M144.508 157.112C141.742 150.633 139.485 147.866 137.374 147.939C135.19 148.012 133.734 151.215 132.715 158.204C131.259 167.595 157.758 182.446 165.915 186.742L166.279 186.96L166.497 186.669C166.643 186.523 166.715 186.305 166.861 186.159L167.152 185.722L166.642 185.504C150.335 176.768 133.3 165.193 134.319 158.641C135.557 150.56 137.085 149.614 137.741 149.614C138.178 149.614 139.925 150.196 143.201 157.695C146.477 165.266 155.941 171.818 171.447 177.133L171.811 177.279L171.957 176.915C172.03 176.842 172.03 176.769 172.103 176.624C172.176 176.551 172.176 176.406 172.249 176.333L172.467 175.823L171.957 175.677C157.03 170.58 147.566 164.174 144.508 157.112Z" fill="#407BFF"/>
<path d="M146.692 154.638C143.198 147.212 139.922 143.645 136.718 143.572C133.518 143.572 130.818 147.212 128.346 154.638C123.905 168.179 154.19 185.287 163.581 190.238L163.945 190.456L164.819 189.218L164.309 188.927C157.83 185.505 125.725 167.815 129.802 155.293C131.986 148.672 134.388 145.172 136.791 145.172C139.194 145.172 142.105 148.666 145.236 155.218C148.73 162.498 157.612 168.759 172.463 174.51L172.827 174.656L172.973 174.292C173.04 174.084 173.138 173.888 173.264 173.71L173.41 173.273L172.9 173.055C158.558 167.45 149.895 161.408 146.692 154.638Z" fill="#407BFF"/>
<path d="M148.803 152.089C144.289 143.426 139.776 139.058 135.553 138.912C131.331 138.839 127.399 142.912 123.978 151.142C120.484 159.368 126.089 169.415 140.067 180.262C146.69 185.253 153.701 189.708 161.033 193.584L161.397 193.73L161.615 193.439C161.776 193.301 161.901 193.126 161.979 192.929L162.343 192.492L161.833 192.201C154.553 188.415 118.371 168.468 125.433 151.801C128.633 144.157 132.133 140.301 135.698 140.444C139.338 140.517 143.269 144.666 147.492 152.674C152.292 161.774 164.746 167.962 173.627 171.82L174.064 172.038L174.282 171.456C174.355 171.31 174.355 171.165 174.428 171.092L174.574 170.655L174.137 170.437C165.401 166.722 153.316 160.753 148.803 152.089Z" fill="#407BFF"/>
<path d="M150.912 149.614C144.942 139.349 139.482 134.326 134.022 134.108C128.78 133.962 123.903 138.549 119.462 147.649C118.369 149.938 117.778 152.434 117.728 154.971C117.678 157.507 118.17 160.024 119.171 162.355C125.65 179.099 152.805 193.955 158.192 196.717L158.483 196.863L158.701 196.645L159.138 196.208L159.575 195.771L158.993 195.48C153.679 192.714 126.893 178.226 120.627 161.919C119.716 159.782 119.27 157.476 119.32 155.154C119.371 152.831 119.915 150.546 120.918 148.451C124.995 139.933 129.363 135.638 133.949 135.638H134.095C138.895 135.784 143.923 140.588 149.529 150.271C154.479 158.789 165.472 164.831 174.499 169.126L174.936 169.344L175.082 168.907C175.155 168.689 175.228 168.543 175.3 168.325L175.446 167.888L175.012 167.669C166.275 163.519 155.573 157.622 150.912 149.614Z" fill="#407BFF"/>
<path d="M153.025 147.066C147.783 138.84 140.725 129.376 132.35 129.157H132.132C126.09 129.157 120.338 134.18 115.097 144.157C113.602 146.97 112.737 150.074 112.561 153.254C112.385 156.434 112.903 159.615 114.078 162.575C120.994 181.285 149.459 196.864 155.137 199.775L155.428 199.921L155.646 199.703C155.8 199.54 155.971 199.393 156.156 199.266L156.593 198.829L156.011 198.538C150.478 195.699 122.377 180.484 115.611 162.211C114.514 159.45 114.031 156.483 114.194 153.516C114.357 150.55 115.164 147.654 116.557 145.03C121.58 135.42 126.967 130.616 132.5 130.761C140.071 130.907 146.769 140.007 151.792 147.796C156.892 155.804 166.643 161.696 175.525 166.36L176.035 166.578L176.181 166.068C176.255 165.881 176.304 165.686 176.327 165.486L176.4 165.122L176.036 164.904C167.294 160.457 157.83 154.71 153.025 147.066Z" fill="#407BFF"/>
<path d="M155.137 144.591L154.991 144.445C149.749 136.945 141.013 124.425 130.457 124.279H130.311C123.322 124.279 116.697 129.812 110.655 140.805C108.727 144.141 107.569 147.866 107.267 151.707C106.965 155.548 107.525 159.408 108.908 163.005C116.042 182.879 143.488 198.531 151.714 202.827L152.005 202.973L152.296 202.755C152.453 202.617 152.624 202.495 152.806 202.391L153.316 201.954L152.661 201.59C146.837 198.605 117.571 182.516 110.361 162.569C109.059 159.184 108.533 155.549 108.824 151.934C109.114 148.318 110.213 144.814 112.039 141.68C117.863 131.124 124.124 125.81 130.603 125.88C140.358 126.026 148.73 138.11 153.753 145.318L153.899 145.464C159.213 153.035 168.605 159.223 176.249 163.664L176.759 163.955L177.196 162.426L176.832 162.208C169.333 157.841 160.16 151.871 155.137 144.591Z" fill="#407BFF"/>
<path d="M157.247 142.115C156.956 141.751 156.737 141.387 156.447 141.023L155.792 140.077C149.968 132.287 140.286 119.329 128.565 119.256C120.703 119.256 113.131 125.298 106.215 137.31C101.415 145.682 100.537 154.418 103.667 163.3C111.093 184.485 139.412 200.938 147.929 205.451L148.147 205.597L149.603 204.651L148.875 204.287C140.43 199.846 112.475 183.757 105.122 162.937C103.633 158.897 103.075 154.572 103.491 150.286C103.906 146.001 105.284 141.864 107.522 138.185C114.147 126.685 121.281 120.859 128.634 120.859C139.481 120.859 148.872 133.453 154.405 140.952C154.915 141.68 155.424 142.335 155.934 142.99C161.467 150.27 170.057 156.312 176.9 160.753L177.41 161.117L177.556 160.535C177.629 160.317 177.629 160.098 177.702 159.88L177.775 159.516L177.484 159.298C170.934 155.001 162.562 149.104 157.247 142.115Z" fill="#407BFF"/>
<path d="M162.126 140.514C148.226 119.693 135.772 115.252 127.837 115.18C118.373 115.107 110.147 121.004 104.537 131.851C97.985 144.664 97.111 157.185 101.989 169.125C110.434 189.8 133.803 203.125 143.489 207.925L143.707 207.998L143.925 207.925C144.175 207.818 144.418 207.697 144.653 207.561L145.453 207.124L144.579 206.687C137.079 203.047 112.037 189.506 103.447 168.613C98.715 157.113 99.589 144.953 105.995 132.577C111.237 122.312 119.026 116.707 127.835 116.707H127.981C135.552 116.78 147.419 121.075 160.887 141.241C165.037 147.429 172.387 153.035 177.922 156.602L178.504 156.966L178.65 156.311C178.723 156.093 178.723 155.947 178.796 155.729L178.869 155.438L178.578 155.22C173.191 151.798 166.054 146.411 162.126 140.514Z" fill="#407BFF"/>
<path d="M164.018 137.166C158.267 128.721 152.734 122.679 146.546 118.311C138.174 112.411 129.656 110.011 121.794 111.468C113.276 113.068 105.778 119.112 100.609 128.576C89.2519 149.47 95.1489 166.942 102.065 177.934C112.765 195.115 132.423 205.671 140.358 209.456L140.576 209.529L140.794 209.456C141.085 209.383 141.304 209.238 141.594 209.165L142.468 208.728L141.522 208.291C133.66 204.651 114.076 194.241 103.448 177.205C96.7479 166.576 91.0719 149.687 102.138 129.448C107.088 120.348 114.223 114.524 122.304 113.068C129.73 111.685 137.81 113.942 145.818 119.62C151.86 123.92 157.248 129.739 162.853 138.038C166.053 142.838 171.371 147.938 178.578 153.326L179.16 153.763L179.306 153.108C179.379 152.89 179.379 152.671 179.452 152.453L179.525 152.162L179.307 151.944C172.172 146.702 167.076 141.752 164.018 137.166Z" fill="#407BFF"/>
<path d="M165.911 133.891C159.505 124.573 153.826 118.603 146.692 113.944C137.519 107.974 128.201 105.718 119.61 107.392C110.364 109.212 102.21 115.546 96.678 125.228C87.214 141.754 87.432 160.828 97.115 177.428C107.889 195.846 128.415 206.766 136.715 210.628L136.861 210.701L137.007 210.628C137.298 210.555 137.517 210.482 137.807 210.41L138.972 210.046L137.807 209.536C129.507 205.75 109.051 195.049 98.349 176.776C92.816 167.312 85.391 148.093 97.912 126.107C103.226 116.789 111.012 110.673 119.825 108.926C127.979 107.326 136.933 109.508 145.669 115.26C152.512 119.774 158.118 125.598 164.379 134.698C167.509 139.284 172.314 144.308 178.648 149.549L179.303 150.059L179.449 149.259C179.509 149.021 179.534 148.776 179.522 148.531V148.24L179.304 148.094C174.264 143.937 169.765 139.166 165.911 133.891Z" fill="#407BFF"/>
<path d="M167.804 130.54C162.704 123.187 156.666 115.54 146.91 109.574C121.648 94.213 102.065 106.589 92.892 121.95C82.846 138.767 82.7 159.296 92.382 176.987C102.647 195.697 122.012 206.687 132.64 211.64L132.786 211.713H132.932C133.296 211.64 133.66 211.567 133.951 211.495L135.334 211.204L133.951 210.622C123.322 205.822 103.885 194.97 93.693 176.406C84.302 159.225 84.447 139.206 94.203 122.898C103.012 108.12 121.867 96.18 146.109 110.959C155.646 116.783 161.543 124.209 166.493 131.416C170.186 136.618 174.46 141.382 179.233 145.616L179.961 146.271L180.034 145.397C180.034 145.179 180.107 144.887 180.107 144.597V144.379L179.961 144.233C175.431 140.116 171.355 135.526 167.804 130.54Z" fill="#407BFF"/>
<path d="M169.696 127.192C163.435 118.165 157.174 110.958 147.055 105.134C135.407 98.434 123.468 96.544 112.621 99.82C103.157 102.659 94.785 109.284 88.961 118.53C78.187 135.784 77.604 157.405 87.432 176.406C97.332 195.552 116.552 206.906 127.181 211.932L127.254 212.005H128.783L130.603 211.932L128.856 211.132C118.156 206.182 98.717 195.043 88.816 175.897C79.279 157.406 79.789 136.297 90.272 119.55C99.809 104.189 120.266 91.595 146.328 106.592C156.156 112.27 162.271 119.259 168.386 128.068C171.677 132.735 175.354 137.117 179.379 141.168L180.179 141.968V139.857L180.033 139.711C176.256 135.823 172.799 131.636 169.696 127.192Z" fill="#407BFF"/>
<path d="M171.589 123.843C165.983 115.835 159.504 107.463 147.274 100.765C134.752 93.922 121.94 92.175 110.292 95.742C99.8726 99.0606 90.9547 105.942 85.1029 115.18C71.5619 136.001 74.9839 160.243 82.6279 175.968C91.2909 193.804 107.598 205.015 119.683 211.276L119.829 211.349H119.902C120.527 211.481 121.159 211.579 121.795 211.64L124.416 212.004L121.935 210.766C109.486 204.578 92.8149 193.44 84.0059 175.385C76.5059 160.097 73.2319 136.437 86.4059 116.126C97.6169 98.872 120.549 87.807 146.612 102.076C158.551 108.628 164.885 116.782 170.345 124.644C173.13 128.667 176.17 132.509 179.445 136.144L180.319 137.09L180.246 135.78V134.761L180.1 134.615C177.026 131.218 174.182 127.62 171.589 123.843Z" fill="#407BFF"/>
<path d="M179.743 129.158V129.012L179.67 128.866C177.34 125.881 175.229 122.966 173.482 120.494C167.294 111.758 160.669 103.313 147.42 96.324C118.882 81.4 93.62 93.412 81.172 111.83C66.757 133.238 70.324 159.438 77.674 175.458C82.916 186.742 91.574 196.716 103.445 205.015L103.591 205.088C105.318 206.139 107.118 207.063 108.978 207.854L109.342 207.054C95.142 198.318 84.954 187.471 79.13 174.876C71.923 159.297 68.43 133.676 82.479 112.776C94.564 94.867 119.097 83.219 146.761 97.706C159.647 104.476 166.126 112.706 172.168 121.293C173.915 123.768 176.318 127.117 178.938 130.466L179.884 131.704L179.738 130.248C179.812 129.889 179.814 129.518 179.743 129.158Z" fill="#407BFF"/>
<path d="M116.116 32.843C115.121 32.7589 114.12 32.7834 113.131 32.916C118.809 34.954 128.346 37.716 131.477 38.376C128.492 36.119 119.831 33.134 116.116 32.843Z" fill="#407BFF"/>
<path d="M52.853 26.218L53.363 31.678H40.55L41.642 44.491H36.18L34.58 26.218H52.853Z" fill="#407BFF"/>
<path d="M69.4509 220.303L69.0139 214.843H56.2019L55.0369 202.03H49.5769L51.1769 220.303H69.4509Z" fill="#407BFF"/>
<path d="M180.763 220.376L180.253 214.843H193.066L191.974 202.03H197.434L199.034 220.376H180.763Z" fill="#407BFF"/>
<path d="M163.436 26.655L163.946 32.188H176.686L177.851 44.928H183.311L181.711 26.655H163.436Z" fill="#407BFF"/>
</svg>
