<svg width="24" height="24" viewBox="0 0 24 24" fill="none" xmlns="http://www.w3.org/2000/svg">
<mask id="mask0_0_641" style="mask-type:luminance" maskUnits="userSpaceOnUse" x="0" y="0" width="24" height="24">
<path d="M24 0H0V24H24V0Z" fill="white"/>
</mask>
<g mask="url(#mask0_0_641)">
<path fill-rule="evenodd" clip-rule="evenodd" d="M12.315 2.29599C12.1096 2.23624 11.8914 2.23624 11.686 2.29599C11.5454 2.34836 11.4153 2.42559 11.302 2.52399C11.069 2.69999 10.785 2.95199 10.341 3.34599L4.44099 8.58799C4.04499 8.8959 3.68594 9.24857 3.37099 9.63899C3.2347 9.84532 3.13335 10.0727 3.07099 10.312C2.98729 10.808 2.96145 11.312 2.99399 11.814V16.126C2.99399 17.19 2.99399 17.932 3.03399 18.513C3.04295 18.9076 3.11624 19.298 3.25099 19.669C3.59363 20.4962 4.25082 21.1533 5.07799 21.496C5.44895 21.6307 5.83942 21.704 6.23399 21.713C6.81499 21.753 7.55599 21.753 8.62099 21.753H15.374C16.438 21.753 17.18 21.753 17.761 21.713C18.1556 21.704 18.546 21.6307 18.917 21.496C19.7442 21.1533 20.4013 20.4962 20.744 19.669C20.8787 19.298 20.952 18.9076 20.961 18.513C21.001 17.932 21.001 17.191 21.001 16.126V11.814C21.0344 11.3128 21.0095 10.8095 20.927 10.314C20.8647 10.0747 20.7633 9.84732 20.627 9.64099C20.312 9.25058 19.953 8.8979 19.557 8.58999L13.657 3.34799C13.213 2.95399 12.929 2.70199 12.696 2.52599C12.5837 2.42719 12.4547 2.34929 12.315 2.29599ZM11.056 0.134992C11.6725 -0.0445089 12.3275 -0.0445089 12.944 0.134992C13.349 0.26208 13.7268 0.463517 14.058 0.728992C14.37 0.964992 14.721 1.27699 15.125 1.63699L21.053 6.90599L21.148 6.98999C21.6576 7.39688 22.113 7.86737 22.503 8.38999C22.7756 8.80264 22.9783 9.2574 23.103 9.73599C23.2353 10.3753 23.2851 11.029 23.251 11.681V16.159C23.251 17.174 23.251 17.993 23.206 18.659C23.1818 19.2975 23.0524 19.9276 22.823 20.524C22.5402 21.2069 22.1256 21.8273 21.6029 22.35C21.0803 22.8726 20.4599 23.2872 19.777 23.57C19.1807 23.7995 18.5505 23.9289 17.912 23.953C17.246 23.998 16.427 23.998 15.412 23.998H8.58299C7.56799 23.998 6.74899 23.998 6.08299 23.953C5.44447 23.9289 4.81432 23.7995 4.21799 23.57C3.53513 23.2872 2.91467 22.8726 2.39203 22.35C1.8694 21.8273 1.45482 21.2069 1.17199 20.524C0.944495 19.9283 0.816782 19.2992 0.79399 18.662C0.74899 17.996 0.74899 17.177 0.74899 16.162V11.814C0.74899 11.771 0.74899 11.729 0.74899 11.687C0.713683 11.0341 0.762416 10.3794 0.89399 9.73899C1.01867 9.2604 1.22138 8.80564 1.49399 8.39299C1.88399 7.87035 2.33937 7.39985 2.84899 6.99299L2.94399 6.90899L8.87199 1.63999C9.27199 1.28099 9.62699 0.968992 9.93899 0.731992C10.2709 0.465124 10.6497 0.262646 11.056 0.134992Z" fill="#C2C2C2"/>
</g>
</svg>
