<svg width="48" height="48" viewBox="0 0 48 48" fill="none" xmlns="http://www.w3.org/2000/svg">
<rect width="48" height="48" rx="10" fill="#1A72FC"/>
<path opacity="0.1" d="M30.0448 29.0463L27.9399 26.9415C29.2542 25.7596 30.2755 25.1514 31.2334 25.032C32.1784 24.9143 33.129 25.2656 34.3229 26.1802C34.3757 26.2206 34.4382 26.2402 34.5 26.2402V27.528C34.5 33.2694 33.2694 34.5 27.528 34.5H20.472C14.7306 34.5 13.5 33.2694 13.5 27.528V26.0442C13.5746 26.0442 13.6493 26.0158 13.7062 25.9588L15.1956 24.4695C16.2058 23.4593 17.058 22.7159 17.8284 22.2256C18.5959 21.7373 19.2668 21.51 19.9193 21.51C20.5718 21.51 21.2427 21.7373 22.0103 22.2256C22.7806 22.7159 23.6327 23.4593 24.6429 24.4695L29.6323 29.4588C29.7463 29.5727 29.9309 29.5727 30.0448 29.4588C30.1587 29.3449 30.1587 29.1602 30.0448 29.0463Z" fill="white"/>
<path d="M13.5 20.472C13.5 14.7306 14.7306 13.5 20.472 13.5H27.528C33.2694 13.5 34.5 14.7306 34.5 20.472V27.528C34.5 33.2694 33.2694 34.5 27.528 34.5H20.472C14.7306 34.5 13.5 33.2694 13.5 27.528V20.472Z" stroke="white" stroke-width="2"/>
<path d="M29.8386 29.2526L24.8492 24.2632C20.7894 20.2034 19.0492 20.2034 14.9893 24.2632L13.5 25.7526" stroke="white" stroke-width="2" stroke-linecap="round"/>
<path d="M34.5002 25.9486C32.0582 24.0778 30.391 24.3405 27.7312 26.7369" stroke="white" stroke-width="2" stroke-linecap="round"/>
<path d="M29.8333 19.3333C29.8333 19.9777 29.311 20.5 28.6667 20.5C28.0223 20.5 27.5 19.9777 27.5 19.3333C27.5 18.689 28.0223 18.1667 28.6667 18.1667C29.311 18.1667 29.8333 18.689 29.8333 19.3333Z" stroke="white" stroke-width="2"/>
</svg>
