<svg width="64" height="71" viewBox="0 0 64 71" fill="none" xmlns="http://www.w3.org/2000/svg">
<g clip-path="url(#clip0_0_598)">
<mask id="mask0_0_598" style="mask-type:luminance" maskUnits="userSpaceOnUse" x="12" y="0" width="40" height="40">
<path d="M32 40C43.0457 40 52 31.0457 52 20C52 8.9543 43.0457 0 32 0C20.9543 0 12 8.9543 12 20C12 31.0457 20.9543 40 32 40Z" fill="white"/>
</mask>
<g mask="url(#mask0_0_598)">
<path d="M46 0H18C14.6863 0 12 2.68629 12 6V34C12 37.3137 14.6863 40 18 40H46C49.3137 40 52 37.3137 52 34V6C52 2.68629 49.3137 0 46 0Z" fill="black"/>
<path d="M46 0H18C14.6863 0 12 2.68629 12 6V34C12 37.3137 14.6863 40 18 40H46C49.3137 40 52 37.3137 52 34V6C52 2.68629 49.3137 0 46 0Z" fill="url(#paint0_radial_0_598)"/>
<path d="M46 0H18C14.6863 0 12 2.68629 12 6V34C12 37.3137 14.6863 40 18 40H46C49.3137 40 52 37.3137 52 34V6C52 2.68629 49.3137 0 46 0Z" fill="url(#paint1_linear_0_598)"/>
<path d="M37.704 7.969H26.297C22.8021 7.969 19.969 10.8021 19.969 14.297V25.704C19.969 29.1989 22.8021 32.032 26.297 32.032H37.704C41.1989 32.032 44.032 29.1989 44.032 25.704V14.297C44.032 10.8021 41.1989 7.969 37.704 7.969Z" stroke="white" stroke-width="2.344"/>
<path d="M32 25.625C35.1066 25.625 37.625 23.1066 37.625 20C37.625 16.8934 35.1066 14.375 32 14.375C28.8934 14.375 26.375 16.8934 26.375 20C26.375 23.1066 28.8934 25.625 32 25.625Z" stroke="white" stroke-width="2.344"/>
<path d="M39.11 13.36C39.369 13.36 39.579 13.15 39.579 12.891C39.579 12.632 39.369 12.422 39.11 12.422C38.851 12.422 38.641 12.632 38.641 12.891C38.641 13.15 38.851 13.36 39.11 13.36Z" stroke="white" stroke-width="2.344"/>
</g>
</g>
<path d="M2.352 55.242V65H1.078V55.242H2.352ZM8.26131 57.188C9.19465 57.188 9.95065 57.4727 10.5293 58.042C11.108 58.602 11.3973 59.414 11.3973 60.478V65H10.1373V60.66C10.1373 59.8947 9.94598 59.3113 9.56331 58.91C9.18065 58.4993 8.65798 58.294 7.99531 58.294C7.32331 58.294 6.78665 58.504 6.38531 58.924C5.99331 59.344 5.79731 59.9553 5.79731 60.758V65H4.52331V57.328H5.79731V58.42C6.04931 58.028 6.38998 57.7247 6.81931 57.51C7.25798 57.2953 7.73865 57.188 8.26131 57.188ZM16.1944 65.126C15.6064 65.126 15.0791 65.028 14.6124 64.832C14.1457 64.6267 13.7771 64.3467 13.5064 63.992C13.2357 63.628 13.0864 63.2127 13.0584 62.746H14.3744C14.4117 63.1287 14.5891 63.4413 14.9064 63.684C15.2331 63.9267 15.6577 64.048 16.1804 64.048C16.6657 64.048 17.0484 63.9407 17.3284 63.726C17.6084 63.5113 17.7484 63.2407 17.7484 62.914C17.7484 62.578 17.5991 62.3307 17.3004 62.172C17.0017 62.004 16.5397 61.8407 15.9144 61.682C15.3451 61.5327 14.8784 61.3833 14.5144 61.234C14.1597 61.0753 13.8517 60.8467 13.5904 60.548C13.3384 60.24 13.2124 59.8387 13.2124 59.344C13.2124 58.952 13.3291 58.5927 13.5624 58.266C13.7957 57.9393 14.1271 57.6827 14.5564 57.496C14.9857 57.3 15.4757 57.202 16.0264 57.202C16.8757 57.202 17.5617 57.4167 18.0844 57.846C18.6071 58.2753 18.8871 58.8633 18.9244 59.61H17.6504C17.6224 59.2087 17.4591 58.8867 17.1604 58.644C16.8711 58.4013 16.4791 58.28 15.9844 58.28C15.5271 58.28 15.1631 58.378 14.8924 58.574C14.6217 58.77 14.4864 59.0267 14.4864 59.344C14.4864 59.596 14.5657 59.806 14.7244 59.974C14.8924 60.1327 15.0977 60.2633 15.3404 60.366C15.5924 60.4593 15.9377 60.5667 16.3764 60.688C16.9271 60.8373 17.3751 60.9867 17.7204 61.136C18.0657 61.276 18.3597 61.4907 18.6024 61.78C18.8544 62.0693 18.9851 62.4473 18.9944 62.914C18.9944 63.334 18.8777 63.712 18.6444 64.048C18.4111 64.384 18.0797 64.65 17.6504 64.846C17.2304 65.0327 16.7451 65.126 16.1944 65.126ZM22.3468 58.378V62.9C22.3468 63.2733 22.4262 63.5393 22.5848 63.698C22.7435 63.8473 23.0188 63.922 23.4108 63.922H24.3488V65H23.2008C22.4915 65 21.9595 64.8367 21.6048 64.51C21.2502 64.1833 21.0728 63.6467 21.0728 62.9V58.378H20.0788V57.328H21.0728V55.396H22.3468V57.328H24.3488V58.378H22.3468ZM25.4165 61.136C25.4165 60.352 25.5751 59.666 25.8925 59.078C26.2098 58.4807 26.6438 58.0187 27.1945 57.692C27.7545 57.3653 28.3751 57.202 29.0565 57.202C29.7285 57.202 30.3118 57.3467 30.8065 57.636C31.3011 57.9253 31.6698 58.2893 31.9125 58.728V57.328H33.2005V65H31.9125V63.572C31.6605 64.02 31.2825 64.3933 30.7785 64.692C30.2838 64.9813 29.7051 65.126 29.0425 65.126C28.3611 65.126 27.7451 64.958 27.1945 64.622C26.6438 64.286 26.2098 63.8147 25.8925 63.208C25.5751 62.6013 25.4165 61.9107 25.4165 61.136ZM31.9125 61.15C31.9125 60.5713 31.7958 60.0673 31.5625 59.638C31.3291 59.2087 31.0118 58.882 30.6105 58.658C30.2185 58.4247 29.7845 58.308 29.3085 58.308C28.8325 58.308 28.3985 58.42 28.0065 58.644C27.6145 58.868 27.3018 59.1947 27.0685 59.624C26.8351 60.0533 26.7185 60.5573 26.7185 61.136C26.7185 61.724 26.8351 62.2373 27.0685 62.676C27.3018 63.1053 27.6145 63.4367 28.0065 63.67C28.3985 63.894 28.8325 64.006 29.3085 64.006C29.7845 64.006 30.2185 63.894 30.6105 63.67C31.0118 63.4367 31.3291 63.1053 31.5625 62.676C31.7958 62.2373 31.9125 61.7287 31.9125 61.15ZM36.6274 58.574C36.8514 58.1353 37.1687 57.7947 37.5794 57.552C37.9994 57.3093 38.5081 57.188 39.1054 57.188V58.504H38.7694C37.3414 58.504 36.6274 59.2787 36.6274 60.828V65H35.3534V57.328H36.6274V58.574ZM40.1 61.136C40.1 60.352 40.2587 59.666 40.576 59.078C40.8934 58.4807 41.3274 58.0187 41.878 57.692C42.438 57.3653 43.0587 57.202 43.74 57.202C44.412 57.202 44.9954 57.3467 45.49 57.636C45.9847 57.9253 46.3534 58.2893 46.596 58.728V57.328H47.884V65H46.596V63.572C46.344 64.02 45.966 64.3933 45.462 64.692C44.9674 64.9813 44.3887 65.126 43.726 65.126C43.0447 65.126 42.4287 64.958 41.878 64.622C41.3274 64.286 40.8934 63.8147 40.576 63.208C40.2587 62.6013 40.1 61.9107 40.1 61.136ZM46.596 61.15C46.596 60.5713 46.4794 60.0673 46.246 59.638C46.0127 59.2087 45.6954 58.882 45.294 58.658C44.902 58.4247 44.468 58.308 43.992 58.308C43.516 58.308 43.082 58.42 42.69 58.644C42.298 58.868 41.9854 59.1947 41.752 59.624C41.5187 60.0533 41.402 60.5573 41.402 61.136C41.402 61.724 41.5187 62.2373 41.752 62.676C41.9854 63.1053 42.298 63.4367 42.69 63.67C43.082 63.894 43.516 64.006 43.992 64.006C44.468 64.006 44.902 63.894 45.294 63.67C45.6954 63.4367 46.0127 63.1053 46.246 62.676C46.4794 62.2373 46.596 61.7287 46.596 61.15ZM59.263 57.188C59.8603 57.188 60.3923 57.314 60.859 57.566C61.3257 57.8087 61.6943 58.1773 61.965 58.672C62.2357 59.1667 62.371 59.7687 62.371 60.478V65H61.111V60.66C61.111 59.8947 60.9197 59.3113 60.537 58.91C60.1637 58.4993 59.655 58.294 59.011 58.294C58.3483 58.294 57.821 58.5087 57.429 58.938C57.037 59.358 56.841 59.9693 56.841 60.772V65H55.581V60.66C55.581 59.8947 55.3897 59.3113 55.007 58.91C54.6337 58.4993 54.125 58.294 53.481 58.294C52.8183 58.294 52.291 58.5087 51.899 58.938C51.507 59.358 51.311 59.9693 51.311 60.772V65H50.037V57.328H51.311V58.434C51.563 58.0327 51.899 57.7247 52.319 57.51C52.7483 57.2953 53.2197 57.188 53.733 57.188C54.377 57.188 54.9463 57.3327 55.441 57.622C55.9357 57.9113 56.3043 58.336 56.547 58.896C56.7617 58.3547 57.1163 57.9347 57.611 57.636C58.1057 57.3373 58.6563 57.188 59.263 57.188Z" fill="black"/>
<defs>
<radialGradient id="paint0_radial_0_598" cx="0" cy="0" r="1" gradientUnits="userSpaceOnUse" gradientTransform="translate(28 40) scale(40)">
<stop offset="0.1" stop-color="#FFDD55"/>
<stop offset="0.5" stop-color="#FF543E"/>
<stop offset="1" stop-color="#C837AB"/>
</radialGradient>
<linearGradient id="paint1_linear_0_598" x1="12" y1="0" x2="20" y2="40" gradientUnits="userSpaceOnUse">
<stop offset="0.1" stop-color="#3771C8"/>
<stop offset="0.5" stop-color="#6600FF" stop-opacity="0"/>
</linearGradient>
<clipPath id="clip0_0_598">
<rect width="40" height="40" fill="white" transform="translate(12)"/>
</clipPath>
</defs>
</svg>
