<svg width="324" height="326" viewBox="0 0 324 326" fill="none" xmlns="http://www.w3.org/2000/svg">
<g clip-path="url(#clip0_0_685)">
<path d="M154.867 57.151H52.051V252.584H154.867V57.151Z" fill="#ADDDF6"/>
<path d="M262.046 57.151H159.938V252.584H262.046V57.151Z" fill="#ADDDF6"/>
<path d="M240.26 304.837C234.321 304.837 228.626 302.478 224.427 298.278C220.227 294.079 217.868 288.384 217.868 282.445V251.919H262.638V282.445C262.642 285.386 262.066 288.298 260.943 291.015C259.82 293.733 258.172 296.202 256.093 298.282C254.015 300.362 251.546 302.012 248.829 303.137C246.113 304.261 243.2 304.839 240.26 304.837Z" fill="#688EC9"/>
<path d="M217.883 275.005H215.398V322.375H217.883V275.005Z" fill="#0F0F10"/>
<path d="M265.138 275.005H262.653V322.375H265.138V275.005Z" fill="#0F0F10"/>
<path d="M246.14 275.005H243.655V322.375H246.14V275.005Z" fill="#0F0F10"/>
<path d="M262.768 304.837H215.398V307.322H262.768V304.837Z" fill="#0F0F10"/>
<path d="M266.626 197.6C269.92 200.995 265.095 205.2 265.138 210.66C265.181 216.12 271.769 218.114 266.453 226.147C263.174 231.088 258.883 225.947 256.716 233.052C254.549 240.157 257.294 240.852 254.043 243.815C248.38 248.987 237.169 241.46 239.351 234.352C241.533 227.244 248.236 226.752 244.292 221.841C240.348 216.93 238.831 214.791 243.642 211.15C249.594 206.643 255.864 208.85 255.56 203.739C255.256 198.628 262.263 193.107 266.626 197.6Z" fill="#FFC959"/>
<path d="M246.892 251.631L245.765 251.588C246.632 224.761 260.688 203.77 260.818 203.568L261.757 204.204C261.613 204.405 247.744 225.15 246.892 251.631Z" fill="#0F0F10"/>
<path d="M209.49 179.643C205.069 184.194 211.527 189.813 211.484 197.109C211.441 204.405 202.946 204.246 210.068 215.009C214.46 221.626 216.641 219.097 215.399 230.322C214.299 240.203 224.211 233.674 227.707 240.822C232.229 250.039 247.831 238.092 244.913 228.571C241.995 219.05 234.988 219.007 240.276 212.434C245.564 205.861 243.989 199.129 237.545 194.246C229.571 188.207 223.893 194.694 224.298 187.846C224.703 180.998 215.325 173.62 209.49 179.643Z" fill="#EC5A26"/>
<path d="M235.912 251.962C234.756 216.496 216.207 188.762 216.019 188.484L217.276 187.632C217.464 187.907 236.276 216.005 237.429 251.919L235.912 251.962Z" fill="#0F0F10"/>
<path d="M1.762 325.9H322.028C322.259 325.9 322.489 325.855 322.703 325.766C322.916 325.678 323.111 325.548 323.274 325.385C323.438 325.221 323.568 325.026 323.656 324.813C323.745 324.599 323.79 324.369 323.79 324.138C323.79 323.906 323.745 323.677 323.656 323.463C323.568 323.249 323.438 323.055 323.274 322.892C323.111 322.728 322.916 322.598 322.703 322.51C322.489 322.421 322.259 322.376 322.028 322.376H1.762C1.53054 322.376 1.30129 322.421 1.0874 322.51C0.873501 322.598 0.679166 322.728 0.515496 322.892C0.351827 323.055 0.22204 323.249 0.133584 323.463C0.0451286 323.677 -0.000269668 323.906 -6.49169e-06 324.138C-0.000269668 324.369 0.0451286 324.599 0.133584 324.813C0.22204 325.026 0.351827 325.221 0.515496 325.385C0.679166 325.548 0.873501 325.678 1.0874 325.766C1.30129 325.855 1.53054 325.9 1.762 325.9Z" fill="#2D5B98"/>
<path d="M167.378 322.374H175.222L176.031 305.312H166.569L167.378 322.374Z" fill="#0F0F10"/>
<path d="M31.104 322.374H38.948L39.757 305.312H30.295L31.104 322.374Z" fill="#0F0F10"/>
<path d="M37.937 275.726C38.8037 278.413 39.7477 281.163 40.769 283.975H170.946C170.946 283.975 187.746 215.599 170.946 203.089C170.458 202.733 169.941 202.418 169.4 202.15C146.777 190.52 56.067 187.79 37.647 202.757C37.5107 202.865 37.3805 202.981 37.257 203.104C30.468 209.33 24.56 234.192 37.937 275.726Z" fill="#E87C24"/>
<path d="M121.871 283.989H170.917L166.135 236.07C157.583 239.77 134.815 259.358 121.871 283.989Z" fill="#982D21"/>
<path d="M37.937 275.726C38.8037 278.413 39.7473 281.163 40.768 283.975H88.052C79.919 268.893 60.199 246.053 41.057 235.536L37.937 275.726Z" fill="#982D21"/>
<path d="M21.627 235.392H39.671C41.1382 235.393 42.5552 235.927 43.6587 236.894C44.7622 237.861 45.4772 239.196 45.671 240.65L51.421 284.178H156.89L162.64 240.65C162.834 239.196 163.549 237.861 164.652 236.894C165.756 235.927 167.173 235.393 168.64 235.392H186.684C187.568 235.392 188.441 235.585 189.242 235.959C190.043 236.333 190.753 236.878 191.32 237.556C191.888 238.233 192.3 239.027 192.527 239.882C192.754 240.736 192.792 241.63 192.636 242.5L182.61 314.978H25.71L15.684 242.5C15.5274 241.63 15.5636 240.737 15.79 239.883C16.0164 239.029 16.4274 238.235 16.9942 237.557C17.561 236.879 18.2696 236.334 19.0701 235.96C19.8706 235.586 20.7434 235.392 21.627 235.392Z" fill="#E87C24"/>
<path d="M52.47 260.397C43.975 263.243 45.637 281.214 52.47 283.988H155.503C163.203 282.009 163.853 258.215 152.744 260.007C84.845 272.765 81.551 252.397 52.47 260.397Z" fill="#F0AF66"/>
<path d="M131.002 242.168C131.051 246.46 130.81 250.751 130.28 255.011H81.985L79.11 207.843C81.985 190.608 89.829 186.433 102.268 186.433C113.392 186.433 120.803 195.506 125.31 207.669C129.21 218.158 130.93 230.957 131.002 242.168Z" fill="#027980"/>
<path d="M131.001 243.078L113.521 242.023C123.229 238.845 123.995 223.95 114.128 214.676L125.31 207.655C129.21 218.155 130.929 231.867 131.001 243.078Z" fill="#005459"/>
<path d="M134.339 264.762H67.957V242.167H127.751L134.339 264.762Z" fill="#0F0F10"/>
<path d="M59.476 257.582L77.303 322.36H91.203C86.797 294.796 87.794 276.868 83.648 253.984C80.019 235.205 55.156 240.174 59.476 257.582Z" fill="#0F0F10"/>
<path d="M82.302 322.374V322.244C82.2424 319.977 81.3 317.823 79.6755 316.24C78.051 314.658 75.8728 313.772 73.605 313.772C71.3372 313.772 69.159 314.658 67.5345 316.24C65.91 317.823 64.9676 319.977 64.908 322.244V322.374H82.302Z" fill="#B05726"/>
<path d="M71.929 313.707L75.093 312.739C77.173 308.639 86.072 309.139 84.844 314.139C85.7676 314.333 86.7222 314.326 87.6425 314.116C88.5627 313.906 89.4267 313.5 90.175 312.925L91.215 322.373H72.362L71.929 313.707Z" fill="#B05726"/>
<path d="M137.762 257.582L119.937 322.361H106.037C110.443 294.797 109.446 276.869 113.593 253.985C117.219 235.205 142.081 240.174 137.762 257.582Z" fill="#0F0F10"/>
<path d="M114.937 322.374V322.244C114.997 319.977 115.939 317.823 117.563 316.24C119.188 314.658 121.366 313.772 123.634 313.772C125.902 313.772 128.08 314.658 129.705 316.24C131.329 317.823 132.271 319.977 132.331 322.244V322.374H114.937Z" fill="#B05726"/>
<path d="M125.309 313.707L122.145 312.739C120.065 308.639 111.166 309.139 112.394 314.139C111.47 314.333 110.516 314.326 109.595 314.116C108.675 313.906 107.811 313.5 107.063 312.925L106.023 322.373H124.876L125.309 313.707Z" fill="#B05726"/>
<path d="M109.721 187.949C103.206 191.907 102.267 203.649 105.621 208.333L124.228 222.187L105.289 231.938L108.366 242.007C108.366 242.007 128.143 240.407 137.822 230.464C147.095 220.959 124.442 192.962 109.721 187.949Z" fill="#027980"/>
<path d="M109.347 231.116C109.226 231.114 109.11 231.067 109.022 230.984C108.934 230.902 108.879 230.789 108.87 230.668C108.856 230.581 108.74 228.368 112.857 227.533C115.891 226.926 121.583 223.344 123.403 222.173C121.236 220.512 113.403 214.401 111.282 211.251C111.245 211.199 111.219 211.14 111.205 211.078C111.191 211.015 111.19 210.951 111.202 210.888C111.213 210.825 111.237 210.765 111.272 210.711C111.307 210.658 111.353 210.612 111.406 210.576C111.459 210.541 111.518 210.516 111.581 210.504C111.644 210.492 111.708 210.492 111.771 210.505C111.834 210.518 111.893 210.544 111.945 210.58C111.998 210.617 112.043 210.663 112.077 210.717C114.403 214.17 124.429 221.74 124.53 221.812C124.593 221.855 124.643 221.913 124.676 221.982C124.709 222.05 124.724 222.126 124.718 222.202C124.717 222.28 124.696 222.356 124.658 222.424C124.62 222.492 124.566 222.55 124.501 222.592C124.183 222.792 116.844 227.706 113.045 228.472C109.823 229.122 109.823 230.581 109.823 230.596C109.828 230.659 109.82 230.722 109.799 230.782C109.779 230.841 109.747 230.896 109.706 230.943C109.664 230.991 109.613 231.029 109.556 231.056C109.5 231.083 109.438 231.099 109.375 231.102C109.361 231.116 109.361 231.116 109.347 231.116Z" fill="#0F0F10"/>
<path d="M96.489 205.777C102.065 198.77 98.208 187.95 91.1 188.268C67.942 196.416 60.806 219.054 68.13 229.21C74.414 237.91 102.05 241.258 102.05 241.258V231.723L82.865 227.577C82.865 227.577 92.76 212.234 96.489 205.777Z" fill="#027980"/>
<path d="M116.786 238.844C116.992 236.944 116.447 235.039 115.268 233.535C114.088 232.032 112.367 231.049 110.473 230.797C102.08 229.28 99.046 233.874 98.251 237.168C98.2045 237.345 98.1946 237.53 98.2219 237.712C98.2492 237.893 98.313 238.067 98.4096 238.223C98.5063 238.379 98.6337 238.514 98.784 238.619C98.9343 238.724 99.1044 238.797 99.284 238.835C99.4636 238.872 99.6488 238.872 99.8286 238.836C100.008 238.799 100.179 238.726 100.329 238.622C100.48 238.517 100.608 238.383 100.705 238.227C100.802 238.072 100.867 237.898 100.895 237.717C100.962 237.256 101.126 236.816 101.378 236.424C101.63 236.033 101.963 235.7 102.354 235.449C101.487 237.149 101.848 238.858 104.218 238.858H116.786V238.844Z" fill="#F7A593"/>
<path d="M97.843 238.833L91.243 205.733H89.843C90.291 208.015 96.777 241.127 96.994 242.167H116.771L118.938 238.83L97.843 238.833Z" fill="#9EBDE3"/>
<path d="M89.843 205.733H40.725L47.992 242.167H96.98L89.843 205.733Z" fill="white"/>
<path d="M104.16 190.319C104.16 194.09 92.86 196.589 89.179 192.63C88.5945 192.014 88.216 191.232 88.096 190.391L85.972 180.856L99.451 175.771L99.851 177.013L104.16 190.319Z" fill="#F7A593"/>
<path d="M88.096 190.391L85.972 180.856L98.728 177.418C102.022 187.242 90.248 195.101 88.096 190.391Z" fill="#D87661"/>
<path d="M100.447 172.1C101.155 181.476 93.747 189.739 87.532 190.158C81.317 190.577 72.753 183.628 72.045 174.252C71.337 164.876 77.116 156.8 84.96 156.194C92.804 155.588 99.74 162.726 100.447 172.1Z" fill="#F7A593"/>
<path d="M90.045 156.918C81.445 151.472 76.711 156.6 72.435 162.018C69.435 165.832 67.306 168.562 63.565 169.14C70.759 178.213 85.134 172.232 89.665 163.13C90.113 168.302 96.209 172.593 100.428 172.101C101.819 166.352 97.832 154.708 90.045 156.918Z" fill="#0F0F10"/>
<path d="M98.801 175.974C100.868 175.974 102.543 174.299 102.543 172.232C102.543 170.165 100.868 168.49 98.801 168.49C96.7344 168.49 95.059 170.165 95.059 172.232C95.059 174.299 96.7344 175.974 98.801 175.974Z" fill="#F7A593"/>
<path d="M82.7061 183.861C82.535 183.868 82.3653 183.828 82.215 183.746C81.334 183.269 81.536 178.401 81.623 176.913C81.6346 176.869 81.6607 176.83 81.6972 176.803C81.7337 176.776 81.7782 176.762 81.8236 176.764C81.869 176.766 81.9125 176.783 81.9469 176.812C81.9813 176.842 82.0046 176.882 82.013 176.927C81.854 179.86 81.955 183.153 82.403 183.399C82.995 183.717 84.194 182.879 84.613 182.518C84.6311 182.494 84.6546 182.474 84.6816 182.46C84.7086 182.446 84.7384 182.438 84.7688 182.437C84.7992 182.436 84.8293 182.443 84.857 182.455C84.8846 182.468 84.9091 182.487 84.9283 182.51C84.9476 182.534 84.9612 182.561 84.9683 182.591C84.9753 182.621 84.9755 182.651 84.9688 182.681C84.9621 182.711 84.9488 182.738 84.9297 182.762C84.9107 182.786 84.8865 182.805 84.859 182.818C84.2549 183.363 83.5082 183.725 82.7061 183.861Z" fill="#BD4A31"/>
<path d="M87.59 175.063C87.85 175.785 88.341 176.276 88.702 176.146C89.063 176.016 89.15 175.323 88.89 174.6C88.63 173.877 88.139 173.386 87.778 173.517C87.417 173.648 87.33 174.341 87.59 175.063Z" fill="#0F0F10"/>
<path d="M76.148 179.441C76.394 180.12 76.856 180.568 77.188 180.452C77.52 180.336 77.607 179.686 77.361 179.007C77.115 178.328 76.653 177.88 76.321 177.996C75.989 178.112 75.906 178.762 76.148 179.441Z" fill="#0F0F10"/>
<path d="M88.081 185.118C88.0495 185.117 88.0187 185.109 87.9911 185.094C87.9635 185.078 87.9398 185.057 87.922 185.031C87.8921 184.989 87.8798 184.936 87.8878 184.885C87.8958 184.834 87.9236 184.787 87.965 184.756C88.5165 184.416 89.1349 184.198 89.7781 184.118C90.4213 184.039 91.0741 184.099 91.692 184.294C91.7361 184.31 91.7724 184.343 91.7938 184.385C91.8152 184.427 91.8201 184.475 91.8076 184.52C91.795 184.566 91.7659 184.605 91.726 184.63C91.6861 184.655 91.6383 184.664 91.592 184.655C91.0293 184.483 90.4369 184.429 89.8525 184.498C89.268 184.567 88.7043 184.757 88.197 185.055C88.1877 185.077 88.1711 185.095 88.15 185.107C88.129 185.118 88.1046 185.122 88.081 185.118Z" fill="#803220"/>
<path d="M90.277 172.492C90.249 172.492 90.2215 172.486 90.1964 172.473C90.1714 172.461 90.1497 172.442 90.133 172.42C89.7333 171.99 89.2083 171.697 88.6325 171.583C88.0567 171.469 87.4596 171.539 86.926 171.784C86.8805 171.801 86.8302 171.799 86.7857 171.78C86.7413 171.76 86.706 171.724 86.6874 171.68C86.6688 171.635 86.6682 171.584 86.6859 171.539C86.7035 171.494 86.738 171.457 86.782 171.437C87.3948 171.173 88.074 171.103 88.7277 171.237C89.3815 171.372 89.9781 171.704 90.437 172.188C90.4539 172.208 90.4666 172.23 90.4743 172.255C90.482 172.28 90.4846 172.306 90.4818 172.331C90.4791 172.357 90.4711 172.382 90.4585 172.404C90.4458 172.427 90.4286 172.446 90.408 172.462C90.3663 172.479 90.322 172.489 90.277 172.492Z" fill="#803220"/>
<path d="M74.79 178.559C74.7404 178.558 74.693 178.538 74.6579 178.503C74.6228 178.468 74.6028 178.421 74.602 178.371C74.595 177.927 74.7064 177.489 74.9247 177.103C75.143 176.716 75.4603 176.394 75.844 176.171C75.8669 176.159 75.8921 176.151 75.918 176.148C75.944 176.146 75.9702 176.148 75.9951 176.156C76.0199 176.164 76.043 176.177 76.0629 176.194C76.0827 176.211 76.0989 176.231 76.1105 176.255C76.1222 176.278 76.129 176.304 76.1306 176.33C76.1321 176.356 76.1285 176.382 76.1198 176.406C76.111 176.431 76.0974 176.453 76.0798 176.473C76.0621 176.492 76.0408 176.507 76.017 176.518C75.6952 176.706 75.4291 176.977 75.2463 177.302C75.0636 177.626 74.9706 177.994 74.977 178.367C74.9773 178.417 74.9578 178.465 74.9229 178.501C74.8879 178.537 74.8401 178.558 74.79 178.559Z" fill="#803220"/>
<mask id="mask0_0_685" style="mask-type:luminance" maskUnits="userSpaceOnUse" x="52" y="0" width="272" height="178">
<path d="M323.805 0H52.051V177.418H323.805V0Z" fill="white"/>
</mask>
<g mask="url(#mask0_0_685)">
<path d="M138.211 117.032L140.681 139.886C142.371 147.644 150.981 147.615 153.192 141.533C158.104 128.04 155.634 122.033 154.839 114.46C153.307 100.346 136.679 102.918 138.211 117.032Z" fill="#1D3666"/>
<path d="M281.42 116.93L289.207 113.607C292.038 111.845 295.231 116.959 292.4 118.721L285.494 123.464C283.688 124.601 279.614 118.057 281.42 116.93Z" fill="white"/>
<path d="M299.449 120.036L292.849 119.545C291.549 113.795 286.305 116.845 286.695 114.156C287.085 111.467 290.795 106.889 290.795 106.889L307.895 118.128C307.885 118.144 308.767 122.897 299.449 120.036Z" fill="#1D3666"/>
<path d="M299.449 120.036C296.805 119.978 294.032 120.195 292.572 120.975C290.998 121.813 289.408 118.548 291.777 117.725C293.142 117.328 294.594 117.334 295.955 117.744C297.317 118.155 298.53 118.951 299.449 120.036Z" fill="#1D3666"/>
<path d="M203.423 106.528C214.243 113.361 231.392 121.09 243.599 133.687C248.399 127.894 262.379 123.372 280.019 116.409C283.833 116.062 287.632 122.679 284.685 125.756C284.685 125.756 251.761 152.222 240.002 150.835C228.243 149.448 196.388 130.567 191.418 126.117C184.844 120.267 183.298 98.236 203.423 106.528Z" fill="#1D3666"/>
<path d="M280.538 117.118L283.976 115.702C285.676 115.716 288.57 120.368 287.342 122.622L284.077 124.847L280.538 117.118Z" fill="#1D3666"/>
<path d="M264.199 76.696L269.099 68.75C270.529 65.37 276.655 67.941 275.224 71.321L272.017 79.989C271.119 82.142 263.289 78.849 264.199 76.696Z" fill="white"/>
<path d="M204.492 91.605C216.945 94.567 231.652 99.666 244.971 105.026C245.433 97.526 253.422 92.082 263.593 76.075C266.468 73.547 273.431 76.667 272.868 80.886C272.868 80.886 265.154 116.959 254.839 122.752C244.524 128.545 198.584 114.835 192.444 112.22C187.488 110.111 182.779 90.262 204.492 91.605Z" fill="#1D3666"/>
<path d="M264.43 76.335L266.38 73.157C267.767 72.157 272.838 74.24 273.18 76.783L271.851 80.496L264.43 76.335Z" fill="#1D3666"/>
<path d="M205.662 124.269C204.954 124.269 204.762 123.359 204.68 122.969C204.395 121.135 204.279 119.278 204.333 117.422C204.332 117.301 204.364 117.182 204.425 117.078C204.486 116.974 204.574 116.888 204.68 116.83C204.784 116.771 204.904 116.742 205.024 116.747C205.144 116.752 205.26 116.791 205.359 116.859C210.386 120.095 229.459 121.511 229.644 121.525C229.733 121.53 229.821 121.552 229.902 121.592C229.983 121.631 230.055 121.686 230.114 121.753C230.173 121.82 230.218 121.899 230.247 121.984C230.275 122.069 230.287 122.159 230.28 122.248C230.273 122.337 230.249 122.425 230.208 122.505C230.167 122.584 230.111 122.655 230.042 122.713C229.974 122.771 229.894 122.815 229.809 122.841C229.723 122.868 229.633 122.877 229.544 122.869C228.793 122.811 212.049 121.569 205.679 118.549C205.722 121.944 205.997 122.883 206.098 123.1C206.171 123.163 206.229 123.241 206.269 123.328C206.309 123.415 206.329 123.51 206.329 123.606C206.332 123.694 206.316 123.782 206.283 123.864C206.251 123.945 206.201 124.02 206.139 124.082C206.076 124.144 206.002 124.193 205.92 124.225C205.838 124.257 205.75 124.272 205.662 124.269Z" fill="#0F0F10"/>
<path d="M282.952 67.725L276.697 71.481C271.872 67.133 269.097 73.215 267.726 70.542C266.355 67.869 266.801 61.397 266.801 61.397L289.352 60.631C289.351 60.646 293.165 64.374 282.952 67.725Z" fill="#1D3666"/>
<path d="M282.951 67.726C280.539 69.358 278.169 71.309 277.36 72.941C276.479 74.704 272.968 72.768 274.572 70.514C275.551 69.2909 276.863 68.377 278.35 67.8823C279.836 67.3877 281.434 67.3334 282.951 67.726Z" fill="#1D3666"/>
<path d="M147.152 96.359C141.272 98.15 132.547 116.18 144.783 123.49C154.183 129.11 177.721 126.798 193.383 127.419L205.012 91.765C187.025 86.102 160.476 90.884 147.152 96.359Z" fill="#1D3666"/>
<path d="M197.427 89.887L193.334 127.708H182.734L176.234 89.208C183.276 88.0709 190.472 88.3014 197.427 89.887Z" fill="#0F0F10"/>
<path d="M125.05 114.042C125.816 116.512 127.304 118.419 129.312 118.188L135.553 117.119L147.876 114.966C151.834 114.388 147.601 98.743 143.629 99.32L127.723 103.77C124.385 104.131 123.735 109.913 125.05 114.042Z" fill="#F7A593"/>
<path d="M136.405 101.329C136.405 101.329 138.605 102.485 138.817 109.665C138.99 115.689 137.617 116.744 137.617 116.744C137.617 116.744 138.253 118.218 140.954 117.481C145.981 118.189 150.792 117.987 153.696 113.927C156.759 109.665 154.288 94.872 146.343 96.707C142.919 98.368 140.579 99.293 140.579 99.293C140.579 99.293 137.387 99.003 136.405 101.329Z" fill="#1D3666"/>
<path d="M125.05 114.042C125.816 116.512 127.304 118.419 129.312 118.188L135.553 117.119C135.653 111.543 131.32 107.382 131.32 107.382L125.05 114.042Z" fill="#F2775E"/>
<path d="M103.538 113.969C107.901 121.842 120.123 126.147 126.985 122.334C133.847 118.521 132.735 108.046 128.372 100.187C124.009 92.328 114.908 89.02 108.046 92.834C101.184 96.648 99.161 106.095 103.538 113.969Z" fill="#F7A593"/>
<path d="M127.924 99.609C118.086 105.909 109.895 112.452 103.683 114.46C103.683 114.46 105.128 118.722 108.147 119.46C121.568 115.227 128.358 100.434 128.358 100.434L127.924 99.609Z" fill="#0F0F10"/>
<path d="M127.1 105.301C127.606 107.121 128.834 107.627 130.452 106.688C131.147 106.205 131.669 105.513 131.945 104.713C132.22 103.913 132.233 103.046 131.983 102.238C131.923 101.867 131.785 101.514 131.579 101.2C131.372 100.887 131.102 100.62 130.786 100.419C130.469 100.217 130.114 100.084 129.742 100.029C129.371 99.9742 128.992 99.9983 128.631 100.1C127.201 100.505 126.594 103.481 127.1 105.301Z" fill="#F7A593"/>
<path d="M117.61 118.965C117.375 118.962 117.144 118.905 116.934 118.8C116.723 118.695 116.54 118.544 116.396 118.358C116.267 118.206 116.172 118.028 116.117 117.836C116.063 117.644 116.049 117.443 116.078 117.246C116.237 116.638 116.612 116.109 117.133 115.758C117.152 115.741 117.175 115.728 117.2 115.72C117.225 115.712 117.251 115.71 117.277 115.713C117.302 115.715 117.327 115.724 117.35 115.737C117.372 115.75 117.392 115.767 117.407 115.788C117.422 115.809 117.433 115.833 117.438 115.859C117.443 115.884 117.443 115.91 117.438 115.936C117.433 115.961 117.422 115.985 117.407 116.006C117.392 116.027 117.372 116.045 117.35 116.058C116.921 116.35 116.608 116.785 116.469 117.286C116.451 117.433 116.463 117.582 116.506 117.723C116.548 117.865 116.619 117.996 116.715 118.109C116.853 118.299 117.047 118.441 117.269 118.516C117.492 118.591 117.732 118.595 117.957 118.528C118.353 118.367 118.694 118.094 118.938 117.743C119.181 117.391 119.317 116.976 119.329 116.549C119.326 116.52 119.33 116.49 119.341 116.462C119.351 116.434 119.367 116.409 119.389 116.389C119.41 116.368 119.435 116.352 119.463 116.343C119.491 116.333 119.521 116.33 119.55 116.333C119.58 116.336 119.608 116.346 119.633 116.361C119.658 116.377 119.68 116.398 119.696 116.423C119.712 116.447 119.722 116.475 119.726 116.505C119.73 116.534 119.728 116.564 119.719 116.592C119.711 117.097 119.549 117.588 119.255 117.999C118.96 118.41 118.548 118.722 118.072 118.892C117.923 118.942 117.767 118.967 117.61 118.965Z" fill="#803220"/>
<path d="M115.052 111.368C115.208 111.811 115.495 112.195 115.876 112.469C116.256 112.744 116.711 112.896 117.18 112.904C117.649 112.912 118.11 112.777 118.5 112.516C118.89 112.256 119.191 111.882 119.362 111.445C119.534 111.009 119.568 110.53 119.459 110.074C119.351 109.617 119.106 109.205 118.757 108.892C118.407 108.578 117.97 108.38 117.505 108.322C117.039 108.264 116.567 108.35 116.152 108.568C115.745 109.5 115.543 110.227 115.052 111.368Z" fill="#F7A593"/>
<path d="M106.254 116.222C106.492 116.698 106.901 117.066 107.4 117.252C107.899 117.438 108.45 117.427 108.941 117.222C109.175 117.115 109.385 116.962 109.558 116.772C109.731 116.581 109.864 116.358 109.948 116.115C110.032 115.872 110.066 115.614 110.048 115.357C110.029 115.101 109.959 114.851 109.841 114.622C108.974 114.434 108.656 114.422 107.486 114.131C106.283 113.824 105.633 115.052 106.254 116.222Z" fill="#F7A593"/>
<path d="M116.772 111.181C117.191 111.542 117.682 111.643 117.884 111.412C118.086 111.181 117.913 110.704 117.508 110.343C117.103 109.982 116.598 109.881 116.396 110.112C116.194 110.343 116.367 110.82 116.772 111.181Z" fill="#0F0F10"/>
<path d="M108.057 116.352C108.49 116.684 108.996 116.771 109.184 116.525C109.372 116.279 109.184 115.817 108.751 115.47C108.318 115.123 107.812 115.051 107.624 115.297C107.436 115.543 107.627 116.02 108.057 116.352Z" fill="#0F0F10"/>
<path d="M126.219 112.278C125.855 113.877 125.133 115.372 124.107 116.651C123.081 117.93 121.778 118.959 120.296 119.66C124.052 121.798 125.815 120.613 125.815 120.613C126.524 119.35 126.929 117.94 126.999 116.493C127.07 115.047 126.802 113.604 126.219 112.278Z" fill="white"/>
<path d="M127.592 112.249C127.547 112.25 127.503 112.234 127.468 112.205C127.433 112.176 127.411 112.135 127.404 112.09C127.337 111.901 127.226 111.73 127.081 111.592C126.935 111.453 126.759 111.352 126.566 111.295C126.33 111.208 126.074 111.187 125.827 111.236C125.58 111.284 125.352 111.4 125.166 111.57C125.147 111.587 125.125 111.6 125.101 111.609C125.077 111.617 125.051 111.621 125.026 111.62C125 111.618 124.975 111.612 124.952 111.601C124.929 111.59 124.909 111.575 124.892 111.556C124.874 111.537 124.861 111.514 124.853 111.49C124.844 111.466 124.841 111.441 124.842 111.415C124.843 111.39 124.85 111.365 124.861 111.342C124.872 111.319 124.887 111.298 124.906 111.281C125.147 111.069 125.439 110.925 125.754 110.864C126.069 110.803 126.395 110.827 126.697 110.934C126.954 111.009 127.188 111.147 127.377 111.337C127.567 111.526 127.705 111.76 127.78 112.017C127.785 112.042 127.784 112.067 127.779 112.092C127.773 112.117 127.763 112.14 127.748 112.16C127.733 112.18 127.714 112.197 127.692 112.21C127.67 112.223 127.646 112.231 127.621 112.234C127.621 112.249 127.607 112.249 127.592 112.249Z" fill="#BD4A31"/>
<path d="M128.834 98.713C116.872 99.58 110.184 101.602 100.519 107.613C100.519 107.613 98.135 88.934 113.419 86.113C126.407 83.718 128.834 98.713 128.834 98.713Z" fill="#1D3666"/>
<path d="M101.646 109.36C106.646 104.188 127.91 100.721 131.767 101.602C132.879 101.66 131.724 96.083 127.939 95.318C125.656 94.856 110.126 96.705 100.404 103.625C97.514 105.677 100.288 110.502 101.646 109.36Z" fill="#1D3666"/>
<path d="M118.767 90.7709C121.914 89.6921 123.899 87.1653 123.2 85.1273C122.501 83.0892 119.384 82.3117 116.236 83.3905C113.089 84.4694 111.104 86.9962 111.803 89.0342C112.502 91.0722 115.619 91.8498 118.767 90.7709Z" fill="#1D3666"/>
<path d="M100.417 104C100.356 103.998 100.295 103.983 100.241 103.955C100.186 103.928 100.137 103.889 100.099 103.841C100.068 103.801 100.047 103.755 100.034 103.705C100.022 103.656 100.02 103.605 100.028 103.555C100.036 103.505 100.055 103.458 100.082 103.415C100.109 103.372 100.144 103.336 100.186 103.307C105.715 99.4922 112.012 96.9324 118.634 95.807C121.706 95.2225 124.825 94.9276 127.952 94.926C128.053 94.9284 128.15 94.9706 128.22 95.0437C128.291 95.1167 128.329 95.2146 128.328 95.316C128.328 95.3666 128.318 95.4167 128.298 95.4632C128.278 95.5098 128.249 95.5518 128.213 95.5869C128.177 95.622 128.133 95.6495 128.086 95.6675C128.039 95.6856 127.989 95.6939 127.938 95.692C124.855 95.6923 121.779 95.9825 118.75 96.559C112.246 97.6653 106.063 100.18 100.634 103.927C100.57 103.97 100.495 103.996 100.417 104Z" fill="#2458A7"/>
<path d="M118.505 102.729C118.505 102.729 118.78 104.694 116.251 104.997C113.722 105.3 113.723 104.697 113.723 104.697C113.712 105.792 113.3 106.844 112.565 107.656C111.831 108.468 110.824 108.983 109.736 109.103C109.146 109.184 108.546 109.073 108.024 108.787C107.502 108.501 107.085 108.055 106.836 107.514C105.336 113.076 98.236 116.644 95.467 112.296C93.806 107.037 99.167 106.59 101.231 107.196C102.026 106.418 112.192 102.296 118.505 102.729Z" fill="#BD4A31"/>
<path d="M142.574 133.558C137.157 135.958 129.139 137.618 124.935 140.189L122.392 147.846C126.423 151.4 141.548 149.218 148.656 146.531C157.252 142.269 151.17 129.311 142.574 133.558Z" fill="#1D3666"/>
<path d="M124.559 141.102C125.152 141.419 125.662 141.871 126.047 142.422C126.432 142.973 126.682 143.607 126.776 144.273C126.871 144.939 126.807 145.617 126.59 146.253C126.373 146.89 126.008 147.466 125.527 147.935C124.227 149.149 121.901 148.397 121.251 148.152C121.151 148.109 121.078 148.08 121.078 148.08C120.919 148.231 120.75 148.372 120.572 148.499C119.967 148.989 119.262 149.339 118.506 149.525C117.018 149.857 112.612 146.217 112.306 143.025C112 139.833 118.099 139.384 118.576 139.269C119.053 139.154 124.559 141.102 124.559 141.102Z" fill="#F7A58E"/>
<path opacity="0.8" d="M117.624 143.382C121.438 145.882 122.854 145.882 124.038 145.693C123.642 146.061 123.16 146.325 122.636 146.458C122.112 146.592 121.562 146.592 121.038 146.459C121.141 147.018 121.208 147.582 121.238 148.149C121.138 148.106 121.065 148.077 121.065 148.077C120.906 148.228 120.737 148.368 120.559 148.496C120.557 148.308 120.557 146.488 117.624 143.382Z" fill="#0E0E0E"/>
<path d="M109.942 137.707L109.313 139.353L113.118 140.807L113.747 139.162L109.942 137.707Z" fill="#0F0F10"/>
<path d="M122.912 145.214C123.952 145.604 125.036 142.787 123.995 142.383L113.146 138.237C112.236 137.89 111.152 140.707 112.063 141.068L122.912 145.214Z" fill="#0F0F10"/>
<path d="M97.601 138.89C103.567 141.172 108.97 141.59 109.635 139.843C109.694 139.651 109.712 139.449 109.687 139.249C109.663 139.05 109.596 138.858 109.491 138.687C109.246 138.201 108.918 137.761 108.523 137.387C108.407 137.271 108.277 137.17 108.147 137.04C105.726 135.081 102.991 133.547 100.057 132.504C97.1719 131.312 94.1024 130.628 90.9841 130.481C90.7961 130.496 90.623 130.467 90.464 130.496C89.9207 130.516 89.3842 130.623 88.8751 130.814C88.6828 130.873 88.5051 130.972 88.3533 131.104C88.2016 131.236 88.0791 131.398 87.994 131.58C87.3 133.299 91.606 136.593 97.601 138.89ZM97.801 138.37C92.788 136.463 89.191 133.689 89.754 132.23C89.7743 132.168 89.8036 132.11 89.8411 132.057C90.0635 131.759 90.3872 131.554 90.751 131.479C91.5845 131.287 92.4453 131.243 93.2941 131.349C95.5395 131.602 97.7406 132.156 99.838 132.996C101.954 133.762 103.956 134.811 105.79 136.116C106.489 136.607 107.1 137.213 107.596 137.908C107.819 138.207 107.926 138.576 107.896 138.948C107.896 139.013 107.881 139.077 107.853 139.136C107.309 140.609 102.787 140.276 97.803 138.369L97.801 138.37Z" fill="#595A5A"/>
<path d="M109.49 138.673C109.595 138.845 109.661 139.036 109.686 139.235C109.711 139.435 109.694 139.637 109.635 139.829L110.386 137.879C111.065 136.102 106.76 132.837 100.779 130.555C94.798 128.273 89.395 127.825 88.716 129.602L87.965 131.552C88.0522 131.371 88.1753 131.21 88.3268 131.078C88.4782 130.947 88.6549 130.847 88.846 130.786C89.3552 130.595 89.8917 130.488 90.435 130.468C90.594 130.454 90.767 130.468 90.955 130.454C97.1945 130.913 103.162 133.193 108.117 137.013C108.247 137.143 108.392 137.244 108.493 137.36C108.905 137.731 109.244 138.176 109.49 138.673Z" fill="#0F0F10"/>
<path d="M97.801 138.369C102.785 140.276 107.307 140.608 107.87 139.149C107.898 139.09 107.913 139.026 107.913 138.961C107.943 138.589 107.836 138.22 107.613 137.921C106.746 138.123 105.85 138.162 104.969 138.037C100.551 137.448 96.331 135.835 92.646 133.327C91.9095 132.829 91.2683 132.203 90.753 131.478C90.3869 131.547 90.0612 131.754 89.843 132.056C89.8001 132.106 89.7701 132.165 89.756 132.229C89.194 133.688 92.791 136.448 97.801 138.369Z" fill="#0F0F10"/>
<path d="M98.367 137.069C103.481 139.019 107.006 138.225 107.667 137.969C106.078 135.629 102.336 133.953 99.909 133.028C94.015 130.774 91.309 131.328 90.663 131.554C90.985 132.201 93.181 135.09 98.367 137.069Z" fill="white"/>
<path d="M113.16 141.489C114.151 141.481 115.131 141.704 116.022 142.14C116.912 142.576 117.688 143.214 118.289 144.003C120.225 146.676 119.661 148.539 118.405 148.496C117.149 148.453 113.593 142.385 113.16 141.489Z" fill="#F7A58E"/>
<path d="M123.139 146.373C119.209 146.662 116.595 141.606 116.595 141.606C116.595 141.606 114.168 141.086 113.547 140.161C112.695 138.919 114.284 138.182 114.284 138.182C117.323 138.769 120.31 139.605 123.212 140.682C123.818 140.96 124.322 141.42 124.656 141.997C124.99 142.574 125.137 143.24 125.076 143.904C124.862 146.233 123.139 146.373 123.139 146.373Z" fill="#F7A58E"/>
<path d="M123.042 146.431C123.042 146.416 123.039 146.401 123.034 146.386C123.028 146.372 123.019 146.359 123.009 146.348C122.998 146.338 122.985 146.329 122.971 146.323C122.957 146.318 122.941 146.315 122.926 146.315C119.17 146.373 116.726 141.615 116.714 141.577C116.708 141.563 116.7 141.551 116.689 141.54C116.678 141.53 116.665 141.522 116.651 141.517C116.637 141.512 116.622 141.51 116.607 141.511C116.592 141.512 116.578 141.516 116.565 141.523C116.552 141.53 116.54 141.54 116.531 141.552C116.522 141.563 116.515 141.577 116.511 141.592C116.508 141.606 116.507 141.621 116.51 141.636C116.512 141.651 116.518 141.665 116.526 141.677C116.555 141.72 119.054 146.603 122.94 146.546C122.965 146.537 122.987 146.521 123.005 146.501C123.023 146.481 123.036 146.457 123.042 146.431Z" fill="#DC3E26"/>
<path d="M123.212 140.692C123.554 140.399 123.958 140.188 124.394 140.076C124.829 139.963 125.285 139.951 125.726 140.042C127.026 140.442 128.514 143.48 128.037 145.459C127.531 147.568 126.968 149.1 125.119 149.316C123.27 149.532 122.909 148.565 122.909 148.565C122.909 148.565 125.148 148.265 125.163 144.52C125.18 141.518 123.851 140.767 123.212 140.692Z" fill="#1D3666"/>
<path d="M163.506 118.777L174.514 130.594C172.491 133.252 169.227 147.901 171.653 151.7L178.371 152.682C183.817 152.408 190.217 132.804 187.241 127.025C183.051 113.156 173.286 98.074 173.286 98.074C166.034 94.595 147.466 108.146 163.506 118.777Z" fill="#1D3666"/>
<path d="M180.106 150.98C180.106 150.98 181.031 152.627 179.817 153.522C178.603 154.417 170.08 153.811 170.73 150.575C171.139 148.467 179.008 149.348 180.106 150.98Z" fill="#1D3666"/>
<path d="M178.647 152.772L177.39 157.742C176.407 160.169 170.831 156.456 171.134 154.304L172.174 151.212C173.205 150.36 177.866 151.588 178.647 152.772Z" fill="#F7A593"/>
<path d="M171.467 158.118C171.467 158.118 174.587 163.969 166.151 161.571C162.149 157.626 170.181 155.604 171.467 158.118Z" fill="#A34C39"/>
<path d="M177.346 157.467C177.346 157.467 177.982 160.905 175.988 162.711C174.822 163.779 173.602 164.786 172.333 165.73C172.333 165.73 171.553 165.542 171.712 164.488C171.871 163.434 173.677 162.088 173.778 161.7C174.284 159.649 173.378 159.129 171.625 159.215C170.166 159.287 168.23 166.64 166.757 166.323C165.876 166.135 166.092 163.231 166.569 161.787C163.869 160.646 163.55 156.658 171.076 154.116C176.595 151.861 177.346 157.467 177.346 157.467Z" fill="#F7A593"/>
<path d="M166.555 161.917H166.512C166.497 161.911 166.483 161.903 166.471 161.892C166.459 161.881 166.45 161.867 166.443 161.852C166.436 161.838 166.433 161.822 166.432 161.805C166.432 161.789 166.434 161.773 166.44 161.758L167.581 158.58C167.593 158.549 167.616 158.525 167.646 158.511C167.676 158.498 167.709 158.496 167.74 158.508C167.771 158.52 167.796 158.543 167.809 158.573C167.823 158.602 167.824 158.636 167.812 158.667L166.671 161.845C166.662 161.868 166.646 161.887 166.625 161.9C166.604 161.913 166.58 161.919 166.555 161.917Z" fill="#DC3E26"/>
<path d="M171.799 128.056C171.616 128.052 171.441 127.981 171.308 127.856L163.131 119.361C160.843 118.595 158.892 117.058 157.612 115.013C157.528 114.856 157.509 114.672 157.561 114.501C157.612 114.33 157.729 114.187 157.887 114.102C158.044 114.018 158.228 114 158.399 114.051C158.569 114.103 158.713 114.22 158.797 114.377C160.197 117.021 163.651 118.119 163.697 118.133C163.805 118.168 163.904 118.227 163.986 118.306L172.278 126.916C172.401 127.045 172.469 127.217 172.466 127.395C172.463 127.574 172.391 127.744 172.264 127.869C172.204 127.931 172.132 127.98 172.052 128.012C171.971 128.045 171.885 128.06 171.799 128.056Z" fill="#0F0F10"/>
<path d="M191.85 91.057H191.821C191.732 91.0542 191.645 91.0336 191.564 90.9961C191.483 90.9586 191.411 90.9052 191.352 90.839C191.292 90.7728 191.247 90.6953 191.218 90.611C191.19 90.5268 191.178 90.4377 191.185 90.349C191.185 90.32 191.315 86.882 189.509 85.004C188.648 84.2118 187.52 83.7733 186.35 83.7759C185.18 83.7785 184.054 84.2219 183.196 85.018C181.596 86.766 181.809 89.756 181.824 89.785C181.832 89.8743 181.823 89.9643 181.796 90.0499C181.77 90.1355 181.726 90.2149 181.668 90.2835C181.61 90.352 181.539 90.4083 181.46 90.449C181.38 90.4898 181.292 90.5143 181.203 90.5209C181.114 90.5276 181.024 90.5163 180.939 90.4878C180.854 90.4593 180.775 90.4141 180.708 90.3549C180.641 90.2956 180.586 90.2236 180.547 90.1429C180.508 90.0622 180.485 89.9745 180.48 89.885C180.465 89.74 180.205 86.259 182.214 84.092C183.327 83.0208 184.81 82.42 186.354 82.4146C187.899 82.4092 189.386 82.9996 190.506 84.063C192.706 86.363 192.557 90.232 192.557 90.391C192.541 90.5694 192.461 90.7358 192.33 90.8586C192.2 90.9815 192.029 91.052 191.85 91.057Z" fill="#0F0F10"/>
<path d="M185.566 71.539C185.477 71.5391 185.388 71.5217 185.306 71.4876C185.224 71.4535 185.149 71.4035 185.086 71.3404C185.022 71.2773 184.973 71.2024 184.938 71.12C184.904 71.0376 184.887 70.9492 184.887 70.86V-50.101C184.887 -50.1902 184.904 -50.2786 184.938 -50.361C184.973 -50.4434 185.022 -50.5183 185.086 -50.5814C185.149 -50.6445 185.224 -50.6945 185.306 -50.7286C185.388 -50.7627 185.477 -50.7801 185.566 -50.78C185.655 -50.7801 185.744 -50.7627 185.826 -50.7286C185.908 -50.6945 185.983 -50.6445 186.046 -50.5814C186.109 -50.5183 186.16 -50.4434 186.194 -50.361C186.228 -50.2786 186.245 -50.1902 186.245 -50.101V70.86C186.24 71.0384 186.166 71.2081 186.04 71.3343C185.914 71.4605 185.744 71.5337 185.566 71.539Z" fill="#0F0F10"/>
<path d="M185.956 84.541C185.204 84.5445 184.466 84.3448 183.818 83.963C183.217 83.6107 182.73 83.0917 182.417 82.4688C182.105 81.8459 181.979 81.1457 182.056 80.453C182.326 78.2011 182.94 76.0039 183.876 73.938C183.593 73.701 183.366 73.4048 183.21 73.0702C183.055 72.7356 182.975 72.3709 182.976 72.002C182.989 71.3288 183.266 70.6876 183.747 70.2162C184.228 69.7448 184.874 69.4807 185.547 69.4807C186.221 69.4807 186.867 69.7448 187.348 70.2162C187.829 70.6876 188.106 71.3288 188.119 72.002C188.121 72.6378 187.872 73.2486 187.426 73.702C188.506 75.7076 189.22 77.8892 189.535 80.145C189.695 80.8452 189.641 81.5772 189.381 82.2467C189.121 82.9162 188.667 83.4924 188.076 83.901C187.452 84.3274 186.712 84.5508 185.956 84.541ZM185.556 70.788C185.395 70.7879 185.235 70.8195 185.086 70.8812C184.937 70.9429 184.801 71.0333 184.687 71.1474C184.573 71.2614 184.483 71.3969 184.421 71.5459C184.36 71.695 184.328 71.8547 184.328 72.016C184.329 72.2437 184.394 72.4664 184.517 72.6582C184.64 72.8499 184.815 73.0028 185.021 73.099C185.176 73.178 185.295 73.3131 185.354 73.4767C185.413 73.6403 185.408 73.8202 185.339 73.98C184.348 76.0591 183.694 78.2831 183.403 80.568C183.341 81.0085 183.412 81.4576 183.608 81.8569C183.804 82.2562 184.116 82.5872 184.503 82.807C184.931 83.0625 185.42 83.1974 185.919 83.1974C186.418 83.1974 186.907 83.0625 187.335 82.807C187.707 82.5296 187.987 82.148 188.142 81.7108C188.296 81.2735 188.317 80.8002 188.202 80.351C187.887 78.0789 187.131 75.8902 185.977 73.908C185.89 73.759 185.864 73.5821 185.905 73.4144C185.945 73.2467 186.049 73.1011 186.194 73.008C186.419 72.8714 186.592 72.6648 186.688 72.42C186.783 72.1753 186.796 71.9059 186.724 71.6532C186.652 71.4005 186.498 71.1785 186.288 71.0213C186.077 70.8641 185.821 70.7804 185.558 70.783L185.556 70.788Z" fill="#0F0F10"/>
</g>
</g>
<defs>
<clipPath id="clip0_0_685">
<rect width="323.805" height="325.9" fill="white"/>
</clipPath>
</defs>
</svg>
