<svg width="28" height="28" viewBox="0 0 28 28" fill="none" xmlns="http://www.w3.org/2000/svg">
<path d="M24.5 19.25C24.5 21.5052 22.6718 23.3333 20.4167 23.3333C18.1615 23.3333 16.3333 21.5052 16.3333 19.25C16.3333 16.9948 18.1615 15.1667 20.4167 15.1667C22.6718 15.1667 24.5 16.9948 24.5 19.25Z" fill="white"/>
<path fill-rule="evenodd" clip-rule="evenodd" d="M1.45834 11.6667C1.45834 11.1834 1.8501 10.7917 2.33334 10.7917H25.6667C26.1499 10.7917 26.5417 11.1834 26.5417 11.6667C26.5417 12.1499 26.1499 12.5417 25.6667 12.5417H2.33334C1.8501 12.5417 1.45834 12.1499 1.45834 11.6667Z" fill="white"/>
<path opacity="0.5" d="M4.88541 10.7917L5.38276 8.80225C6.01937 6.25579 6.33768 4.98256 7.28709 4.24128C8.23652 3.5 9.54892 3.5 12.1738 3.5H15.8262C18.4511 3.5 19.7634 3.5 20.7129 4.24128C21.6623 4.98256 21.9806 6.25579 22.6172 8.80225L23.1146 10.7917H4.88541Z" fill="white"/>
<path d="M11.6667 19.25C11.6667 21.5052 9.8385 23.3333 7.58333 23.3333C5.32817 23.3333 3.5 21.5052 3.5 19.25C3.5 16.9948 5.32817 15.1667 7.58333 15.1667C9.8385 15.1667 11.6667 16.9948 11.6667 19.25Z" fill="white"/>
<path opacity="0.5" d="M11.5311 20.296C11.6193 19.9621 11.6663 19.6116 11.6663 19.25C11.6663 18.9317 11.6299 18.6219 11.561 18.3245L12.0435 18.0832C13.2752 17.4673 14.725 17.4673 15.9566 18.0832L16.4383 18.3241C16.3694 18.6216 16.333 18.9315 16.333 19.25C16.333 19.6114 16.3799 19.9618 16.4681 20.2955L15.174 19.6484C14.4349 19.2789 13.5652 19.2789 12.8261 19.6484L11.5311 20.296Z" fill="white"/>
</svg>
