<svg width="329" height="329" viewBox="0 0 329 329" fill="none" xmlns="http://www.w3.org/2000/svg">
<g clip-path="url(#clip0_0_266)">
<path d="M289.037 280.167C283.524 285.753 277.467 290.775 270.956 295.159C211.956 336.823 142.156 324.682 127.328 321.712C105.428 317.334 63.075 308.861 32.464 273.434C-13.873 219.808 -6.65498 135.344 29.269 79.588C35.836 69.388 70.554 12.779 141.113 3.70402C183.813 -1.78698 233.587 9.28901 269.63 39.013C345.29 101.403 339.907 227.451 289.037 280.167Z" fill="url(#paint0_linear_0_266)"/>
<path d="M62.556 93.124C62.5844 92.3551 62.9121 91.6278 63.4692 91.0972C64.0264 90.5666 64.7688 90.2749 65.5381 90.284H164.023C165.668 90.284 167.423 91.598 167.423 93.195V316.395C167.339 317.619 166.778 318.762 165.861 319.578C164.938 320.425 163.73 320.895 162.477 320.892L62.915 320.632C61.6761 320.637 60.4854 320.152 59.6021 319.283C59.1755 318.861 58.8375 318.357 58.6079 317.803C58.3783 317.248 58.2618 316.653 58.2651 316.053L62.556 93.124Z" fill="#BDD0FB"/>
<g opacity="0.52">
<path d="M119.105 106.093L151.326 105.986L151.315 102.081L119.129 102.176L119.105 106.093Z" fill="white"/>
<path d="M119.022 120.516L151.361 120.374L151.349 116.422L119.049 116.564L119.022 120.516Z" fill="white"/>
<path d="M118.927 135.059L151.408 134.87L151.396 130.894L118.95 131.06L118.927 135.059Z" fill="white"/>
<path d="M118.844 149.708L151.455 149.496L151.444 145.484L118.868 145.684L118.844 149.708Z" fill="white"/>
<path d="M118.75 164.492L151.503 164.243L151.491 160.196L118.773 160.445L118.75 164.492Z" fill="white"/>
<path d="M118.56 194.424L151.586 194.105L151.574 189.987L118.584 190.307L118.56 194.424Z" fill="white"/>
<path d="M118.288 240.289L151.727 239.839L151.715 235.615L118.315 236.052L118.288 240.289Z" fill="white"/>
<path d="M118.655 179.397L151.555 179.113L151.531 175.03L118.683 175.303L118.655 179.397Z" fill="white"/>
<path d="M118.477 209.583L151.633 209.217L151.621 205.075L118.501 205.43L118.477 209.583Z" fill="white"/>
<path d="M118.383 224.87L151.683 224.47L151.671 220.282L118.409 220.673L118.383 224.87Z" fill="white"/>
<path d="M118.194 255.825L151.776 255.34L151.764 251.092L118.218 251.566L118.194 255.825Z" fill="white"/>
<path d="M118.087 271.504L151.823 270.984L151.811 266.684L118.123 267.205L118.087 271.504Z" fill="white"/>
<path d="M117.993 287.326L151.871 286.758L151.859 282.427L118.029 282.983L117.993 287.326Z" fill="white"/>
<path d="M117.898 303.275L151.929 302.66L151.905 298.294L117.921 298.894L117.898 303.275Z" fill="white"/>
<path d="M76.873 106.234L109.283 106.128L109.319 102.199L76.944 102.306L76.873 106.234Z" fill="white"/>
<path d="M76.6011 120.706L109.153 120.564L109.189 116.6L76.689 116.73L76.6011 120.706Z" fill="white"/>
<path d="M76.3411 135.285L109.023 135.108L109.059 131.12L76.412 131.286L76.3411 135.285Z" fill="white"/>
<path d="M76.069 149.992L108.894 149.779L108.929 145.756L76.1519 145.956L76.069 149.992Z" fill="white"/>
<path d="M75.808 164.818L108.763 164.569L108.798 160.511L75.879 160.759L75.808 164.818Z" fill="white"/>
<path d="M75.2639 194.852L108.502 194.532L108.538 190.402L75.338 190.722L75.2639 194.852Z" fill="white"/>
<path d="M74.424 240.869L108.089 240.42L108.124 236.184L74.4949 236.621L74.424 240.869Z" fill="white"/>
<path d="M75.536 179.775L108.636 179.491L108.671 175.397L75.61 175.669L75.536 179.775Z" fill="white"/>
<path d="M74.98 210.069L108.361 209.702L108.397 205.536L75.064 205.891L74.98 210.069Z" fill="white"/>
<path d="M74.708 225.404L108.23 224.99L108.266 220.79L74.779 221.19L74.708 225.404Z" fill="white"/>
<path d="M74.14 256.464L107.947 255.978L107.982 251.706L74.2111 252.179L74.14 256.464Z" fill="white"/>
<path d="M73.856 272.203L107.804 271.67L107.851 267.362L73.926 267.883L73.856 272.203Z" fill="white"/>
<path d="M73.5601 288.069L107.66 287.502L107.707 283.159L73.6401 283.715L73.5601 288.069Z" fill="white"/>
<path d="M73.276 304.08L107.52 303.464L107.567 299.086L73.346 299.686L73.276 304.08Z" fill="white"/>
</g>
<path d="M6.04102 154.69C6.08802 152.868 7.95802 151.365 10.253 151.365H96.988C99.319 151.365 101.603 152.939 101.603 154.796V319.971C101.551 320.446 101.396 320.904 101.149 321.313C100.901 321.722 100.568 322.072 100.171 322.338C99.2744 322.99 98.1913 323.334 97.083 323.32L6.39603 323.12C5.30583 323.134 4.24289 322.779 3.37903 322.114C3.00471 321.829 2.70034 321.462 2.48911 321.042C2.27787 320.621 2.16533 320.158 2.16003 319.688L6.04102 154.69Z" fill="#BDD0FB"/>
<path d="M69.915 170.831L94.622 170.807L94.822 160.737H70.081L69.915 170.831Z" fill="url(#paint1_linear_0_266)"/>
<path d="M42.2141 170.831L66.8971 170.807L67.0751 160.737H42.3681L42.2141 170.831Z" fill="url(#paint2_linear_0_266)"/>
<path d="M14.5491 170.819L39.2091 170.795L39.3511 160.737H14.6671L14.5491 170.819Z" fill="url(#paint3_linear_0_266)"/>
<path d="M69.6071 188.901L94.2671 188.913L94.467 178.913L69.7671 178.902L69.6071 188.901Z" fill="url(#paint4_linear_0_266)"/>
<path d="M41.954 188.888L66.602 188.9L66.768 178.9H42.096L41.954 188.888Z" fill="url(#paint5_linear_0_266)"/>
<path d="M14.3361 188.876L38.9481 188.888L39.0901 178.888H14.454L14.3361 188.876Z" fill="url(#paint6_linear_0_266)"/>
<path d="M69.3 206.838L93.924 206.862L94.113 196.898L69.465 196.886L69.3 206.838Z" fill="url(#paint7_linear_0_266)"/>
<path d="M41.6941 206.815L66.2941 206.839L66.4601 196.876L41.8481 196.864L41.6941 206.815Z" fill="url(#paint8_linear_0_266)"/>
<path d="M14.123 206.79L38.7 206.814L38.842 196.863L14.2421 196.839L14.123 206.79Z" fill="url(#paint9_linear_0_266)"/>
<path d="M68.9921 224.718L93.5691 224.753L93.7691 214.814L69.1571 214.79L68.9921 224.718Z" fill="url(#paint10_linear_0_266)"/>
<path d="M41.4331 224.694L65.9981 224.718L66.1641 214.79L41.5871 214.766L41.4331 224.694Z" fill="url(#paint11_linear_0_266)"/>
<path d="M13.91 224.658L38.451 224.682L38.581 214.766L14.028 214.742L13.91 224.658Z" fill="url(#paint12_linear_0_266)"/>
<path d="M68.684 242.537L93.225 242.572L93.4139 232.68L68.8489 232.645L68.684 242.537Z" fill="url(#paint13_linear_0_266)"/>
<path d="M41.1849 242.502L65.691 242.537L65.8569 232.645L41.3279 232.609L41.1849 242.502Z" fill="url(#paint14_linear_0_266)"/>
<path d="M13.709 242.455L38.191 242.491L38.333 232.61L13.815 232.575L13.709 242.455Z" fill="url(#paint15_linear_0_266)"/>
<path d="M68.377 260.299L92.8709 260.335L93.0709 250.478L68.5529 250.443L68.377 260.299Z" fill="url(#paint16_linear_0_266)"/>
<path d="M40.925 260.239L65.395 260.286L65.561 250.429L41.067 250.394L40.925 260.239Z" fill="url(#paint17_linear_0_266)"/>
<path d="M13.496 260.193L37.943 260.24L38.085 250.384L13.615 250.348L13.496 260.193Z" fill="url(#paint18_linear_0_266)"/>
<path d="M68.0809 277.989L92.5279 278.036L92.7169 268.214L68.2459 268.167L68.0809 277.989Z" fill="url(#paint19_linear_0_266)"/>
<path d="M40.6639 277.93L65.0989 277.977L65.265 268.155L40.8059 268.108L40.6639 277.93Z" fill="url(#paint20_linear_0_266)"/>
<path d="M13.283 277.87L37.694 277.929L37.824 268.108L13.401 268.061L13.283 277.87Z" fill="url(#paint21_linear_0_266)"/>
<path d="M67.774 295.62L92.1851 295.679L92.3741 285.894L67.9391 285.834L67.774 295.62Z" fill="url(#paint22_linear_0_266)"/>
<path d="M40.416 295.56L64.804 295.62L64.97 285.82L40.559 285.772L40.416 295.56Z" fill="url(#paint23_linear_0_266)"/>
<path d="M13.082 295.49L37.446 295.549L37.576 285.764L13.188 285.704L13.082 295.49Z" fill="url(#paint24_linear_0_266)"/>
<path d="M67.478 313.192L91.842 313.264L92.032 303.502L67.644 303.443L67.478 313.192Z" fill="url(#paint25_linear_0_266)"/>
<path d="M40.155 313.122L64.507 313.193L64.673 303.43L40.297 303.371L40.155 313.122Z" fill="url(#paint26_linear_0_266)"/>
<path d="M12.869 313.05L37.186 313.109L37.328 303.36L12.988 303.301L12.869 313.05Z" fill="url(#paint27_linear_0_266)"/>
<path d="M232.439 158.643C232.487 156.821 234.356 155.318 236.652 155.318H323.387C325.718 155.318 328.002 156.892 328.002 158.75V323.925C327.95 324.4 327.795 324.858 327.547 325.267C327.3 325.675 326.967 326.025 326.57 326.292C325.673 326.944 324.59 327.288 323.481 327.274L232.794 327.074C231.704 327.087 230.641 326.733 229.777 326.068C229.403 325.783 229.098 325.416 228.887 324.996C228.676 324.575 228.564 324.112 228.559 323.642L232.439 158.643Z" fill="#BDD0FB"/>
<g opacity="0.5">
<path d="M296.324 174.784L321.031 174.748L321.231 164.69H296.488L296.324 174.784Z" fill="white"/>
<path d="M268.625 174.771L293.308 174.747L293.485 164.689H268.767L268.625 174.771Z" fill="white"/>
<path d="M240.959 174.771L265.618 174.736L265.76 164.69H241.077L240.959 174.771Z" fill="white"/>
<path d="M296.016 192.84L320.676 192.852L320.876 182.852H296.176L296.016 192.84Z" fill="white"/>
<path d="M268.364 192.829L293.012 192.841L293.178 182.854L268.507 182.842L268.364 192.829Z" fill="white"/>
<path d="M240.746 192.817L265.358 192.829L265.5 182.842L240.865 182.83L240.746 192.817Z" fill="white"/>
<path d="M295.709 210.79L320.333 210.802L320.523 200.839L295.875 200.827L295.709 210.79Z" fill="white"/>
<path d="M268.104 210.768L292.704 210.779L292.87 200.828L268.246 200.804L268.104 210.768Z" fill="white"/>
<path d="M240.533 210.744L265.11 210.756L265.252 200.805L240.652 200.793L240.533 210.744Z" fill="white"/>
<path d="M295.401 228.67L319.977 228.694L320.167 218.766L295.567 218.742L295.401 228.67Z" fill="white"/>
<path d="M267.843 228.635L292.408 228.658L292.574 218.742L267.985 218.706L267.843 228.635Z" fill="white"/>
<path d="M240.32 228.6L264.85 228.635L264.992 218.708L240.439 218.684L240.32 228.6Z" fill="white"/>
<path d="M295.095 246.479L319.636 246.515L319.825 236.622L295.26 236.586L295.095 246.479Z" fill="white"/>
<path d="M267.595 246.444L292.102 246.479L292.267 236.587L267.737 236.552L267.595 246.444Z" fill="white"/>
<path d="M240.107 246.397L264.601 246.444L264.743 236.552L240.225 236.516L240.107 246.397Z" fill="white"/>
<path d="M294.786 264.241L319.28 264.289L319.48 254.421L294.95 254.385L294.786 264.241Z" fill="white"/>
<path d="M267.334 264.194L291.805 264.229L291.97 254.372L267.476 254.337L267.334 264.194Z" fill="white"/>
<path d="M239.906 264.146L264.353 264.182L264.495 254.337L240.025 254.29L239.906 264.146Z" fill="white"/>
<path d="M294.491 281.93L318.938 281.989L319.126 272.156L294.656 272.109L294.491 281.93Z" fill="white"/>
<path d="M267.074 281.871L291.509 281.93L291.674 272.109L267.216 272.062L267.074 281.871Z" fill="white"/>
<path d="M239.693 281.812L264.104 281.871L264.234 272.05L239.81 272.002L239.693 281.812Z" fill="white"/>
<path d="M294.183 299.574L318.595 299.633L318.784 289.833L294.349 289.774L294.183 299.574Z" fill="white"/>
<path d="M266.826 299.502L291.214 299.561L291.367 289.775L266.967 289.716L266.826 299.502Z" fill="white"/>
<path d="M239.48 299.43L263.844 299.489L263.986 289.703L239.598 289.656L239.48 299.43Z" fill="white"/>
<path d="M293.875 317.146L318.25 317.205L318.439 307.455L294.052 307.384L293.875 317.146Z" fill="white"/>
<path d="M266.565 317.062L290.905 317.133L291.071 307.383L266.707 307.312L266.565 317.062Z" fill="white"/>
<path d="M239.278 316.991L263.594 317.063L263.736 307.312L239.396 307.241L239.278 316.991Z" fill="white"/>
</g>
<path d="M146.214 203.573C139.138 181.351 125.435 163.637 109.214 153.224C94.6853 143.983 84.3417 129.432 80.389 112.673C79.989 110.91 79.5037 109.147 78.933 107.384C70.433 80.653 47.091 64.218 26.797 70.69C6.50304 77.162 -3.04499 104.059 5.47401 130.79C7.14257 136.06 9.47249 141.098 12.408 145.782C21.5469 160.072 24.8546 177.325 21.649 193.982C18.6101 210.082 19.6927 226.69 24.796 242.26C32.712 267.109 48.896 286.326 67.643 295.993C74.7389 299.642 81.1042 304.563 86.422 310.512C95.222 320.392 107.615 325.031 119.01 321.412C131.304 317.495 138.972 305.059 139.528 290.528C139.898 282.311 141.726 274.226 144.928 266.649C152.343 248.656 153.372 226.044 146.214 203.573Z" fill="#91B3FA"/>
<path opacity="0.57" d="M42.9609 96.852C51.2439 113.678 58.971 130.752 66.508 147.899C68.401 152.183 70.208 156.499 72.046 160.821L74.791 167.293L77.491 173.793C79.266 178.124 81.112 182.443 82.839 186.793L88.0339 199.857C91.3829 208.613 94.8019 217.334 97.9969 226.15C99.5969 230.55 101.287 234.93 102.789 239.367L107.38 252.655C113.32 270.44 118.81 288.379 123.38 306.566L122.599 306.766L118.659 293.288L117.677 289.916L116.612 286.567L114.482 279.881L112.364 273.196C111.664 270.96 110.873 268.759 110.128 266.546C108.613 262.121 107.134 257.684 105.596 253.258C99.3129 235.627 92.805 218.079 85.93 200.673C82.43 192 78.996 183.291 75.43 174.629L72.779 168.129L70.069 161.656C68.269 157.337 66.4506 153.026 64.614 148.723C60.9933 140.097 57.3053 131.491 53.55 122.904C49.8347 114.313 46.06 105.747 42.226 97.2039L42.9609 96.852Z" fill="white"/>
<path d="M205.437 159.388C202.124 135.119 191.19 114.317 176.352 100.602C163.03 88.3929 154.987 71.4752 153.929 53.436C153.822 51.543 153.645 49.626 153.385 47.697C149.409 18.505 128.299 -2.72298 106.231 0.283017C84.163 3.28902 69.502 29.392 73.489 58.583C74.2639 64.3363 75.7586 69.9694 77.938 75.35C84.7914 91.7829 85.1044 110.214 78.813 126.87C72.7987 142.987 70.9351 160.359 73.394 177.385C77.094 204.53 90.327 227.332 107.91 240.726C114.573 245.79 120.248 252.035 124.654 259.15C131.943 270.959 143.894 278.012 156.271 276.32C169.63 274.498 179.771 263.02 182.943 248.098C184.798 239.672 188.127 231.64 192.776 224.373C203.663 207.146 208.786 183.929 205.437 159.388Z" fill="#7D97F4"/>
<path opacity="0.57" d="M118.182 30.292C123.696 49.192 128.595 68.252 133.292 87.362C134.464 92.142 135.564 96.935 136.692 101.727L138.36 108.922L139.969 116.128C141.022 120.928 142.146 125.728 143.152 130.541L146.158 145.001C148.039 154.657 150.004 164.312 151.708 174.001C152.56 178.852 153.518 183.68 154.276 188.544L156.619 203.122C159.554 222.587 161.991 242.147 163.435 261.777L162.595 261.848L160.95 247.199L160.55 243.531L160.05 239.875L159.044 232.575L158.062 225.275C157.743 222.838 157.317 220.412 156.962 217.986C156.193 213.135 155.471 208.271 154.678 203.42C151.377 184.049 147.768 164.73 143.851 145.462C141.792 135.854 139.827 126.222 137.698 116.625L136.124 109.419L134.491 102.225C133.402 97.433 132.325 92.64 131.191 87.86C129.002 78.2753 126.745 68.7067 124.422 59.154C122.139 49.5934 119.788 40.048 117.37 30.518L118.182 30.292Z" fill="white"/>
<path d="M306.845 326.221H114.253C113.531 326.221 112.839 325.934 112.328 325.424C111.818 324.913 111.531 324.221 111.531 323.499V63.235C111.531 62.5131 111.818 61.8207 112.328 61.3102C112.839 60.7998 113.531 60.513 114.253 60.513H306.853C307.575 60.5133 308.267 60.8002 308.777 61.3106C309.287 61.8211 309.574 62.5132 309.574 63.235V323.499C309.571 324.221 309.283 324.913 308.771 325.423C308.26 325.933 307.567 326.22 306.845 326.221Z" fill="url(#paint28_linear_0_266)"/>
<path d="M275.854 291.219H144.817C143.636 291.22 142.466 290.987 141.375 290.536C140.284 290.084 139.292 289.421 138.457 288.586C137.622 287.751 136.959 286.759 136.508 285.668C136.056 284.577 135.824 283.407 135.824 282.226V109.418C135.824 108.237 136.056 107.067 136.508 105.976C136.959 104.885 137.622 103.893 138.457 103.058C139.292 102.223 140.284 101.56 141.375 101.108C142.466 100.657 143.636 100.424 144.817 100.425H275.854C277.035 100.424 278.205 100.657 279.296 101.108C280.387 101.56 281.379 102.223 282.214 103.058C283.049 103.893 283.712 104.885 284.164 105.976C284.615 107.067 284.848 108.237 284.847 109.418V282.225C284.848 283.406 284.615 284.576 284.164 285.667C283.712 286.759 283.05 287.751 282.215 288.586C281.379 289.421 280.388 290.084 279.296 290.535C278.205 290.987 277.035 291.22 275.854 291.219Z" fill="#7D97F4"/>
<path d="M270.895 277.943H149.895C149.179 277.943 148.492 277.659 147.986 277.152C147.479 276.646 147.195 275.959 147.195 275.243V118.816C147.195 118.461 147.265 118.11 147.401 117.783C147.536 117.455 147.735 117.158 147.986 116.907C148.236 116.656 148.534 116.457 148.862 116.322C149.189 116.186 149.54 116.116 149.895 116.116H270.895C271.25 116.116 271.601 116.186 271.928 116.322C272.256 116.457 272.553 116.656 272.804 116.907C273.055 117.158 273.254 117.455 273.389 117.783C273.525 118.11 273.595 118.461 273.595 118.816V275.247C273.594 275.962 273.309 276.648 272.803 277.154C272.297 277.659 271.61 277.943 270.895 277.943Z" fill="url(#paint29_linear_0_266)"/>
<path d="M210.181 86.805C213.455 86.805 216.109 84.1509 216.109 80.877C216.109 77.6031 213.455 74.949 210.181 74.949C206.907 74.949 204.253 77.6031 204.253 80.877C204.253 84.1509 206.907 86.805 210.181 86.805Z" fill="url(#paint30_linear_0_266)"/>
<path d="M248.461 176.522L172.234 177.788C166.434 177.883 161.714 182.388 161.714 187.87V235.876C161.714 241.343 166.435 245.591 172.234 245.354L248.461 242.289C251.071 242.206 253.551 241.128 255.391 239.275C257.232 237.423 258.295 234.937 258.361 232.326V185.926C258.342 184.654 258.069 183.399 257.558 182.235C257.048 181.07 256.31 180.019 255.388 179.143C254.466 178.267 253.378 177.584 252.189 177.134C250.999 176.684 249.732 176.476 248.461 176.522Z" fill="url(#paint31_linear_0_266)"/>
<path d="M252.318 167.849C251.781 167.868 251.245 167.779 250.742 167.589C250.24 167.398 249.78 167.109 249.39 166.739C249 166.369 248.688 165.925 248.471 165.433C248.255 164.941 248.138 164.411 248.129 163.873V153.366C248.129 142.823 239.219 134.279 228.179 134.303L203.342 134.374C192.018 134.41 182.742 143.213 182.742 153.993V164.749C182.704 165.884 182.224 166.959 181.403 167.744C180.583 168.529 179.487 168.961 178.352 168.949C177.794 168.976 177.235 168.891 176.71 168.699C176.185 168.507 175.703 168.213 175.294 167.832C174.884 167.452 174.554 166.994 174.324 166.485C174.093 165.975 173.967 165.425 173.952 164.866V154.087C173.952 138.692 187.216 126.173 203.352 126.173H228.189C243.868 126.173 256.489 138.337 256.489 153.294V163.766C256.463 164.856 256.013 165.893 255.234 166.656C254.455 167.418 253.408 167.847 252.318 167.849Z" fill="url(#paint32_linear_0_266)"/>
<path d="M222.688 203.134C222.661 201.84 222.366 200.565 221.822 199.39C221.278 198.216 220.498 197.167 219.528 196.308C218.559 195.45 217.423 194.802 216.191 194.405C214.959 194.007 213.658 193.869 212.37 193.999C209.967 194.144 207.696 195.146 205.968 196.821C204.24 198.497 203.17 200.737 202.951 203.134C202.856 204.885 203.272 206.625 204.148 208.144C205.024 209.663 206.322 210.895 207.885 211.689C208.519 212.022 209.028 212.551 209.337 213.197C209.647 213.843 209.739 214.571 209.601 215.274L207.424 227.485C207.364 227.853 207.389 228.23 207.495 228.587C207.602 228.945 207.788 229.274 208.039 229.549C208.291 229.825 208.601 230.04 208.948 230.178C209.294 230.317 209.667 230.375 210.039 230.349L215.639 230.149C216.017 230.142 216.389 230.055 216.731 229.894C217.073 229.733 217.377 229.5 217.623 229.213C217.869 228.926 218.051 228.59 218.157 228.227C218.263 227.864 218.291 227.483 218.239 227.108L216.062 215.003C215.954 214.28 216.069 213.541 216.393 212.885C216.716 212.229 217.233 211.689 217.873 211.335C219.318 210.504 220.522 209.31 221.367 207.872C222.211 206.434 222.666 204.801 222.688 203.134Z" fill="url(#paint33_linear_0_266)"/>
<path d="M69.596 326.683C69.6019 326.575 69.59 326.467 69.5609 326.363C67.9749 320.092 60.13 316.199 60.13 316.199L57.018 316.447C55.231 321.974 55.456 325.357 55.752 326.872C55.764 326.919 55.776 326.955 55.787 326.99C60.3894 327.32 65.0127 327.217 69.596 326.683Z" fill="url(#paint34_linear_0_266)"/>
<path d="M55.787 326.994C55.8426 327.234 55.9638 327.455 56.1372 327.63C56.3106 327.806 56.5293 327.929 56.769 327.988C60.414 328.758 66.212 328.142 68.649 327.823C68.9131 327.778 69.1523 327.639 69.3237 327.433C69.4951 327.227 69.5874 326.967 69.584 326.699C65.0041 327.225 60.3852 327.324 55.787 326.994Z" fill="#91B3FA"/>
<path d="M55.775 311.808L57.089 318.15C57.1249 318.369 57.2308 318.57 57.3907 318.724C57.5506 318.877 57.756 318.975 57.976 319.002C58.6533 319.072 59.3365 319.06 60.011 318.967C60.179 318.935 60.339 318.869 60.4818 318.775C60.6246 318.681 60.7474 318.559 60.8431 318.417C60.9388 318.275 61.0055 318.116 61.0395 317.948C61.0735 317.781 61.074 317.608 61.041 317.44L60.13 311.808H55.775Z" fill="url(#paint35_linear_0_266)"/>
<path d="M83.062 326.906C80.9843 326.961 78.9122 326.666 76.933 326.031C76.933 326.374 76.933 326.717 76.945 327.084C76.9433 327.26 77.0102 327.431 77.1317 327.559C77.2531 327.687 77.4196 327.763 77.596 327.771L96.446 327.653C96.5877 327.642 96.7246 327.596 96.8443 327.519C96.964 327.443 97.063 327.338 97.1323 327.214C97.2016 327.09 97.2391 326.95 97.2415 326.808C97.2439 326.666 97.2111 326.525 97.146 326.399C94.658 326.599 88.362 327.047 83.062 326.906Z" fill="#91B3FA"/>
<path d="M97.132 326.397L97.0609 326.255C95.3929 323.924 91.1609 319.297 82.7789 317.286L78.7559 317.156C78.7559 317.156 76.969 320.267 76.934 326.03C78.9132 326.664 80.9852 326.96 83.0629 326.906C88.3619 327.048 94.658 326.598 97.132 326.397Z" fill="url(#paint36_linear_0_266)"/>
<path d="M77.8319 311.251C77.8909 311.551 78.7319 316.051 79.0509 317.807C79.0812 318 79.1741 318.177 79.3152 318.312C79.4564 318.446 79.638 318.531 79.8319 318.552C80.7563 318.619 81.6856 318.548 82.5889 318.34C82.8485 318.259 83.0724 318.091 83.2231 317.865C83.3739 317.639 83.4423 317.368 83.4169 317.097L82.9669 309.962L77.8319 311.251Z" fill="url(#paint37_linear_0_266)"/>
<path d="M74.7789 227.984C74.7789 227.984 80.305 265.984 84.304 311.193C84.316 311.606 84.1794 312.01 83.9188 312.331C83.6582 312.653 83.291 312.87 82.884 312.943C81.407 313.278 79.8983 313.452 78.384 313.464C77.9985 313.45 77.6298 313.303 77.3407 313.048C77.0515 312.792 76.8597 312.445 76.798 312.064C75.437 304.089 65.734 261.313 63.19 251.894C63.19 251.894 60.267 291.894 61.202 312.644C61.2145 312.892 61.1321 313.135 60.9716 313.324C60.8111 313.513 60.5845 313.634 60.338 313.662C59.1382 313.791 57.9279 313.787 56.729 313.65C56.4375 313.622 56.1637 313.498 55.9514 313.296C55.7391 313.095 55.6005 312.828 55.5579 312.538C54.5879 305.793 49.014 265.632 49.251 236.701C49.263 235.068 51.168 221.661 51.168 221.661L74.7789 227.984Z" fill="url(#paint38_linear_0_266)"/>
<path d="M76.9199 164.086L77.6649 183.965C79.634 184.648 81.6411 185.215 83.676 185.665C85.2116 181.437 87.2118 177.393 89.64 173.607C84.6079 171.658 80.2078 168.365 76.9199 164.086Z" fill="url(#paint39_linear_0_266)"/>
<path d="M50.333 230.172C50.0553 230.072 49.8114 229.896 49.6294 229.664C49.4473 229.431 49.3345 229.153 49.3039 228.859C48.5699 221.724 45.004 177.493 67.479 159.293C67.479 159.293 68.769 155.921 79.359 164.215C89.949 172.509 84.2809 181.195 81.7489 193.182C78.6839 207.689 73.2879 219.534 75.6789 228.467C75.7622 228.763 75.7305 229.081 75.5902 229.355C75.4498 229.629 75.2112 229.84 74.922 229.946C67.0197 232.977 58.2897 233.057 50.333 230.172Z" fill="url(#paint40_linear_0_266)"/>
<path d="M76.258 146.041C76.246 146.668 67.277 159.424 67.277 159.424C67.277 159.424 68.886 162.595 76.577 165.175L83.216 151.52L76.258 146.041Z" fill="url(#paint41_linear_0_266)"/>
<path d="M71.809 189.655C71.7499 189.658 71.6915 189.641 71.643 189.607C67.0824 186.336 63.4393 181.948 61.0639 176.863C61.0352 176.792 61.0352 176.713 61.0639 176.643C61.0927 176.572 61.148 176.515 61.218 176.485C61.2528 176.47 61.2904 176.461 61.3285 176.461C61.3666 176.46 61.4045 176.467 61.4398 176.481C61.4751 176.496 61.5071 176.517 61.534 176.544C61.5608 176.571 61.5819 176.604 61.596 176.639C63.9269 181.618 67.4959 185.917 71.962 189.123C72.0238 189.167 72.0667 189.232 72.0821 189.307C72.0975 189.381 72.0842 189.458 72.045 189.523C72.0205 189.564 71.9858 189.597 71.9444 189.62C71.9031 189.643 71.8564 189.655 71.809 189.655Z" fill="url(#paint42_linear_0_266)"/>
<path d="M82.494 178.817C82.4454 178.816 82.3975 178.804 82.3544 178.782C82.3113 178.759 82.2742 178.727 82.246 178.687C82.222 178.652 80.033 175.244 75.856 167.777C75.357 166.754 74.6548 165.843 73.7922 165.101C72.9296 164.358 71.9248 163.799 70.839 163.458C68.5795 162.952 66.2135 163.266 64.165 164.346C64.1316 164.366 64.0946 164.379 64.0562 164.384C64.0178 164.389 63.9787 164.387 63.9411 164.378C63.9035 164.368 63.8683 164.351 63.8373 164.327C63.8063 164.304 63.7802 164.275 63.7605 164.241C63.7408 164.208 63.7279 164.171 63.7225 164.133C63.7171 164.094 63.7193 164.055 63.729 164.018C63.7387 163.98 63.7557 163.945 63.7791 163.914C63.8024 163.883 63.8316 163.857 63.865 163.837C66.0425 162.67 68.5701 162.333 70.977 162.891C72.1373 163.254 73.2118 163.849 74.1352 164.639C75.0586 165.43 75.8118 166.4 76.349 167.491C80.514 174.946 82.692 178.342 82.715 178.377C82.7543 178.442 82.7675 178.519 82.7521 178.593C82.7367 178.667 82.6938 178.733 82.632 178.777C82.5903 178.802 82.5427 178.816 82.494 178.817Z" fill="url(#paint43_linear_0_266)"/>
<path d="M83.3219 138.728C83.3219 138.728 86.5219 146.065 86.7299 149.91C86.9379 153.755 87.7709 156.264 83.3219 157.034C78.8729 157.804 75.1219 155.59 73.0869 151.756C73.0869 151.756 69.9039 145.856 70.6139 143.426C71.3239 140.996 83.3219 138.728 83.3219 138.728Z" fill="url(#paint44_linear_0_266)"/>
<path d="M74.6129 149.01L74.8619 148.904C74.9388 148.871 75.0081 148.822 75.0654 148.761C75.1227 148.7 75.1667 148.628 75.1949 148.549C75.223 148.471 75.2347 148.387 75.229 148.303C75.2233 148.22 75.2005 148.138 75.1619 148.064C74.5349 146.845 73.316 144.076 74.89 143.425C76.925 142.585 84.9949 140.94 86.7349 138.077C87.0865 137.464 87.3129 136.788 87.4008 136.087C87.4888 135.387 87.4365 134.675 87.2472 133.995C87.0578 133.314 86.7351 132.678 86.2979 132.124C85.8606 131.569 85.3174 131.107 84.7 130.764C84.6292 130.731 84.5486 130.726 84.4743 130.75C84.4 130.774 84.3377 130.826 84.2999 130.894L84.111 131.249C84.0832 131.303 84.0399 131.347 83.9867 131.375C83.9335 131.404 83.8728 131.416 83.8127 131.41C83.7527 131.403 83.6959 131.379 83.6499 131.34C83.6039 131.3 83.5708 131.248 83.5549 131.19C83.54 131.133 83.5089 131.083 83.4654 131.043C83.4219 131.004 83.3679 130.979 83.3101 130.97C83.2523 130.961 83.1932 130.969 83.1401 130.994C83.0869 131.018 83.042 131.057 83.0109 131.107C82.4779 131.959 81.035 133.355 77.166 134.065C71.675 135.083 68.0429 137.307 67.9479 141.094C67.9486 141.149 67.9339 141.204 67.9055 141.251C67.8771 141.299 67.8361 141.338 67.7871 141.363C67.738 141.389 67.6827 141.401 67.6274 141.397C67.5722 141.393 67.5191 141.374 67.4739 141.342C67.0739 141.094 66.4209 140.976 65.5569 141.709C64.0569 142.975 64.6689 146.265 67.9709 148.975C68.0076 149.004 68.0369 149.042 68.0567 149.084C68.0765 149.127 68.0862 149.173 68.085 149.22C68.0839 149.267 68.0719 149.313 68.05 149.355C68.0281 149.396 67.997 149.432 67.9589 149.46C67.3589 149.85 66.4679 150.773 68.7869 152.016C70.2538 152.889 71.9645 153.263 73.6619 153.081C73.7028 153.074 73.7418 153.059 73.7766 153.037C73.8114 153.014 73.8413 152.985 73.8645 152.951C73.8877 152.916 73.9037 152.878 73.9115 152.837C73.9193 152.796 73.9187 152.754 73.9099 152.714L73.1759 149.377C73.1657 149.332 73.1658 149.286 73.1762 149.241C73.1866 149.197 73.2071 149.155 73.2361 149.12C73.265 149.085 73.3017 149.056 73.3433 149.037C73.3848 149.018 73.4302 149.009 73.476 149.01H74.624H74.6129Z" fill="url(#paint45_linear_0_266)"/>
<path d="M74.743 149.709C74.743 149.709 73.524 145.023 71.418 146.337C69.312 147.651 72.507 151.591 74.199 151.769L74.743 149.709Z" fill="url(#paint46_linear_0_266)"/>
<path d="M116.095 162.578C116.095 162.578 114.495 159.738 114.595 158.366C114.695 156.994 113.838 154.958 114.749 155.112C115.66 155.266 115.849 155.136 116.098 156.792C116.347 158.448 119.246 165.684 116.095 162.578Z" fill="url(#paint47_linear_0_266)"/>
<path d="M116.395 158.075L116.36 163.743C105.521 175.443 96.7529 176.132 89.6409 173.612C87.2011 177.392 85.2002 181.437 83.6769 185.67C112.608 192.048 119.424 165.448 119.424 165.448C123.341 163.827 124.133 162.88 123.967 161.815L116.395 158.075Z" fill="url(#paint48_linear_0_266)"/>
<path d="M124.737 152.454C123.814 152.075 122.003 148.632 121.66 149.768C121.317 150.904 121.802 152.454 121.66 152.939C121.518 153.424 119.26 158.974 119.707 160.205C120.027 161.092 121.825 160.962 122.097 162.418C122.13 162.642 122.24 162.848 122.409 162.999C122.577 163.15 122.794 163.238 123.02 163.246C123.247 163.24 123.464 163.153 123.633 163.001C123.802 162.85 123.912 162.643 123.943 162.418C123.979 162.228 125.66 152.821 124.737 152.454Z" fill="url(#paint49_linear_0_266)"/>
<path d="M95.2021 140.645C92.038 146.904 91.2222 154.09 92.9026 160.898C94.5831 167.707 98.6484 173.688 104.361 177.756C110.074 181.824 117.056 183.71 124.04 183.071C131.024 182.432 137.547 179.311 142.427 174.274L192.634 199.655C193.044 199.864 193.5 199.966 193.96 199.949C194.42 199.933 194.867 199.799 195.261 199.561L200.172 196.638C200.256 196.59 200.335 196.534 200.409 196.472C200.431 196.459 200.451 196.444 200.468 196.425C200.527 196.377 200.574 196.33 200.634 196.283C200.658 196.271 200.67 196.247 200.693 196.236C200.762 196.175 200.825 196.108 200.882 196.036C201.192 195.659 201.396 195.205 201.471 194.722C201.546 194.239 201.489 193.745 201.308 193.291L197.32 183.291C197.074 182.675 196.612 182.17 196.02 181.871L190.991 179.327L189.666 181.954L185.347 179.765L186.672 177.138L182.625 175.091L181.406 177.516L176.152 174.866L177.371 172.44L175.419 171.446L174.792 172.688L170.392 170.463L171.019 169.221L167.599 167.493L166.274 170.12L163.825 168.889L165.15 166.262L163.032 165.185L161.707 167.812L157.471 165.67L158.796 163.043L152.832 160.026L150.276 158.736C151.442 151.82 150.09 144.715 146.465 138.711C142.841 132.706 137.183 128.201 130.519 126.012C123.856 123.823 116.629 124.095 110.149 126.78C103.67 129.465 98.3675 134.384 95.2051 140.644L95.2021 140.645ZM112.302 142.645C113.349 143.175 114.216 144.004 114.792 145.027C115.368 146.049 115.628 147.22 115.539 148.39C115.45 149.561 115.016 150.678 114.292 151.602C113.568 152.526 112.586 153.214 111.47 153.58C110.355 153.946 109.156 153.972 108.026 153.657C106.895 153.341 105.884 152.697 105.119 151.807C104.354 150.916 103.871 149.819 103.73 148.654C103.588 147.488 103.796 146.307 104.326 145.26C105.038 143.856 106.277 142.793 107.772 142.302C109.268 141.812 110.897 141.936 112.301 142.646L112.302 142.645Z" fill="url(#paint50_linear_0_266)"/>
<path d="M135.895 149.496L159.703 161.53L158.378 164.157L162.614 166.299L163.939 163.672L166.057 164.749L164.732 167.376L167.182 168.607L168.507 165.98L171.927 167.708L171.3 168.95L175.7 171.174L176.327 169.932L178.28 170.926L177.061 173.351L182.315 176.002L183.534 173.577L187.581 175.624L186.256 178.251L190.575 180.44L191.9 177.813L196.929 180.357C197.521 180.656 197.983 181.161 198.229 181.777L202.217 191.777C202.457 192.381 202.474 193.05 202.266 193.666C202.058 194.282 201.638 194.803 201.081 195.138L196.17 198.061C195.774 198.294 195.327 198.424 194.868 198.441C194.41 198.457 193.954 198.359 193.543 198.155L132.937 167.506L135.895 149.496Z" fill="url(#paint51_linear_0_266)"/>
<path d="M109.034 178.534C114.209 181.15 120.043 182.173 125.799 181.474C131.555 180.775 136.974 178.384 141.371 174.605C145.769 170.825 148.947 165.827 150.503 160.242C152.06 154.656 151.925 148.735 150.117 143.226C148.308 137.717 144.906 132.868 140.341 129.292C135.777 125.716 130.254 123.575 124.473 123.138C118.691 122.7 112.909 123.988 107.859 126.836C102.809 129.685 98.7165 133.968 96.1001 139.142C92.5925 146.081 91.9846 154.129 94.4101 161.516C96.8356 168.903 102.096 175.025 109.034 178.534ZM107.851 151.734C106.804 151.204 105.937 150.375 105.361 149.352C104.785 148.33 104.525 147.159 104.614 145.989C104.703 144.818 105.137 143.701 105.861 142.777C106.585 141.853 107.567 141.165 108.683 140.799C109.798 140.433 110.997 140.407 112.127 140.722C113.258 141.038 114.27 141.682 115.034 142.572C115.799 143.463 116.283 144.56 116.424 145.725C116.565 146.891 116.357 148.072 115.827 149.119C115.115 150.522 113.876 151.586 112.38 152.076C110.885 152.566 109.256 152.442 107.852 151.732L107.851 151.734Z" fill="url(#paint52_linear_0_266)"/>
<path d="M143.334 172.771L193.541 198.152C193.951 198.361 194.407 198.463 194.866 198.446C195.326 198.43 195.774 198.296 196.167 198.058L201.078 195.135C201.432 194.925 201.733 194.636 201.958 194.292C202.184 193.947 202.327 193.556 202.378 193.147C197.799 188.189 154.301 169.197 152.678 165.281C152.098 163.881 152.003 161.781 153.731 158.512L151.175 157.222C152.328 150.314 150.967 143.222 147.339 137.231C143.711 131.241 138.056 126.749 131.4 124.57C124.745 122.391 117.528 122.67 111.06 125.356C104.592 128.042 99.301 132.957 96.1461 139.209C92.9912 145.462 92.1818 152.638 93.8644 159.437C95.547 166.235 99.6102 172.205 105.317 176.264C111.024 180.324 117.997 182.203 124.971 181.562C131.945 180.921 138.459 177.802 143.33 172.77L143.334 172.771ZM113.208 141.13C114.256 141.66 115.122 142.489 115.698 143.511C116.275 144.534 116.535 145.705 116.446 146.875C116.357 148.046 115.923 149.163 115.199 150.087C114.475 151.011 113.493 151.699 112.377 152.065C111.262 152.431 110.063 152.458 108.932 152.142C107.802 151.826 106.79 151.183 106.025 150.292C105.261 149.401 104.777 148.304 104.636 147.139C104.495 145.973 104.703 144.792 105.233 143.745C105.944 142.34 107.185 141.276 108.681 140.785C110.177 140.295 111.807 140.419 113.212 141.13H113.208Z" fill="url(#paint53_linear_0_266)"/>
<path d="M111.638 173.398C115.798 175.501 120.488 176.323 125.115 175.76C129.742 175.198 134.098 173.276 137.633 170.237C141.167 167.199 143.722 163.181 144.973 158.69C146.224 154.2 146.115 149.44 144.661 145.012C143.206 140.583 140.471 136.686 136.801 133.812C133.132 130.938 128.693 129.216 124.045 128.866C119.397 128.515 114.749 129.55 110.69 131.84C106.63 134.131 103.341 137.573 101.238 141.733C99.8413 144.495 99.0024 147.505 98.7691 150.591C98.5359 153.677 98.913 156.779 99.8788 159.72C100.845 162.66 102.38 165.382 104.398 167.729C106.415 170.076 108.876 172.002 111.638 173.398ZM107.851 151.732C106.804 151.202 105.937 150.373 105.361 149.351C104.784 148.328 104.524 147.157 104.613 145.987C104.702 144.817 105.136 143.699 105.86 142.775C106.584 141.851 107.566 141.163 108.682 140.797C109.797 140.431 110.996 140.404 112.127 140.72C113.257 141.036 114.269 141.679 115.034 142.57C115.798 143.461 116.282 144.558 116.423 145.723C116.564 146.889 116.356 148.07 115.826 149.117C115.115 150.52 113.876 151.583 112.381 152.073C110.887 152.563 109.259 152.441 107.855 151.732H107.851Z" fill="url(#paint54_linear_0_266)"/>
<path d="M71.808 189.656C71.808 189.656 99.414 198.898 114.868 187.136C115.339 186.771 115.881 186.506 116.459 186.36C117.037 186.213 117.639 186.187 118.228 186.284L124.128 187.242C125.321 187.435 126.543 187.163 127.542 186.483C128.541 185.803 129.241 184.766 129.5 183.586C129.853 182.197 129.902 180.748 129.642 179.338L118.507 178.663L118.827 177.219C118.827 177.219 113.905 178.426 113.81 182.272C113.81 182.272 102.261 189.833 81.199 178.094C81.18 178.12 72.979 184.533 71.808 189.656Z" fill="url(#paint55_linear_0_266)"/>
<g opacity="0.3">
<path d="M285.073 51.225C284.92 51.2196 284.771 51.184 284.632 51.1203C284.493 51.0566 284.368 50.966 284.265 50.8537C284.161 50.7415 284.081 50.6098 284.029 50.4664C283.976 50.3229 283.953 50.1706 283.96 50.018C284.007 48.764 284.007 47.498 283.948 46.243C283.937 45.9384 284.044 45.6412 284.247 45.4139C284.45 45.1866 284.733 45.0468 285.037 45.024H285.061C285.369 45.0136 285.669 45.1241 285.897 45.3318C286.125 45.5396 286.262 45.8282 286.28 46.136C286.339 47.461 286.339 48.798 286.291 50.112C286.281 50.3996 286.164 50.673 285.962 50.8787C285.761 51.0843 285.49 51.2075 285.203 51.224L285.073 51.225ZM283.263 40.149C283.038 38.918 282.754 37.676 282.422 36.469C282.382 36.3214 282.371 36.1673 282.39 36.0155C282.409 35.8636 282.458 35.7171 282.534 35.5842C282.61 35.4512 282.711 35.3345 282.832 35.2408C282.953 35.147 283.091 35.0779 283.239 35.0375C283.386 34.9972 283.54 34.9862 283.692 35.0054C283.844 35.0246 283.991 35.0735 284.124 35.1493C284.256 35.2251 284.373 35.3264 284.467 35.4473C284.561 35.5682 284.63 35.7064 284.67 35.854C285.014 37.12 285.309 38.422 285.546 39.723C285.6 40.0271 285.533 40.3403 285.358 40.5949C285.183 40.8496 284.915 41.0253 284.612 41.084C284.565 41.0939 284.518 41.0979 284.47 41.096C284.188 41.114 283.908 41.0274 283.686 40.8528C283.463 40.6781 283.313 40.4276 283.263 40.149ZM280.411 30.683C279.911 29.535 279.369 28.383 278.778 27.283C278.637 27.012 278.608 26.696 278.697 26.4037C278.787 26.1115 278.989 25.8664 279.258 25.7216C279.527 25.5769 279.843 25.5442 280.136 25.6305C280.43 25.7169 280.677 25.9154 280.825 26.183C281.452 27.343 282.032 28.55 282.553 29.768C282.674 30.0521 282.677 30.3725 282.562 30.6588C282.446 30.945 282.222 31.1739 281.938 31.295C281.798 31.3565 281.647 31.3894 281.493 31.3917C281.34 31.394 281.188 31.3657 281.046 31.3084C280.904 31.2511 280.774 31.166 280.666 31.0581C280.557 30.9502 280.471 30.8217 280.412 30.68L280.411 30.683ZM275.511 22.092C274.766 21.074 273.984 20.092 273.156 19.146C272.959 18.9115 272.863 18.6091 272.887 18.304C272.912 17.999 273.055 17.7157 273.287 17.5154C273.518 17.3152 273.819 17.2139 274.124 17.2335C274.43 17.253 274.715 17.3919 274.919 17.62C275.783 18.614 276.619 19.655 277.404 20.72C277.584 20.9708 277.659 21.2821 277.613 21.5873C277.566 21.8925 277.402 22.1674 277.155 22.353C276.974 22.4825 276.762 22.5603 276.54 22.578C276.342 22.5883 276.144 22.5493 275.965 22.4645C275.785 22.3797 275.63 22.2517 275.512 22.092H275.511ZM268.811 14.815C267.864 13.999 266.871 13.206 265.864 12.46C265.618 12.2751 265.455 12.0006 265.41 11.696C265.365 11.3915 265.443 11.0816 265.625 10.8337C265.808 10.5858 266.081 10.42 266.385 10.3723C266.689 10.3246 266.999 10.3989 267.249 10.579C268.314 11.36 269.355 12.188 270.349 13.052C270.524 13.2037 270.649 13.4037 270.71 13.6269C270.771 13.85 270.764 14.0861 270.69 14.3053C270.617 14.5245 270.48 14.717 270.297 14.8583C270.114 14.9996 269.893 15.0834 269.662 15.099C269.354 15.1112 269.053 15.0102 268.814 14.815H268.811ZM260.682 9.19403C259.582 8.60203 258.433 8.04601 257.282 7.54901C257.007 7.42205 256.792 7.19237 256.684 6.90906C256.575 6.62575 256.582 6.3113 256.703 6.03302C256.823 5.75473 257.048 5.5347 257.329 5.41995C257.61 5.30521 257.924 5.30488 258.205 5.41904C259.412 5.94004 260.619 6.51903 261.778 7.14703C261.913 7.21872 262.032 7.31645 262.129 7.4346C262.226 7.55275 262.299 7.68895 262.343 7.83533C262.387 7.98171 262.402 8.13535 262.386 8.28738C262.37 8.43941 262.324 8.58679 262.251 8.72101C262.157 8.89612 262.019 9.04437 261.851 9.15192C261.684 9.25946 261.492 9.32282 261.293 9.33603C261.082 9.34034 260.874 9.29333 260.685 9.19904L260.682 9.19403ZM217.421 8.65002C217.349 8.51505 217.304 8.36701 217.289 8.21451C217.274 8.062 217.289 7.90806 217.334 7.76163C217.38 7.61519 217.453 7.47918 217.552 7.36148C217.65 7.24378 217.77 7.14676 217.906 7.07602C219.065 6.46102 220.272 5.87602 221.491 5.36002C221.775 5.23908 222.096 5.23592 222.382 5.35126C222.668 5.46659 222.897 5.69099 223.018 5.97504C223.139 6.25908 223.142 6.57954 223.027 6.86591C222.912 7.15227 222.687 7.38107 222.403 7.50201C221.243 7.99868 220.107 8.54301 218.995 9.13501C218.851 9.21766 218.688 9.26239 218.522 9.26501C218.3 9.27644 218.079 9.22478 217.884 9.11597C217.69 9.00715 217.53 8.84562 217.424 8.65002H217.421ZM251.499 5.51404C250.292 5.18304 249.05 4.89901 247.819 4.67401C247.514 4.61752 247.244 4.4422 247.068 4.18658C246.893 3.93097 246.826 3.61603 246.882 3.31103C246.939 3.00604 247.114 2.73596 247.37 2.56024C247.625 2.38452 247.94 2.31753 248.245 2.37402C249.545 2.61102 250.845 2.91802 252.114 3.26202C252.411 3.34548 252.663 3.5425 252.816 3.81049C252.969 4.07847 253.01 4.39587 252.931 4.69403C252.869 4.92959 252.734 5.1392 252.544 5.29242C252.355 5.44564 252.121 5.53449 251.878 5.54602C251.752 5.55787 251.625 5.54705 251.503 5.51404H251.499ZM226.757 4.67401C226.678 4.37585 226.719 4.05848 226.872 3.7905C227.025 3.52251 227.277 3.32549 227.574 3.24203C228.852 2.89903 230.153 2.60303 231.455 2.36603C231.605 2.33884 231.759 2.34147 231.908 2.37375C232.057 2.40602 232.198 2.46731 232.323 2.55414C232.448 2.64096 232.555 2.75161 232.638 2.87976C232.72 3.00791 232.777 3.15106 232.804 3.30102C232.831 3.45099 232.829 3.60486 232.796 3.75381C232.764 3.90277 232.703 4.04389 232.616 4.16916C232.529 4.29442 232.418 4.40138 232.29 4.48389C232.162 4.56639 232.019 4.62284 231.869 4.65002C230.639 4.87502 229.396 5.15003 228.189 5.47803C228.113 5.50115 228.033 5.51295 227.953 5.51303C227.688 5.53365 227.424 5.46116 227.206 5.30804C226.988 5.15493 226.83 4.93072 226.76 4.67401H226.757ZM241.737 3.98804C240.483 3.92904 239.216 3.92904 237.962 3.98804C237.654 3.99846 237.354 3.88795 237.126 3.68014C236.899 3.47234 236.762 3.18374 236.744 2.87604C236.731 2.5723 236.837 2.27548 237.041 2.04965C237.244 1.82383 237.529 1.68712 237.832 1.66904H237.855C239.169 1.61004 240.506 1.61004 241.831 1.66904C242.13 1.68082 242.414 1.80718 242.622 2.022C242.831 2.23682 242.949 2.52366 242.952 2.82312C242.955 3.12258 242.843 3.41176 242.639 3.63083C242.435 3.8499 242.154 3.98209 241.855 4.00003C241.818 3.99007 241.78 3.98602 241.741 3.98804H241.737Z" fill="#91B3FA"/>
<path d="M211.687 13.75C211.924 13.7372 212.152 13.6505 212.337 13.502C212.811 13.123 213.296 12.756 213.781 12.402C213.906 12.3117 214.012 12.1975 214.093 12.066C214.174 11.9344 214.228 11.7882 214.251 11.6358C214.275 11.4833 214.269 11.3276 214.232 11.1777C214.196 11.0277 214.13 10.8866 214.038 10.7623C213.947 10.638 213.832 10.5331 213.699 10.4536C213.567 10.3741 213.42 10.3216 213.267 10.2992C213.115 10.2768 212.959 10.2848 212.81 10.3229C212.66 10.361 212.519 10.4283 212.396 10.521C211.887 10.9 211.367 11.29 210.882 11.681C210.762 11.7752 210.661 11.8924 210.586 12.0258C210.511 12.1592 210.464 12.3061 210.446 12.458C210.429 12.6099 210.442 12.7638 210.484 12.9108C210.526 13.0577 210.597 13.1948 210.693 13.314C210.812 13.4606 210.964 13.5766 211.137 13.6524C211.31 13.7282 211.499 13.7617 211.687 13.75Z" fill="#91B3FA"/>
</g>
<g opacity="0.3">
<path d="M194.704 44.941C194.98 44.922 195.241 44.8059 195.441 44.6132C195.64 44.4206 195.765 44.1637 195.793 43.888C195.852 43.288 195.923 42.681 196.006 42.088C196.038 41.7868 195.952 41.4848 195.766 41.2461C195.579 41.0073 195.307 40.8506 195.007 40.8091C194.707 40.7676 194.403 40.8447 194.159 41.0239C193.914 41.2031 193.749 41.4704 193.699 41.769C193.616 42.396 193.533 43.035 193.474 43.662C193.446 43.9694 193.541 44.2754 193.739 44.5127C193.936 44.75 194.22 44.8994 194.527 44.928C194.583 44.9501 194.645 44.9547 194.704 44.941Z" fill="#91B3FA"/>
<path d="M240.403 94.675C240.099 94.6719 239.808 94.5501 239.592 94.3356C239.377 94.121 239.253 93.8307 239.249 93.5266C239.244 93.2224 239.359 92.9286 239.568 92.7077C239.777 92.4867 240.064 92.3562 240.368 92.344C241.599 92.332 242.841 92.261 244.068 92.131C244.371 92.1086 244.67 92.2052 244.903 92.4002C245.136 92.5952 245.283 92.8733 245.314 93.1753C245.345 93.4773 245.257 93.7794 245.068 94.0175C244.88 94.2555 244.606 94.4107 244.305 94.45C243.773 94.497 243.228 94.545 242.696 94.58C241.93 94.64 241.161 94.663 240.403 94.675ZM249.16 92.557C249.123 92.4083 249.116 92.2536 249.14 92.1022C249.163 91.9508 249.217 91.8056 249.297 91.6751C249.378 91.5447 249.484 91.4317 249.608 91.3427C249.733 91.2537 249.874 91.1906 250.024 91.157C251.231 90.873 252.424 90.53 253.597 90.151C253.743 90.1013 253.897 90.0811 254.051 90.0915C254.205 90.1019 254.355 90.1427 254.493 90.2116C254.631 90.2805 254.754 90.3761 254.854 90.4929C254.955 90.6096 255.031 90.7452 255.079 90.8918C255.127 91.0383 255.145 91.1929 255.133 91.3465C255.12 91.5002 255.078 91.6498 255.007 91.7868C254.936 91.9237 254.839 92.0453 254.721 92.1444C254.603 92.2435 254.466 92.3182 254.319 92.364C253.088 92.764 251.819 93.121 250.556 93.429C250.49 93.4424 250.423 93.4501 250.356 93.452C250.084 93.462 249.818 93.3786 249.6 93.2158C249.382 93.0529 249.227 92.8204 249.16 92.557ZM234.06 94.332C232.771 94.178 231.481 93.953 230.202 93.693C229.899 93.6286 229.635 93.4465 229.466 93.1869C229.298 92.9272 229.239 92.6112 229.303 92.3085C229.368 92.0058 229.55 91.741 229.81 91.5725C230.069 91.404 230.385 91.3456 230.688 91.41C231.895 91.658 233.126 91.871 234.344 92.025C234.65 92.065 234.928 92.2237 235.119 92.4668C235.309 92.71 235.397 93.0182 235.362 93.325C235.329 93.5936 235.203 93.8421 235.007 94.028C234.81 94.2138 234.555 94.3253 234.285 94.343C234.21 94.3455 234.134 94.3418 234.06 94.332ZM258.66 89.432C258.592 89.2946 258.552 89.1451 258.542 88.9921C258.532 88.8391 258.552 88.6857 258.602 88.5406C258.651 88.3955 258.729 88.2616 258.83 88.1465C258.931 88.0314 259.054 87.9375 259.192 87.87C260.305 87.326 261.392 86.734 262.458 86.107C262.589 86.0262 262.736 85.9723 262.888 85.9485C263.04 85.9246 263.196 85.9313 263.346 85.968C263.495 86.0047 263.636 86.0708 263.76 86.1624C263.885 86.2541 263.989 86.3695 264.068 86.5019C264.147 86.6343 264.199 86.7811 264.221 86.9337C264.243 87.0864 264.235 87.2419 264.196 87.3913C264.157 87.5406 264.09 87.6807 263.996 87.8036C263.903 87.9264 263.786 88.0296 263.653 88.107C262.541 88.77 261.381 89.397 260.21 89.965C260.073 90.033 259.925 90.0732 259.773 90.0833C259.62 90.0933 259.468 90.073 259.324 90.0235C259.179 89.974 259.046 89.8963 258.932 89.7949C258.819 89.6936 258.726 89.5695 258.66 89.432ZM224.096 91.964C222.877 91.526 221.658 91.03 220.474 90.485C220.202 90.3522 219.993 90.1187 219.89 89.834C219.788 89.5494 219.8 89.236 219.925 88.9604C220.05 88.6848 220.277 88.4687 220.559 88.3579C220.84 88.2471 221.154 88.2504 221.433 88.367C222.557 88.876 223.717 89.349 224.864 89.767C225.115 89.8588 225.327 90.034 225.464 90.2631C225.601 90.4922 225.656 90.7615 225.618 91.026C225.581 91.2905 225.454 91.5342 225.259 91.7164C225.063 91.8986 224.811 92.0082 224.545 92.027C224.393 92.0398 224.241 92.0186 224.098 91.965L224.096 91.964ZM214.901 87.464C213.801 86.764 212.724 86.021 211.694 85.24C211.568 85.1492 211.461 85.034 211.379 84.9013C211.298 84.7685 211.244 84.6208 211.221 84.4669C211.198 84.313 211.206 84.156 211.244 84.0052C211.283 83.8543 211.351 83.7127 211.445 83.5886C211.539 83.4646 211.657 83.3606 211.791 83.2829C211.926 83.2051 212.075 83.1552 212.23 83.1359C212.384 83.1166 212.541 83.1285 212.691 83.1707C212.841 83.213 212.98 83.2849 213.102 83.382C214.084 84.127 215.113 84.837 216.154 85.5C216.284 85.5814 216.396 85.6879 216.485 85.8133C216.573 85.9386 216.636 86.0803 216.669 86.2301C216.702 86.3798 216.705 86.5347 216.677 86.6856C216.65 86.8365 216.593 86.9805 216.509 87.109C216.41 87.2647 216.276 87.395 216.118 87.4895C215.96 87.584 215.782 87.64 215.598 87.653C215.354 87.6556 215.114 87.592 214.904 87.469L214.901 87.464ZM206.901 81.064C205.978 80.141 205.09 79.182 204.25 78.188C204.055 77.9518 203.962 77.6488 203.988 77.344C204.015 77.0393 204.161 76.7572 204.393 76.5586C204.626 76.36 204.927 76.2607 205.233 76.2821C205.538 76.3035 205.822 76.4439 206.025 76.673C206.818 77.608 207.67 78.531 208.546 79.406C208.654 79.5139 208.74 79.6421 208.799 79.7832C208.857 79.9244 208.888 80.0757 208.888 80.2285C208.888 80.3814 208.857 80.5327 208.799 80.6739C208.74 80.815 208.654 80.9431 208.546 81.051C208.347 81.2512 208.082 81.3729 207.8 81.394C207.636 81.4098 207.47 81.3887 207.316 81.3323C207.161 81.2759 207.02 81.1856 206.905 81.068L206.901 81.064ZM200.487 73.077C199.787 71.977 199.126 70.841 198.534 69.692C198.391 69.4174 198.363 69.0973 198.457 68.8021C198.55 68.5069 198.756 68.2608 199.031 68.118C199.306 67.9752 199.626 67.9473 199.921 68.0406C200.216 68.1338 200.462 68.3404 200.605 68.615C201.173 69.704 201.805 70.792 202.463 71.834C202.629 72.0945 202.685 72.4103 202.618 72.7119C202.552 73.0136 202.368 73.2766 202.108 73.443C201.844 73.6086 201.526 73.6629 201.222 73.5941C200.918 73.5254 200.654 73.34 200.487 73.077ZM195.987 63.871C195.549 62.652 195.159 61.398 194.827 60.144C194.755 59.8479 194.802 59.5353 194.958 59.2735C195.114 59.0116 195.366 58.8215 195.661 58.7439C195.956 58.6663 196.269 58.7075 196.534 58.8587C196.798 59.0098 196.993 59.2588 197.076 59.552C197.396 60.752 197.762 61.942 198.176 63.102C198.228 63.2465 198.25 63.3998 198.243 63.5531C198.235 63.7064 198.197 63.8566 198.131 63.9952C198.065 64.1338 197.972 64.258 197.858 64.3606C197.744 64.4632 197.611 64.5422 197.466 64.593C197.362 64.6279 197.255 64.6517 197.146 64.664C196.895 64.6684 196.65 64.5946 196.443 64.4531C196.236 64.3116 196.078 64.1092 195.991 63.874L195.987 63.871ZM193.609 53.908C193.491 52.961 193.396 52.003 193.337 51.044C193.313 50.701 193.301 50.358 193.278 50.015C193.27 49.8624 193.293 49.7097 193.345 49.5659C193.396 49.4221 193.477 49.2901 193.58 49.1776C193.684 49.0652 193.809 48.9746 193.948 48.9112C194.087 48.8477 194.237 48.8126 194.39 48.808C194.697 48.7958 194.997 48.9061 195.223 49.1145C195.45 49.323 195.584 49.6126 195.597 49.92C195.609 50.251 195.632 50.571 195.644 50.902C195.704 51.802 195.786 52.724 195.905 53.624C195.942 53.9295 195.857 54.2373 195.669 54.4807C195.481 54.7241 195.204 54.8834 194.899 54.924C194.874 54.9221 194.85 54.9262 194.827 54.936C194.534 54.9458 194.248 54.8463 194.024 54.6569C193.8 54.4675 193.655 54.2017 193.616 53.911L193.609 53.908Z" fill="#91B3FA"/>
<path d="M268.235 84.723C268.473 84.712 268.7 84.6252 268.885 84.475C269.385 84.084 269.867 83.675 270.352 83.244C270.584 83.04 270.726 82.7522 270.746 82.4438C270.766 82.1354 270.662 81.8317 270.458 81.5995C270.254 81.3673 269.967 81.2256 269.658 81.2056C269.35 81.1857 269.046 81.289 268.814 81.493C268.353 81.893 267.891 82.286 267.414 82.653C267.175 82.8465 267.021 83.1269 266.988 83.4329C266.955 83.739 267.045 84.0457 267.237 84.2859C267.357 84.4324 267.51 84.5484 267.684 84.6243C267.857 84.7003 268.046 84.734 268.235 84.723Z" fill="#91B3FA"/>
</g>
<path d="M270.435 64.868C270.498 64.7758 270.533 64.6665 270.533 64.5546C270.533 64.4426 270.498 64.3332 270.435 64.241L266.601 58.833C267.803 55.9332 268.519 52.8549 268.719 49.722L274.541 46.563C274.641 46.5095 274.721 46.4256 274.77 46.3235C274.819 46.2213 274.834 46.1063 274.813 45.995L273.513 38.15C273.495 38.0372 273.442 37.9328 273.362 37.852C273.281 37.7711 273.177 37.7179 273.064 37.7L266.532 36.6C265.324 33.7032 263.653 31.0217 261.586 28.66L263.479 22.306C263.512 22.1976 263.511 22.0816 263.475 21.974C263.439 21.8664 263.371 21.7727 263.279 21.706L256.819 17.079C256.727 17.0156 256.617 16.9816 256.505 16.9816C256.394 16.9816 256.284 17.0156 256.192 17.079L250.785 20.913C247.885 19.7107 244.806 18.9951 241.673 18.795L238.513 12.973C238.46 12.8732 238.376 12.793 238.274 12.7441C238.172 12.6951 238.057 12.6801 237.946 12.701L230.1 14.001C229.987 14.0188 229.883 14.0719 229.802 14.1528C229.721 14.2336 229.668 14.3381 229.651 14.451L228.551 20.983C225.654 22.1916 222.973 23.8619 220.611 25.929L214.257 24.036C214.149 24.0028 214.033 24.0042 213.925 24.0401C213.818 24.0759 213.724 24.1444 213.657 24.236L209.03 30.697C208.967 30.7892 208.932 30.8986 208.932 31.0105C208.932 31.1225 208.967 31.2318 209.03 31.324L212.864 36.732C211.661 39.6317 210.946 42.7101 210.746 45.843L204.924 49.002C204.824 49.0554 204.744 49.1393 204.695 49.2414C204.646 49.3436 204.631 49.4587 204.652 49.57L205.952 57.415C205.97 57.528 206.023 57.6325 206.104 57.7134C206.184 57.7942 206.289 57.8474 206.402 57.865L212.934 58.965C214.142 61.862 215.812 64.5435 217.88 66.905L215.987 73.259C215.954 73.3674 215.955 73.4835 215.991 73.5911C216.027 73.6986 216.095 73.7923 216.187 73.859L222.648 78.486C222.74 78.5495 222.849 78.5835 222.961 78.5835C223.073 78.5835 223.182 78.5495 223.274 78.486L228.682 74.652C231.582 75.8543 234.66 76.5699 237.793 76.77L240.952 82.592C241.005 82.6919 241.089 82.7722 241.191 82.8211C241.294 82.87 241.409 82.885 241.52 82.864L249.365 81.564C249.478 81.5463 249.582 81.4932 249.663 81.4123C249.744 81.3314 249.797 81.2269 249.814 81.114L250.914 74.582C253.811 73.3739 256.493 71.7035 258.854 69.636L265.208 71.529C265.316 71.5622 265.432 71.5608 265.54 71.525C265.647 71.4891 265.741 71.4206 265.808 71.329L270.435 64.868Z" fill="#91B3FA"/>
<path d="M239.079 55.756C236.968 55.5778 235.014 54.5695 233.645 52.9524C232.277 51.3353 231.606 49.2414 231.779 47.13C231.959 45.0197 232.968 43.0668 234.585 41.6986C236.202 40.3305 238.295 39.6586 240.406 39.83C242.418 39.9963 244.293 40.9179 245.653 42.4097C247.013 43.9015 247.758 45.8528 247.738 47.8716C247.719 49.8903 246.936 51.8268 245.547 53.2918C244.158 54.7569 242.266 55.6419 240.251 55.769C239.861 55.7943 239.469 55.79 239.079 55.756ZM235.779 43.118C235.162 43.6339 234.654 44.2682 234.286 44.9836C233.918 45.699 233.698 46.4808 233.637 47.283C233.537 48.4905 233.797 49.7007 234.385 50.7603C234.972 51.8199 235.861 52.6815 236.938 53.2362C238.016 53.7908 239.233 54.0137 240.437 53.8764C241.641 53.7392 242.777 53.2481 243.702 52.4652C244.627 51.6823 245.298 50.6428 245.633 49.4781C245.967 48.3134 245.948 47.0757 245.579 45.9217C245.209 44.7676 244.506 43.749 243.558 42.9945C242.61 42.2401 241.459 41.7837 240.252 41.683C239.949 41.6611 239.645 41.6571 239.341 41.671C238.028 41.7555 236.777 42.2636 235.777 43.119L235.779 43.118Z" fill="#BDD0FB"/>
<path d="M240.817 67.294C241.48 67.247 242.155 67.176 242.829 67.069C243.042 67.033 243.255 66.998 243.456 66.951C244.486 66.7449 245.499 66.4601 246.485 66.099C246.497 66.099 246.509 66.087 246.521 66.087C246.562 66.0745 246.601 66.0588 246.639 66.04C246.71 66.016 246.781 65.981 246.864 65.957C246.957 65.9222 247.036 65.8587 247.09 65.7757C247.144 65.6928 247.17 65.5948 247.164 65.496C247.163 65.4465 247.151 65.3979 247.128 65.354C247.082 65.2407 246.993 65.1501 246.881 65.1015C246.769 65.0529 246.642 65.0502 246.528 65.094C245.286 65.5812 243.997 65.9381 242.682 66.159C237.785 66.9669 232.768 65.7982 228.732 62.9096C224.697 60.021 221.972 55.6487 221.158 50.753C221.052 50.114 220.981 49.475 220.934 48.836C220.643 44.0493 222.2 39.3333 225.285 35.6615C228.37 31.9896 232.747 29.6421 237.512 29.1032C242.277 28.5644 247.067 29.8754 250.894 32.7657C254.721 35.656 257.292 39.9051 258.077 44.636C258.184 45.2625 258.255 45.8945 258.29 46.529C258.469 49.2631 258.041 52.003 257.036 54.552C257.013 54.6162 257.002 54.6838 257.001 54.752C257.007 54.8405 257.039 54.9254 257.092 54.9964C257.145 55.0674 257.218 55.1215 257.301 55.152C257.415 55.1958 257.542 55.1932 257.654 55.1446C257.766 55.096 257.855 55.0053 257.901 54.892C258.953 52.2143 259.406 49.3384 259.226 46.467C259.179 45.804 259.108 45.142 259.001 44.479C258.173 39.5135 255.47 35.0552 251.452 32.0236C247.433 28.992 242.404 27.6183 237.401 28.1858C232.399 28.7534 227.806 31.2188 224.568 35.0738C221.331 38.9287 219.696 43.8792 220.001 48.904C220.048 49.567 220.12 50.241 220.226 50.916C221.016 55.7151 223.562 60.0492 227.369 63.0759C231.176 66.1026 235.972 67.6057 240.826 67.293L240.817 67.294Z" fill="#BDD0FB"/>
<g opacity="0.3">
<path d="M326.82 79.3399C326.974 79.3298 327.121 79.2702 327.238 79.17C327.355 79.0698 327.437 78.9344 327.471 78.7839C327.601 78.1919 327.72 77.577 327.827 76.974C327.855 76.7861 327.81 76.5946 327.699 76.44C327.588 76.2855 327.422 76.18 327.235 76.146C327.047 76.1147 326.854 76.1595 326.698 76.2705C326.543 76.3815 326.438 76.5497 326.406 76.738C326.312 77.318 326.206 77.8979 326.075 78.4659C326.034 78.6527 326.068 78.8482 326.17 79.0099C326.272 79.1716 326.434 79.2865 326.62 79.3299C326.686 79.3447 326.753 79.3481 326.82 79.3399Z" fill="#91B3FA"/>
<path d="M327.47 73.861C327.375 73.8583 327.282 73.8368 327.196 73.7976C327.11 73.7584 327.033 73.7024 326.969 73.6329C326.905 73.5634 326.856 73.4817 326.824 73.3928C326.792 73.3038 326.778 73.2094 326.783 73.115C326.819 72.109 326.807 71.092 326.748 70.098C326.736 69.885 326.725 69.672 326.7 69.459C326.684 69.2694 326.744 69.0814 326.866 68.9353C326.987 68.7892 327.162 68.6968 327.351 68.678C327.541 68.6693 327.727 68.7327 327.871 68.8555C328.016 68.9783 328.109 69.1514 328.132 69.34C328.155 69.565 328.167 69.778 328.178 70.003C328.25 71.0545 328.261 72.1092 328.213 73.162C328.206 73.3394 328.133 73.5077 328.008 73.6344C327.884 73.7611 327.717 73.8372 327.54 73.848C327.518 73.8578 327.494 73.8622 327.47 73.861ZM326.156 65.838C325.905 64.6439 325.582 63.4663 325.186 62.312C325.125 62.1314 325.138 61.9338 325.222 61.7628C325.306 61.5917 325.455 61.4612 325.636 61.4C325.817 61.3387 326.014 61.3517 326.185 61.4361C326.356 61.5205 326.487 61.6694 326.548 61.85C326.963 63.0587 327.302 64.2917 327.566 65.542C327.586 65.6345 327.587 65.7301 327.569 65.8231C327.552 65.9161 327.517 66.0048 327.465 66.084C327.413 66.1632 327.346 66.2314 327.268 66.2846C327.19 66.3378 327.102 66.375 327.009 66.394C326.975 66.4038 326.939 66.4079 326.903 66.406C326.731 66.4153 326.562 66.3634 326.425 66.2595C326.289 66.1557 326.193 66.0057 326.156 65.838ZM323.801 58.938C323.266 57.8414 322.665 56.7784 322.001 55.755C321.902 55.595 321.87 55.4028 321.912 55.2195C321.953 55.0362 322.065 54.8764 322.223 54.7744C322.38 54.6723 322.572 54.636 322.756 54.6733C322.94 54.7106 323.102 54.8186 323.208 54.974C323.91 56.0445 324.543 57.1591 325.102 58.311C325.144 58.3955 325.168 58.4875 325.174 58.5816C325.18 58.6757 325.167 58.7701 325.137 58.8592C325.106 58.9483 325.058 59.0304 324.995 59.1008C324.932 59.1711 324.856 59.2283 324.771 59.269C324.688 59.3159 324.594 59.3403 324.499 59.34C324.356 59.3523 324.213 59.3206 324.089 59.2491C323.965 59.1776 323.866 59.0697 323.805 58.94L323.801 58.938ZM319.813 52.832C319.028 51.901 318.187 51.0197 317.293 50.193C317.222 50.129 317.165 50.0515 317.124 49.965C317.084 49.8786 317.061 49.785 317.057 49.6897C317.053 49.5943 317.068 49.499 317.101 49.4095C317.134 49.32 317.184 49.2379 317.249 49.168C317.315 49.0982 317.393 49.0421 317.48 49.0028C317.567 48.9636 317.661 48.942 317.756 48.9394C317.852 48.9368 317.947 48.9532 318.036 48.9876C318.125 49.0221 318.206 49.0738 318.275 49.14C319.212 50.0102 320.097 50.9348 320.926 51.909C321.049 52.0557 321.109 52.2447 321.093 52.4353C321.077 52.6258 320.987 52.8025 320.842 52.927C320.726 53.026 320.58 53.0843 320.428 53.093C320.313 53.0965 320.199 53.0752 320.093 53.0305C319.987 52.9858 319.892 52.9188 319.814 52.834L319.813 52.832ZM314.453 47.874C313.463 47.1631 312.432 46.5113 311.365 45.922C311.197 45.8292 311.073 45.6734 311.02 45.4891C310.967 45.3047 310.989 45.1069 311.082 44.939C311.175 44.7711 311.33 44.647 311.515 44.5939C311.699 44.5408 311.897 44.5632 312.065 44.656C313.182 45.2754 314.264 45.9547 315.308 46.691C315.461 46.8045 315.563 46.9728 315.594 47.1605C315.625 47.3481 315.582 47.5405 315.474 47.697C315.411 47.7842 315.33 47.8565 315.235 47.9083C315.141 47.9602 315.036 47.9905 314.929 47.997C314.846 48.01 314.761 48.0059 314.679 47.9851C314.597 47.9643 314.521 47.9272 314.454 47.876L314.453 47.874ZM308.063 44.374C306.932 43.9246 305.774 43.5452 304.596 43.238C304.504 43.2147 304.417 43.1735 304.341 43.1168C304.265 43.0601 304.201 42.989 304.153 42.9075C304.104 42.826 304.072 42.7357 304.059 42.6419C304.045 42.548 304.05 42.4524 304.073 42.3605C304.097 42.2686 304.138 42.1822 304.195 42.1062C304.251 42.0301 304.322 41.966 304.404 41.9175C304.485 41.869 304.576 41.837 304.67 41.8234C304.763 41.8097 304.859 41.8147 304.951 41.838C306.189 42.163 307.406 42.5637 308.595 43.038C308.771 43.11 308.912 43.2484 308.987 43.4234C309.062 43.5984 309.065 43.7958 308.995 43.973C308.946 44.1012 308.861 44.2122 308.749 44.2922C308.638 44.3722 308.505 44.4177 308.368 44.423C308.264 44.4335 308.159 44.4155 308.064 44.371L308.063 44.374ZM301.011 42.552C299.802 42.3976 298.585 42.3145 297.366 42.303C297.271 42.3036 297.178 42.2852 297.091 42.2489C297.004 42.2127 296.925 42.1594 296.858 42.0921C296.792 42.0247 296.74 41.9448 296.705 41.857C296.671 41.7692 296.654 41.6754 296.656 41.581C296.656 41.4869 296.676 41.3938 296.712 41.3071C296.749 41.2205 296.802 41.1419 296.869 41.0759C296.936 41.0099 297.016 40.9578 297.103 40.9227C297.19 40.8875 297.284 40.8699 297.378 40.871C298.656 40.8801 299.932 40.967 301.2 41.131C301.293 41.1428 301.383 41.1729 301.464 41.2196C301.545 41.2663 301.617 41.3286 301.674 41.403C301.731 41.4773 301.773 41.5623 301.797 41.6529C301.821 41.7435 301.827 41.838 301.815 41.931C301.792 42.0953 301.714 42.2469 301.593 42.3609C301.473 42.4748 301.317 42.5444 301.152 42.558C301.106 42.5504 301.058 42.5484 301.011 42.552ZM289.249 42.623C289.225 42.5313 289.221 42.4357 289.235 42.3421C289.249 42.2485 289.282 42.1587 289.331 42.078C289.381 41.9974 289.447 41.9276 289.524 41.8728C289.601 41.8179 289.688 41.7792 289.781 41.759C290.858 41.4995 291.948 41.2942 293.046 41.144C293.212 41.12 293.378 41.097 293.546 41.085C293.64 41.072 293.735 41.0781 293.826 41.1029C293.917 41.1277 294.002 41.1707 294.076 41.2293C294.15 41.2878 294.212 41.3608 294.257 41.4438C294.302 41.5268 294.33 41.618 294.339 41.712C294.351 41.8053 294.343 41.9 294.318 41.9906C294.293 42.0812 294.25 42.1659 294.191 42.2396C294.133 42.3134 294.06 42.3749 293.978 42.4204C293.896 42.466 293.805 42.4947 293.712 42.505C293.558 42.517 293.403 42.54 293.238 42.564C292.187 42.7025 291.145 42.8961 290.115 43.144C290.068 43.156 290.032 43.156 289.984 43.168C289.817 43.1779 289.652 43.1286 289.517 43.0287C289.383 42.9288 289.288 42.7849 289.25 42.622L289.249 42.623Z" fill="#91B3FA"/>
</g>
<g opacity="0.3">
<path d="M298.693 102.983C297.439 103.042 296.183 103.031 294.931 102.948C294.837 102.941 294.745 102.916 294.66 102.874C294.576 102.831 294.5 102.773 294.439 102.701C294.377 102.63 294.33 102.547 294.3 102.457C294.271 102.367 294.259 102.273 294.266 102.178C294.273 102.084 294.299 101.992 294.341 101.908C294.384 101.824 294.443 101.748 294.515 101.687C294.586 101.625 294.669 101.579 294.759 101.549C294.849 101.52 294.944 101.509 295.038 101.516C296.236 101.599 297.438 101.611 298.638 101.552C298.733 101.547 298.828 101.56 298.917 101.592C299.007 101.624 299.089 101.673 299.16 101.737C299.23 101.8 299.287 101.878 299.327 101.964C299.368 102.05 299.39 102.143 299.394 102.238C299.394 102.428 299.322 102.611 299.192 102.749C299.062 102.888 298.884 102.972 298.694 102.984L298.693 102.983ZM301.604 101.977C301.588 101.884 301.59 101.788 301.611 101.696C301.632 101.604 301.671 101.516 301.726 101.439C301.781 101.362 301.851 101.297 301.931 101.247C302.012 101.197 302.101 101.164 302.195 101.149C303.377 100.948 304.546 100.676 305.695 100.333C305.879 100.281 306.075 100.302 306.243 100.393C306.411 100.484 306.537 100.636 306.595 100.818C306.649 101.002 306.629 101.199 306.538 101.368C306.447 101.537 306.293 101.663 306.11 101.718C304.905 102.077 303.68 102.365 302.442 102.582C302.418 102.582 302.394 102.593 302.359 102.593C302.18 102.597 302.006 102.537 301.868 102.424C301.729 102.311 301.636 102.153 301.604 101.977ZM291.191 102.451C289.957 102.213 288.74 101.897 287.546 101.504C287.364 101.444 287.213 101.315 287.126 101.144C287.04 100.973 287.025 100.775 287.084 100.592C287.144 100.41 287.274 100.26 287.445 100.173C287.616 100.086 287.814 100.071 287.996 100.131C289.136 100.502 290.298 100.802 291.475 101.031C291.647 101.064 291.801 101.159 291.907 101.298C292.014 101.437 292.066 101.611 292.054 101.785C292.042 101.96 291.966 102.124 291.841 102.247C291.716 102.37 291.55 102.442 291.375 102.451C291.314 102.462 291.252 102.462 291.191 102.451ZM308.704 100.037C308.629 99.8627 308.626 99.666 308.694 99.489C308.762 99.312 308.897 99.1687 309.07 99.09C310.168 98.608 311.235 98.0586 312.265 97.445C312.428 97.3477 312.624 97.3192 312.808 97.3658C312.899 97.3889 312.985 97.4297 313.06 97.4859C313.136 97.5421 313.199 97.6127 313.247 97.6935C313.296 97.7744 313.327 97.8639 313.341 97.957C313.355 98.0501 313.35 98.145 313.327 98.2363C313.304 98.3275 313.263 98.4133 313.207 98.4887C313.15 98.5642 313.08 98.6278 312.999 98.676C311.918 99.3171 310.799 99.8938 309.65 100.403C309.572 100.439 309.488 100.459 309.402 100.462C309.256 100.474 309.109 100.439 308.984 100.363C308.858 100.286 308.76 100.173 308.704 100.037ZM284.044 100.12C282.905 99.5861 281.799 98.9849 280.731 98.32C280.57 98.2176 280.456 98.0557 280.413 97.8696C280.371 97.6834 280.404 97.488 280.505 97.326C280.555 97.2453 280.62 97.1753 280.698 97.1202C280.775 97.0651 280.862 97.0259 280.955 97.0049C281.047 96.984 281.143 96.9817 281.236 96.9982C281.33 97.0147 281.419 97.0496 281.499 97.101C282.518 97.7333 283.573 98.3064 284.658 98.8171C284.802 98.886 284.919 99.0004 284.991 99.1426C285.063 99.2849 285.085 99.4469 285.056 99.6035C285.026 99.7601 284.946 99.9025 284.827 100.009C284.708 100.115 284.557 100.178 284.398 100.19C284.278 100.191 284.159 100.167 284.049 100.119L284.044 100.12ZM277.654 96.144C276.677 95.356 275.749 94.5105 274.873 93.612C274.74 93.4756 274.666 93.2917 274.668 93.1009C274.67 92.9101 274.748 92.728 274.884 92.5945C275.021 92.4611 275.205 92.3874 275.396 92.3896C275.586 92.3917 275.769 92.4696 275.902 92.606C276.738 93.4657 277.627 94.272 278.564 95.0201C278.712 95.1415 278.807 95.3166 278.827 95.5073C278.846 95.6979 278.79 95.8886 278.67 96.038C278.606 96.116 278.527 96.1803 278.437 96.227C278.348 96.2737 278.25 96.302 278.149 96.31C277.968 96.3118 277.792 96.253 277.649 96.143L277.654 96.144ZM272.412 90.7441C271.648 89.7446 270.948 88.697 270.318 87.608C270.222 87.4433 270.196 87.2473 270.245 87.0632C270.293 86.879 270.413 86.7218 270.578 86.626C270.743 86.5303 270.939 86.5039 271.123 86.5527C271.307 86.6014 271.464 86.7214 271.56 86.8861C272.166 87.9194 272.834 88.9151 273.56 89.868C273.617 89.9433 273.658 90.0292 273.682 90.1206C273.706 90.2119 273.711 90.3071 273.698 90.4006C273.685 90.494 273.653 90.584 273.605 90.6652C273.557 90.7465 273.493 90.8174 273.418 90.874C273.308 90.9658 273.17 91.0162 273.027 91.0161C272.91 91.0275 272.792 91.0087 272.684 90.9616C272.577 90.9145 272.483 90.8406 272.412 90.747V90.7441Z" fill="#91B3FA"/>
<path d="M315.756 96.6991C315.899 96.6888 316.035 96.635 316.146 96.5451C316.632 96.1661 317.117 95.7761 317.567 95.3731C317.711 95.2475 317.8 95.0697 317.813 94.8789C317.826 94.6881 317.763 94.4999 317.638 94.3556C317.512 94.2113 317.334 94.1227 317.143 94.1095C316.953 94.0963 316.764 94.1595 316.62 94.2851C316.183 94.6641 315.732 95.0421 315.259 95.3971C315.108 95.5134 315.01 95.6846 314.986 95.8732C314.962 96.0618 315.013 96.2524 315.129 96.4031C315.201 96.5007 315.295 96.5788 315.405 96.6305C315.514 96.6822 315.635 96.7058 315.756 96.6991Z" fill="#91B3FA"/>
</g>
<path d="M317.664 83.127C317.71 83.0656 317.735 82.9908 317.735 82.914C317.735 82.8372 317.71 82.7625 317.664 82.7011L315.097 79.08C315.899 77.1396 316.378 75.0811 316.516 72.986L320.409 70.88C320.477 70.8454 320.532 70.7899 320.566 70.7217C320.6 70.6535 320.611 70.5761 320.598 70.501L319.722 65.259C319.712 65.1832 319.677 65.1128 319.622 65.0586C319.568 65.0044 319.498 64.9695 319.422 64.9591L315.056 64.2141C314.25 62.2735 313.131 60.4785 311.743 58.901L313.01 54.653C313.032 54.5798 313.03 54.5016 313.004 54.4296C312.978 54.3577 312.93 54.2958 312.867 54.2531L308.536 51.153C308.475 51.1068 308.4 51.0818 308.323 51.0818C308.246 51.0818 308.171 51.1068 308.11 51.153L304.489 53.721C302.549 52.9185 300.49 52.4388 298.395 52.301L296.289 48.408C296.254 48.3404 296.199 48.2856 296.131 48.2516C296.063 48.2176 295.986 48.2062 295.911 48.2191L290.669 49.095C290.593 49.1053 290.523 49.1402 290.468 49.1944C290.414 49.2486 290.379 49.3191 290.369 49.395L289.623 53.7611C287.683 54.5673 285.888 55.6865 284.31 57.074L280.062 55.8081C279.989 55.7863 279.911 55.7883 279.839 55.8138C279.767 55.8393 279.705 55.887 279.662 55.95L276.562 60.281C276.516 60.3423 276.49 60.4171 276.49 60.494C276.49 60.5709 276.516 60.6457 276.562 60.707L279.129 64.328C278.326 66.2683 277.847 68.3268 277.709 70.422L273.816 72.528C273.748 72.5627 273.693 72.6182 273.659 72.6864C273.625 72.7546 273.613 72.8319 273.626 72.9071L274.502 78.1491C274.512 78.2249 274.548 78.2952 274.602 78.3493C274.656 78.4035 274.726 78.4385 274.802 78.449L279.168 79.194C279.974 81.1344 281.093 82.9292 282.481 84.507L281.215 88.755C281.193 88.8281 281.195 88.9064 281.221 88.9783C281.246 89.0502 281.294 89.1121 281.357 89.155L285.688 92.255C285.749 92.3012 285.825 92.3262 285.902 92.3262C285.978 92.3262 286.053 92.3012 286.115 92.255L289.736 89.687C291.676 90.4893 293.735 90.969 295.83 91.1071L297.935 95C297.97 95.0677 298.025 95.1226 298.093 95.1566C298.162 95.1906 298.239 95.2019 298.314 95.189L303.556 94.314C303.632 94.3033 303.702 94.2682 303.756 94.2141C303.81 94.16 303.845 94.0898 303.856 94.014L304.602 89.648C306.542 88.8415 308.337 87.7223 309.915 86.335L314.163 87.601C314.236 87.6228 314.314 87.6208 314.386 87.5953C314.458 87.5698 314.52 87.5221 314.563 87.4591L317.664 83.127Z" fill="#91B3FA"/>
<path d="M296.669 77.129C295.285 77.003 294.004 76.3458 293.095 75.2955C292.186 74.2452 291.718 72.8833 291.791 71.4959C291.865 70.1085 292.473 68.8034 293.488 67.8546C294.503 66.9059 295.846 66.3873 297.235 66.4077C298.624 66.4282 299.952 66.9859 300.938 67.9641C301.925 68.9422 302.494 70.2646 302.527 71.6536C302.559 73.0426 302.052 74.3901 301.112 75.4133C300.172 76.4365 298.873 77.0557 297.486 77.141C297.214 77.1548 296.941 77.1508 296.669 77.129ZM293.131 71.378C293.043 72.4368 293.379 73.4872 294.064 74.299C294.749 75.1109 295.728 75.6179 296.787 75.709C297.31 75.7533 297.838 75.6941 298.339 75.5346C298.839 75.3752 299.304 75.1187 299.705 74.7798C300.107 74.4408 300.438 74.0261 300.679 73.5593C300.921 73.0925 301.068 72.5826 301.112 72.059C301.156 71.5353 301.097 71.0081 300.937 70.5074C300.778 70.0066 300.522 69.5422 300.183 69.1406C299.844 68.739 299.429 68.4081 298.962 68.1667C298.495 67.9254 297.986 67.7784 297.462 67.734C297.265 67.7163 297.067 67.7163 296.871 67.734C295.912 67.7846 295.004 68.1819 294.316 68.8518C293.629 69.5218 293.208 70.4188 293.132 71.376L293.131 71.378Z" fill="#BDD0FB"/>
<path d="M297.888 85.162C298.338 85.138 298.799 85.079 299.261 85.008C300.17 84.8581 301.062 84.6162 301.923 84.2861C301.959 84.2741 302.006 84.2501 302.041 84.2391C302.181 84.1837 302.301 84.0851 302.382 83.9574C302.463 83.8298 302.501 83.6798 302.491 83.529C302.485 83.4522 302.469 83.3765 302.443 83.3041C302.371 83.128 302.232 82.9875 302.057 82.9126C301.882 82.8378 301.685 82.8347 301.508 82.904C300.707 83.2208 299.873 83.4508 299.023 83.5901C298.976 83.6021 298.929 83.6021 298.881 83.6141C296.899 83.9302 294.869 83.7389 292.981 83.058C291.952 82.6894 290.977 82.1849 290.081 81.558C290.069 81.558 290.069 81.5461 290.057 81.5461C290.045 81.5461 290.009 81.5111 289.986 81.4991C288.688 80.5779 287.587 79.4078 286.745 78.0568C285.904 76.7059 285.34 75.2011 285.086 73.6301C285.015 73.2191 284.968 72.8044 284.944 72.388C284.749 69.2886 285.753 66.233 287.747 63.8526C289.742 61.4722 292.575 59.9491 295.66 59.5981C298.746 59.247 301.848 60.0949 304.327 61.9665C306.805 63.838 308.469 66.5901 308.976 69.654C309.047 70.0573 309.094 70.4643 309.118 70.873C309.229 72.6435 308.951 74.4169 308.302 76.068C308.263 76.1658 308.247 76.2711 308.255 76.376C308.264 76.5393 308.329 76.6945 308.438 76.816C308.548 76.9375 308.695 77.0181 308.857 77.0443C309.018 77.0705 309.183 77.0409 309.326 76.9603C309.468 76.8797 309.578 76.753 309.639 76.6011C310.371 74.7561 310.682 72.7714 310.551 70.7911C310.295 67.2261 308.642 63.9065 305.951 61.5542C303.26 59.202 299.749 58.0074 296.182 58.2305C292.614 58.4535 289.28 60.0761 286.903 62.7452C284.526 65.4143 283.299 68.914 283.489 72.483C283.595 74.2636 284.053 76.0057 284.835 77.6087C285.618 79.2117 286.71 80.644 288.048 81.8231C289.387 83.0022 290.946 83.9048 292.634 84.4789C294.323 85.0529 296.109 85.2872 297.889 85.1681L297.888 85.162Z" fill="#BDD0FB"/>
</g>
<defs>
<linearGradient id="paint0_linear_0_266" x1="367.468" y1="422.641" x2="82.0782" y2="60.0266" gradientUnits="userSpaceOnUse">
<stop stop-color="#DAE3FE"/>
<stop offset="1" stop-color="#E9EFFD"/>
</linearGradient>
<linearGradient id="paint1_linear_0_266" x1="69.915" y1="165.784" x2="94.822" y2="165.784" gradientUnits="userSpaceOnUse">
<stop stop-color="#DAE3FE"/>
<stop offset="1" stop-color="#E9EFFD"/>
</linearGradient>
<linearGradient id="paint2_linear_0_266" x1="42.2141" y1="165.784" x2="67.0751" y2="165.784" gradientUnits="userSpaceOnUse">
<stop stop-color="#DAE3FE"/>
<stop offset="1" stop-color="#E9EFFD"/>
</linearGradient>
<linearGradient id="paint3_linear_0_266" x1="14.5491" y1="165.778" x2="39.3511" y2="165.778" gradientUnits="userSpaceOnUse">
<stop stop-color="#DAE3FE"/>
<stop offset="1" stop-color="#E9EFFD"/>
</linearGradient>
<linearGradient id="paint4_linear_0_266" x1="69.6071" y1="183.908" x2="94.467" y2="183.908" gradientUnits="userSpaceOnUse">
<stop stop-color="#DAE3FE"/>
<stop offset="1" stop-color="#E9EFFD"/>
</linearGradient>
<linearGradient id="paint5_linear_0_266" x1="41.954" y1="183.9" x2="66.768" y2="183.9" gradientUnits="userSpaceOnUse">
<stop stop-color="#DAE3FE"/>
<stop offset="1" stop-color="#E9EFFD"/>
</linearGradient>
<linearGradient id="paint6_linear_0_266" x1="14.3361" y1="183.888" x2="39.0901" y2="183.888" gradientUnits="userSpaceOnUse">
<stop stop-color="#DAE3FE"/>
<stop offset="1" stop-color="#E9EFFD"/>
</linearGradient>
<linearGradient id="paint7_linear_0_266" x1="69.3" y1="201.874" x2="94.113" y2="201.874" gradientUnits="userSpaceOnUse">
<stop stop-color="#DAE3FE"/>
<stop offset="1" stop-color="#E9EFFD"/>
</linearGradient>
<linearGradient id="paint8_linear_0_266" x1="41.6941" y1="201.851" x2="66.4601" y2="201.851" gradientUnits="userSpaceOnUse">
<stop stop-color="#DAE3FE"/>
<stop offset="1" stop-color="#E9EFFD"/>
</linearGradient>
<linearGradient id="paint9_linear_0_266" x1="14.123" y1="201.826" x2="38.842" y2="201.826" gradientUnits="userSpaceOnUse">
<stop stop-color="#DAE3FE"/>
<stop offset="1" stop-color="#E9EFFD"/>
</linearGradient>
<linearGradient id="paint10_linear_0_266" x1="68.9921" y1="219.772" x2="93.7691" y2="219.772" gradientUnits="userSpaceOnUse">
<stop stop-color="#DAE3FE"/>
<stop offset="1" stop-color="#E9EFFD"/>
</linearGradient>
<linearGradient id="paint11_linear_0_266" x1="41.4331" y1="219.742" x2="66.1641" y2="219.742" gradientUnits="userSpaceOnUse">
<stop stop-color="#DAE3FE"/>
<stop offset="1" stop-color="#E9EFFD"/>
</linearGradient>
<linearGradient id="paint12_linear_0_266" x1="13.91" y1="219.712" x2="38.581" y2="219.712" gradientUnits="userSpaceOnUse">
<stop stop-color="#DAE3FE"/>
<stop offset="1" stop-color="#E9EFFD"/>
</linearGradient>
<linearGradient id="paint13_linear_0_266" x1="68.684" y1="237.608" x2="93.4139" y2="237.608" gradientUnits="userSpaceOnUse">
<stop stop-color="#DAE3FE"/>
<stop offset="1" stop-color="#E9EFFD"/>
</linearGradient>
<linearGradient id="paint14_linear_0_266" x1="41.1849" y1="237.573" x2="65.8569" y2="237.573" gradientUnits="userSpaceOnUse">
<stop stop-color="#DAE3FE"/>
<stop offset="1" stop-color="#E9EFFD"/>
</linearGradient>
<linearGradient id="paint15_linear_0_266" x1="13.709" y1="237.533" x2="38.333" y2="237.533" gradientUnits="userSpaceOnUse">
<stop stop-color="#DAE3FE"/>
<stop offset="1" stop-color="#E9EFFD"/>
</linearGradient>
<linearGradient id="paint16_linear_0_266" x1="68.377" y1="255.389" x2="93.0709" y2="255.389" gradientUnits="userSpaceOnUse">
<stop stop-color="#DAE3FE"/>
<stop offset="1" stop-color="#E9EFFD"/>
</linearGradient>
<linearGradient id="paint17_linear_0_266" x1="40.925" y1="255.34" x2="65.561" y2="255.34" gradientUnits="userSpaceOnUse">
<stop stop-color="#DAE3FE"/>
<stop offset="1" stop-color="#E9EFFD"/>
</linearGradient>
<linearGradient id="paint18_linear_0_266" x1="13.496" y1="255.294" x2="38.085" y2="255.294" gradientUnits="userSpaceOnUse">
<stop stop-color="#DAE3FE"/>
<stop offset="1" stop-color="#E9EFFD"/>
</linearGradient>
<linearGradient id="paint19_linear_0_266" x1="68.0809" y1="273.102" x2="92.7169" y2="273.102" gradientUnits="userSpaceOnUse">
<stop stop-color="#DAE3FE"/>
<stop offset="1" stop-color="#E9EFFD"/>
</linearGradient>
<linearGradient id="paint20_linear_0_266" x1="40.6639" y1="273.043" x2="65.265" y2="273.043" gradientUnits="userSpaceOnUse">
<stop stop-color="#DAE3FE"/>
<stop offset="1" stop-color="#E9EFFD"/>
</linearGradient>
<linearGradient id="paint21_linear_0_266" x1="13.283" y1="272.995" x2="37.824" y2="272.995" gradientUnits="userSpaceOnUse">
<stop stop-color="#DAE3FE"/>
<stop offset="1" stop-color="#E9EFFD"/>
</linearGradient>
<linearGradient id="paint22_linear_0_266" x1="67.774" y1="290.756" x2="92.3741" y2="290.756" gradientUnits="userSpaceOnUse">
<stop stop-color="#DAE3FE"/>
<stop offset="1" stop-color="#E9EFFD"/>
</linearGradient>
<linearGradient id="paint23_linear_0_266" x1="40.416" y1="290.696" x2="64.97" y2="290.696" gradientUnits="userSpaceOnUse">
<stop stop-color="#DAE3FE"/>
<stop offset="1" stop-color="#E9EFFD"/>
</linearGradient>
<linearGradient id="paint24_linear_0_266" x1="13.082" y1="290.626" x2="37.576" y2="290.626" gradientUnits="userSpaceOnUse">
<stop stop-color="#DAE3FE"/>
<stop offset="1" stop-color="#E9EFFD"/>
</linearGradient>
<linearGradient id="paint25_linear_0_266" x1="67.478" y1="308.354" x2="92.032" y2="308.354" gradientUnits="userSpaceOnUse">
<stop stop-color="#DAE3FE"/>
<stop offset="1" stop-color="#E9EFFD"/>
</linearGradient>
<linearGradient id="paint26_linear_0_266" x1="40.155" y1="308.282" x2="64.673" y2="308.282" gradientUnits="userSpaceOnUse">
<stop stop-color="#DAE3FE"/>
<stop offset="1" stop-color="#E9EFFD"/>
</linearGradient>
<linearGradient id="paint27_linear_0_266" x1="12.869" y1="308.205" x2="37.328" y2="308.205" gradientUnits="userSpaceOnUse">
<stop stop-color="#DAE3FE"/>
<stop offset="1" stop-color="#E9EFFD"/>
</linearGradient>
<linearGradient id="paint28_linear_0_266" x1="268.975" y1="-147.536" x2="145.258" y2="253.238" gradientUnits="userSpaceOnUse">
<stop stop-color="#4042E2"/>
<stop offset="1" stop-color="#4F52FF"/>
</linearGradient>
<linearGradient id="paint29_linear_0_266" x1="147.195" y1="197.029" x2="273.595" y2="197.029" gradientUnits="userSpaceOnUse">
<stop stop-color="#4042E2"/>
<stop offset="1" stop-color="#4F52FF"/>
</linearGradient>
<linearGradient id="paint30_linear_0_266" x1="220.235" y1="57.6867" x2="258.696" y2="-31.0555" gradientUnits="userSpaceOnUse">
<stop stop-color="#09005D"/>
<stop offset="1" stop-color="#1A0F91"/>
</linearGradient>
<linearGradient id="paint31_linear_0_266" x1="223.761" y1="115.173" x2="179.59" y2="718.15" gradientUnits="userSpaceOnUse">
<stop stop-color="#FEBBBA"/>
<stop offset="1" stop-color="#FF928E"/>
</linearGradient>
<linearGradient id="paint32_linear_0_266" x1="221.493" y1="114.836" x2="198.137" y2="717.203" gradientUnits="userSpaceOnUse">
<stop stop-color="#FEBBBA"/>
<stop offset="1" stop-color="#FF928E"/>
</linearGradient>
<linearGradient id="paint33_linear_0_266" x1="226.401" y1="183.358" x2="430.936" y2="63.5619" gradientUnits="userSpaceOnUse">
<stop stop-color="#FE7062"/>
<stop offset="1" stop-color="#FF928E"/>
</linearGradient>
<linearGradient id="paint34_linear_0_266" x1="-230.897" y1="321.689" x2="-216.85" y2="321.689" gradientUnits="userSpaceOnUse">
<stop stop-color="#09005D"/>
<stop offset="1" stop-color="#1A0F91"/>
</linearGradient>
<linearGradient id="paint35_linear_0_266" x1="-227.311" y1="305.713" x2="-232.239" y2="328.627" gradientUnits="userSpaceOnUse">
<stop stop-color="#FEBBBA"/>
<stop offset="1" stop-color="#FF928E"/>
</linearGradient>
<linearGradient id="paint36_linear_0_266" x1="-209.494" y1="322.045" x2="-189.276" y2="322.045" gradientUnits="userSpaceOnUse">
<stop stop-color="#09005D"/>
<stop offset="1" stop-color="#1A0F91"/>
</linearGradient>
<linearGradient id="paint37_linear_0_266" x1="-192.208" y1="291.398" x2="-198.326" y2="313.877" gradientUnits="userSpaceOnUse">
<stop stop-color="#FEBBBA"/>
<stop offset="1" stop-color="#FF928E"/>
</linearGradient>
<linearGradient id="paint38_linear_0_266" x1="-172.973" y1="327.754" x2="-92.3385" y2="272.094" gradientUnits="userSpaceOnUse">
<stop stop-color="#09005D"/>
<stop offset="1" stop-color="#1A0F91"/>
</linearGradient>
<linearGradient id="paint39_linear_0_266" x1="105.565" y1="146.995" x2="29.5075" y2="176.146" gradientUnits="userSpaceOnUse">
<stop stop-color="#4042E2"/>
<stop offset="1" stop-color="#4F52FF"/>
</linearGradient>
<linearGradient id="paint40_linear_0_266" x1="93.6637" y1="150.733" x2="-42.4091" y2="213.369" gradientUnits="userSpaceOnUse">
<stop stop-color="#4042E2"/>
<stop offset="1" stop-color="#4F52FF"/>
</linearGradient>
<linearGradient id="paint41_linear_0_266" x1="-216.278" y1="169.346" x2="-207.898" y2="153.491" gradientUnits="userSpaceOnUse">
<stop stop-color="#FEBBBA"/>
<stop offset="1" stop-color="#FF928E"/>
</linearGradient>
<linearGradient id="paint42_linear_0_266" x1="75.5457" y1="114.538" x2="71.4579" y2="136.402" gradientUnits="userSpaceOnUse">
<stop stop-color="#4042E2"/>
<stop offset="1" stop-color="#4F52FF"/>
</linearGradient>
<linearGradient id="paint43_linear_0_266" x1="80.607" y1="115.357" x2="78.5075" y2="137.465" gradientUnits="userSpaceOnUse">
<stop stop-color="#4042E2"/>
<stop offset="1" stop-color="#4F52FF"/>
</linearGradient>
<linearGradient id="paint44_linear_0_266" x1="-200.918" y1="143.841" x2="-240.79" y2="168.975" gradientUnits="userSpaceOnUse">
<stop stop-color="#FEBBBA"/>
<stop offset="1" stop-color="#FF928E"/>
</linearGradient>
<linearGradient id="paint45_linear_0_266" x1="-215.117" y1="134.138" x2="-198.376" y2="156.208" gradientUnits="userSpaceOnUse">
<stop stop-color="#09005D"/>
<stop offset="1" stop-color="#1A0F91"/>
</linearGradient>
<linearGradient id="paint46_linear_0_266" x1="-204.687" y1="142.23" x2="-225.271" y2="150.161" gradientUnits="userSpaceOnUse">
<stop stop-color="#FEBBBA"/>
<stop offset="1" stop-color="#FF928E"/>
</linearGradient>
<linearGradient id="paint47_linear_0_266" x1="-220.493" y1="151.453" x2="-178.175" y2="157.067" gradientUnits="userSpaceOnUse">
<stop stop-color="#FEBBBA"/>
<stop offset="1" stop-color="#FF928E"/>
</linearGradient>
<linearGradient id="paint48_linear_0_266" x1="-221.473" y1="154.559" x2="-197.84" y2="195.212" gradientUnits="userSpaceOnUse">
<stop stop-color="#FEBBBA"/>
<stop offset="1" stop-color="#FF928E"/>
</linearGradient>
<linearGradient id="paint49_linear_0_266" x1="-222.119" y1="153.117" x2="-179.783" y2="158.718" gradientUnits="userSpaceOnUse">
<stop stop-color="#FEBBBA"/>
<stop offset="1" stop-color="#FF928E"/>
</linearGradient>
<linearGradient id="paint50_linear_0_266" x1="20.6842" y1="151.994" x2="-14.1321" y2="305.994" gradientUnits="userSpaceOnUse">
<stop stop-color="#E1473D"/>
<stop offset="1" stop-color="#E9605A"/>
</linearGradient>
<linearGradient id="paint51_linear_0_266" x1="432.297" y1="-58.2328" x2="410.814" y2="27.8516" gradientUnits="userSpaceOnUse">
<stop stop-color="#FE7062"/>
<stop offset="1" stop-color="#FF928E"/>
</linearGradient>
<linearGradient id="paint52_linear_0_266" x1="-32.1165" y1="191.304" x2="28.1603" y2="332.67" gradientUnits="userSpaceOnUse">
<stop stop-color="#FF9085"/>
<stop offset="1" stop-color="#FB6FBB"/>
</linearGradient>
<linearGradient id="paint53_linear_0_266" x1="157.973" y1="144.059" x2="176.219" y2="46.3781" gradientUnits="userSpaceOnUse">
<stop stop-color="#FE7062"/>
<stop offset="1" stop-color="#FF928E"/>
</linearGradient>
<linearGradient id="paint54_linear_0_266" x1="178.36" y1="43.7217" x2="172.045" y2="55.9296" gradientUnits="userSpaceOnUse">
<stop stop-color="#FE7062"/>
<stop offset="1" stop-color="#FF928E"/>
</linearGradient>
<linearGradient id="paint55_linear_0_266" x1="-149.919" y1="419.52" x2="-153.499" y2="502.443" gradientUnits="userSpaceOnUse">
<stop stop-color="#FEBBBA"/>
<stop offset="1" stop-color="#FF928E"/>
</linearGradient>
<clipPath id="clip0_0_266">
<rect width="328.243" height="328.354" fill="white"/>
</clipPath>
</defs>
</svg>
