<svg width="375" height="406" viewBox="0 0 375 406" fill="none" xmlns="http://www.w3.org/2000/svg">
<path d="M391 310.509H-15V310.712H391V310.509Z" fill="#E6E6E6"/>
<path d="M86.3538 322.794H59.4604V322.997H86.3538V322.794Z" fill="#E6E6E6"/>
<path d="M50.9506 322.794H35.3683V322.997H50.9506V322.794Z" fill="#E6E6E6"/>
<path d="M155.967 325.783H140.384V325.986H155.967V325.783Z" fill="#E6E6E6"/>
<path d="M237.215 330.313H202.145V330.516H237.215V330.313Z" fill="#E6E6E6"/>
<path d="M194.918 330.313H189.778V330.516H194.918V330.313Z" fill="#E6E6E6"/>
<path d="M353.12 325.783H277.052V325.986H353.12V325.783Z" fill="#E6E6E6"/>
<path d="M177.444 274.294H20.6549C19.4266 274.291 18.2494 273.802 17.3816 272.933C16.5139 272.063 16.0265 270.885 16.0265 269.657V49.2559C16.0372 48.0347 16.5293 46.867 17.3959 46.0065C18.2625 45.146 19.4336 44.6621 20.6549 44.66H177.444C178.674 44.66 179.853 45.1485 180.723 46.018C181.592 46.8875 182.081 48.0668 182.081 49.2965V269.657C182.081 270.887 181.592 272.066 180.723 272.936C179.853 273.805 178.674 274.294 177.444 274.294ZM20.6549 44.8224C19.4805 44.8246 18.3549 45.2926 17.5252 46.1238C16.6955 46.955 16.2295 48.0815 16.2295 49.2559V269.657C16.2295 270.832 16.6955 271.958 17.5252 272.789C18.3549 273.62 19.4805 274.088 20.6549 274.091H177.444C178.619 274.088 179.746 273.621 180.577 272.79C181.408 271.959 181.875 270.832 181.878 269.657V49.2559C181.875 48.0807 181.408 46.9543 180.577 46.1233C179.746 45.2923 178.619 44.8246 177.444 44.8224H20.6549Z" fill="#E6E6E6"/>
<path d="M353.088 274.294H196.291C195.061 274.291 193.883 273.802 193.014 272.933C192.145 272.064 191.656 270.886 191.654 269.657V49.2559C191.667 48.034 192.161 46.8663 193.029 46.006C193.897 45.1457 195.068 44.6621 196.291 44.66H353.088C354.308 44.6642 355.477 45.149 356.341 46.0093C357.206 46.8696 357.697 48.0361 357.708 49.2559V269.657C357.708 270.884 357.222 272.061 356.356 272.93C355.49 273.799 354.315 274.289 353.088 274.294ZM196.291 44.8224C195.115 44.8246 193.989 45.2923 193.158 46.1233C192.327 46.9543 191.859 48.0807 191.857 49.2559V269.657C191.859 270.832 192.327 271.959 193.158 272.79C193.989 273.621 195.115 274.088 196.291 274.091H353.088C354.263 274.088 355.389 273.621 356.22 272.79C357.051 271.959 357.519 270.832 357.521 269.657V49.2559C357.519 48.0807 357.051 46.9543 356.22 46.1233C355.389 45.2923 354.263 44.8246 353.088 44.8224H196.291Z" fill="#E6E6E6"/>
<path d="M202.129 241.148H184.273V311.979H202.129V241.148Z" fill="#E0E0E0"/>
<path d="M198.735 311.979H202.129V302.332H195.178L198.735 311.979Z" fill="#FAFAFA"/>
<path d="M123.884 241.148H106.029V311.979H123.884V241.148Z" fill="#E0E0E0"/>
<path d="M202.129 241.148H120.929V306.059H202.129V241.148Z" fill="#FAFAFA"/>
<path d="M199.181 244.339V261.513H123.852V244.339H199.157M199.474 244.022H123.56V261.821H199.498V244.022H199.474Z" fill="#E0E0E0"/>
<path d="M124.315 311.979H120.929V302.332H127.871L124.315 311.979Z" fill="#FAFAFA"/>
<path d="M159.734 252.922C159.734 253.277 159.839 253.624 160.037 253.919C160.234 254.214 160.514 254.444 160.842 254.58C161.17 254.715 161.531 254.751 161.879 254.682C162.227 254.613 162.547 254.442 162.798 254.191C163.049 253.94 163.22 253.62 163.289 253.272C163.358 252.924 163.323 252.563 163.187 252.235C163.051 251.907 162.821 251.627 162.526 251.43C162.231 251.232 161.884 251.127 161.529 251.127C161.053 251.127 160.596 251.316 160.26 251.653C159.923 251.989 159.734 252.446 159.734 252.922Z" fill="#E6E6E6"/>
<path d="M199.181 265.012V282.186H123.852V265.012H199.157M199.474 264.704H123.56V282.503H199.498V264.712L199.474 264.704Z" fill="#E0E0E0"/>
<path d="M159.734 273.644C159.734 273.999 159.839 274.346 160.037 274.641C160.234 274.936 160.514 275.166 160.842 275.302C161.17 275.438 161.531 275.473 161.879 275.404C162.227 275.335 162.547 275.164 162.798 274.913C163.049 274.662 163.22 274.342 163.289 273.994C163.358 273.646 163.323 273.285 163.187 272.957C163.051 272.629 162.821 272.349 162.526 272.152C162.231 271.955 161.884 271.849 161.529 271.849C161.053 271.849 160.596 272.039 160.26 272.375C159.923 272.712 159.734 273.168 159.734 273.644Z" fill="#E6E6E6"/>
<path d="M199.181 285.694V302.876H123.852V285.694H199.157M199.474 285.377H123.56V303.185H199.498V285.377H199.474Z" fill="#E0E0E0"/>
<path d="M159.734 294.285C159.736 294.64 159.842 294.986 160.041 295.28C160.239 295.574 160.52 295.803 160.848 295.937C161.176 296.072 161.536 296.106 161.884 296.036C162.231 295.966 162.55 295.794 162.801 295.543C163.051 295.292 163.221 294.972 163.289 294.624C163.358 294.276 163.322 293.916 163.186 293.588C163.05 293.261 162.82 292.981 162.525 292.784C162.23 292.587 161.883 292.482 161.529 292.482C161.292 292.482 161.058 292.529 160.84 292.62C160.622 292.71 160.424 292.843 160.257 293.011C160.09 293.178 159.958 293.377 159.869 293.596C159.779 293.814 159.733 294.049 159.734 294.285Z" fill="#E6E6E6"/>
<path d="M112.979 200.012H95.1234V311.987H112.979V200.012Z" fill="#E0E0E0"/>
<path d="M109.585 311.979H112.979V302.332H106.037L109.585 311.979Z" fill="#FAFAFA"/>
<path d="M46.2492 200.012H28.3933V311.987H46.2492V200.012Z" fill="#E0E0E0"/>
<path d="M112.979 200.012H43.2853V306.067H112.979V200.012Z" fill="#FAFAFA"/>
<path d="M109.975 203V227.011H46.2898V203H109.975ZM110.348 202.635H45.9V227.36H110.332V202.643L110.348 202.635Z" fill="#E0E0E0"/>
<path d="M109.975 229.942V293.627H79.6386V229.942H109.975ZM110.348 229.569H79.2732V294.001H110.348V229.569Z" fill="#E0E0E0"/>
<path d="M76.6261 229.942V293.627H46.2898V229.942H76.6261ZM76.9915 229.569H45.9V294.001H76.9753V229.569H76.9915Z" fill="#E0E0E0"/>
<path d="M46.6795 311.979H43.2853V302.332H50.2361L46.6795 311.979Z" fill="#FAFAFA"/>
<path d="M76.3338 215.018C76.3322 215.374 76.4365 215.724 76.6336 216.021C76.8307 216.319 77.1117 216.551 77.4409 216.689C77.7702 216.826 78.1329 216.863 78.4831 216.795C78.8333 216.726 79.1552 216.555 79.4082 216.303C79.6611 216.051 79.8336 215.73 79.9038 215.38C79.974 215.031 79.9388 214.668 79.8026 214.338C79.6664 214.008 79.4353 213.726 79.1387 213.527C78.8421 213.329 78.4933 213.223 78.1364 213.223C77.6597 213.223 77.2024 213.412 76.8646 213.748C76.5268 214.085 76.3359 214.541 76.3338 215.018Z" fill="#E6E6E6"/>
<path d="M82.7648 260.27C82.7648 260.627 82.8707 260.976 83.0692 261.273C83.2676 261.569 83.5496 261.8 83.8795 261.937C84.2093 262.073 84.5722 262.108 84.9221 262.038C85.272 261.968 85.5932 261.795 85.845 261.542C86.0967 261.289 86.2678 260.967 86.3364 260.617C86.405 260.267 86.3682 259.904 86.2305 259.575C86.0928 259.246 85.8605 258.965 85.563 258.768C85.2655 258.57 84.9162 258.466 84.5593 258.468C84.323 258.468 84.0889 258.514 83.8707 258.605C83.6524 258.696 83.4543 258.829 83.2875 258.996C83.1208 259.164 82.9888 259.362 82.899 259.581C82.8093 259.8 82.7637 260.034 82.7648 260.27Z" fill="#E6E6E6"/>
<path d="M69.9108 260.27C69.9125 260.625 70.0191 260.971 70.2172 261.265C70.4154 261.559 70.6962 261.788 71.0242 261.922C71.3523 262.057 71.7128 262.091 72.0604 262.021C72.408 261.951 72.727 261.78 72.9771 261.528C73.2273 261.277 73.3974 260.957 73.466 260.609C73.5346 260.261 73.4986 259.901 73.3625 259.574C73.2264 259.246 72.9964 258.966 72.7015 258.77C72.4066 258.573 72.0599 258.468 71.7054 258.468C71.469 258.468 71.235 258.514 71.0168 258.605C70.7985 258.696 70.6003 258.829 70.4336 258.996C70.2668 259.164 70.1348 259.362 70.0451 259.581C69.9554 259.8 69.9098 260.034 69.9108 260.27Z" fill="#E6E6E6"/>
<path d="M67.8808 168.79H60.3536C61.0473 172.442 61.4841 176.137 61.6609 179.85C61.6609 183.91 55.9282 200.012 64.0969 200.012C72.2656 200.012 66.5329 183.95 66.5329 179.85C66.7231 176.136 67.1735 172.441 67.8808 168.79Z" fill="#E0E0E0"/>
<path d="M39.2416 185.258V190.13C39.2501 192.742 40.2915 195.244 42.1383 197.091C43.9851 198.938 46.4875 199.979 49.0993 199.987H53.9713C56.583 199.979 59.0854 198.938 60.9322 197.091C62.779 195.244 63.8204 192.742 63.8289 190.13V185.258H39.2416Z" fill="#F5F5F5"/>
<path d="M143.884 230.819C143.884 236.503 150.242 241.148 158.013 241.148H165.029C172.799 241.148 179.157 236.503 179.157 230.819H143.884Z" fill="#E0E0E0"/>
<path d="M329.783 222.488C325.528 225.963 319.65 232.321 314.274 241.27C310.685 247.23 308.525 253.45 307.575 261.716C307.575 252.378 307.632 242.35 307.664 232.882C308.744 230.446 311.213 224.827 312.983 220.393C318.886 205.59 321.103 201.944 326.405 189.18C333.494 172.128 340.753 151.941 338.675 153.557C334.436 156.846 318.196 187.255 316.442 191.608C311.661 203.223 308.706 215.507 307.681 228.026C307.681 219.094 307.746 210.974 307.778 204.673C307.892 184.121 308.241 177.487 308.411 175.441C309.069 174.401 309.841 173.191 310.295 172.542C314.112 167.02 315.581 162.327 319.17 154.093C324.27 142.441 328.655 121.743 327.372 122.783C322.029 127.135 317.823 136.473 312.285 148.385C306.747 160.297 308.33 167.142 307.234 177.308C307.007 179.306 306.828 186.841 306.698 197.275C305.269 186.151 302.573 178.827 297.661 172.168C291.619 163.975 285.773 158.446 281.486 155.555C277.198 152.664 288.891 172.785 294.478 181.539C299.455 189.367 304.043 196.26 306.658 203.057C306.52 217.21 306.455 235.123 306.455 251.777C305.172 244.193 303.077 236.016 300.283 229.69C296.922 222.09 291.757 210.43 287.641 206.475C286.658 205.525 291.944 228.204 295.338 234.23C298.732 240.255 301.225 245.947 303.361 249.365C303.856 250.177 305.513 253.238 306.455 255.009C306.455 275.365 306.568 293.327 306.747 299.441H307.624C307.567 297.866 307.551 287.505 307.575 273.798C309.694 266.36 314.534 257.867 318.529 250.12C322.881 241.732 334.038 219.037 329.783 222.488Z" fill="#E0E0E0"/>
<path d="M319.901 311.979H294.453L292.529 287.034H321.826L319.901 311.979Z" fill="#F0F0F0"/>
<path d="M323.718 289.941H290.629L289.687 281.52H324.668L323.718 289.941Z" fill="#F5F5F5"/>
<path d="M85.8991 61.306H40.3865V111.285H85.8991V61.306Z" fill="#E0E0E0"/>
<path d="M90.828 61.306H43.8132V111.285H90.828V61.306Z" fill="#F5F5F5"/>
<path d="M86.8898 107.346V65.2442H47.7514V107.346H86.8898Z" fill="white"/>
<path d="M77.3975 97.1315V75.4429H57.2355V97.1315H77.3975Z" fill="#F5F5F5"/>
<path d="M317.961 67.1281H275.68V113.558H317.961V67.1281Z" fill="#E0E0E0"/>
<path d="M322.54 67.1281H278.871V113.558H322.54V67.1281Z" fill="#F5F5F5"/>
<path d="M318.886 109.896V70.7902H282.533V109.896H318.886Z" fill="white"/>
<path d="M300.706 101.687C306.97 101.687 312.049 96.608 312.049 90.3431C312.049 84.0782 306.97 78.9995 300.706 78.9995C294.441 78.9995 289.362 84.0782 289.362 90.3431C289.362 96.608 294.441 101.687 300.706 101.687Z" fill="#F5F5F5"/>
<path d="M133.182 91.1064H99.4189V128.182H133.182V91.1064Z" fill="#E0E0E0"/>
<path d="M136.836 91.1064H101.96V128.182H136.836V91.1064Z" fill="#F5F5F5"/>
<path d="M133.913 125.259V94.0296H104.884V125.259H133.913Z" fill="white"/>
<path d="M119.402 101.744L111.461 115.499H127.344L119.402 101.744Z" fill="#F5F5F5"/>
<path d="M188 347.179C274.951 347.179 345.439 343.063 345.439 337.987C345.439 332.91 274.951 328.795 188 328.795C101.049 328.795 30.5613 332.91 30.5613 337.987C30.5613 343.063 101.049 347.179 188 347.179Z" fill="#F5F5F5"/>
<path d="M268.591 132.705L260.536 129.457C260.536 129.457 249.907 148.84 246.862 149.822C242.721 151.154 234.146 154.857 229.063 155.506C228.373 156.318 227.244 158.843 227.349 159.761C234.178 162.043 249.184 159.014 252.4 156.627C259.716 151.211 268.591 132.705 268.591 132.705Z" fill="#E58A7B"/>
<path d="M271.068 128.296C272.57 133.842 264.434 144.999 264.434 144.999L253.772 139.023C253.772 139.023 255.77 134.435 258.206 129.766C262.111 122.222 269.354 121.971 271.068 128.296Z" fill="#407BFF"/>
<path opacity="0.2" d="M271.068 128.296C272.57 133.842 264.434 144.999 264.434 144.999L253.772 139.023C253.772 139.023 255.77 134.435 258.206 129.766C262.111 122.222 269.354 121.971 271.068 128.296Z" fill="black"/>
<path opacity="0.2" d="M258.003 141.41L262.201 143.765L262.939 130.878C260.495 132.754 258.774 138.405 258.003 141.41Z" fill="black"/>
<path d="M264.052 124.122C264.052 124.122 255.753 142.587 260.593 176.967H293.292C293.812 171.949 292.09 147.459 298.318 123.814C294.731 123.113 291.102 122.649 287.454 122.425C282.827 122.157 278.188 122.157 273.56 122.425C270.353 122.751 267.174 123.318 264.052 124.122Z" fill="#407BFF"/>
<path opacity="0.2" d="M264.052 124.122C264.052 124.122 255.753 142.587 260.593 176.967H293.292C293.812 171.949 292.09 147.459 298.318 123.814C294.731 123.113 291.102 122.649 287.454 122.425C282.827 122.157 278.188 122.157 273.56 122.425C270.353 122.751 267.174 123.318 264.052 124.122Z" fill="black"/>
<g style="mix-blend-mode:multiply">
<path d="M256.468 338.718C256.419 339.595 268.818 340.301 284.157 340.301C299.496 340.301 311.984 339.595 312.033 338.718C312.082 337.841 299.691 337.142 284.344 337.142C268.997 337.142 256.525 337.849 256.468 338.718Z" fill="#E8ECF1"/>
</g>
<path d="M278.295 315.675L272.495 317.92L277.491 330.826L283.291 328.581L278.295 315.675Z" fill="#E58A7B"/>
<path d="M304.157 332.473H298.042L295.801 318.32H301.916L304.157 332.473Z" fill="#E58A7B"/>
<path d="M297.62 331.767H304.49C304.609 331.767 304.724 331.81 304.815 331.887C304.905 331.965 304.966 332.072 304.985 332.189L305.87 337.622C305.889 337.758 305.878 337.896 305.838 338.028C305.798 338.16 305.731 338.281 305.64 338.385C305.549 338.488 305.437 338.57 305.311 338.626C305.186 338.682 305.049 338.711 304.912 338.71C302.516 338.669 301.363 338.523 298.343 338.523C296.483 338.523 292.659 338.718 290.077 338.718C287.494 338.718 287.324 336.184 288.388 335.949C293.162 334.918 295.013 333.513 296.605 332.149C296.886 331.902 297.246 331.766 297.62 331.767Z" fill="#263238"/>
<path d="M277.32 329.672L283.816 327.772C283.932 327.739 284.056 327.747 284.166 327.794C284.277 327.842 284.368 327.925 284.425 328.032L286.861 332.904C286.918 333.027 286.947 333.162 286.946 333.298C286.945 333.434 286.915 333.568 286.857 333.691C286.799 333.814 286.714 333.923 286.61 334.01C286.506 334.097 286.383 334.16 286.252 334.195C283.889 334.844 282.306 335.242 279.35 336.103C277.312 336.696 275.233 337.662 273.219 338.304C271.823 338.75 268.542 338.766 266.845 338.766C264.336 338.766 263.776 336.119 264.856 335.997C267.576 335.697 267.941 335.835 269.444 335.08C271.902 334.006 274.129 332.467 276.005 330.549C276.358 330.146 276.812 329.843 277.32 329.672Z" fill="#263238"/>
<path d="M230.086 155.474L223.363 152.656L220.594 160.11C223.349 160.53 226.153 160.53 228.909 160.11L230.086 155.474Z" fill="#E58A7B"/>
<path d="M218.361 152.461L218.182 157.414L220.594 160.094L223.363 152.64L218.361 152.461Z" fill="#E58A7B"/>
<path d="M279.091 316.771L273.273 319.017L275.849 325.691L281.667 323.445L279.091 316.771Z" fill="#CF6F64"/>
<path d="M301.916 318.32H295.801L296.962 325.62H303.077L301.916 318.32Z" fill="#CF6F64"/>
<path opacity="0.2" d="M259.553 167.67C259.675 169.14 259.813 170.642 259.992 172.185L284.303 164.292C288.1 163.167 291.399 160.781 293.657 157.528C293.755 155.36 293.877 153.078 294.063 150.699C294.145 149.546 294.242 148.361 294.348 147.159C294.453 145.957 294.599 144.625 294.754 143.342L259.553 167.67Z" fill="black"/>
<path d="M267.495 141.036L266.683 140.939C267.162 136.879 270.191 133.68 273.382 133.761V134.573C270.589 134.516 267.925 137.399 267.495 141.036Z" fill="white"/>
<path d="M271.823 148.531H271.685V147.719C274.478 147.825 277.101 144.91 277.531 141.28L278.343 141.377C277.913 145.348 274.981 148.531 271.823 148.531Z" fill="white"/>
<path d="M286.999 106.778C285.854 111.252 284.506 119.445 287.454 122.425C287.454 122.425 285.391 126.964 277.085 126.964C269.492 126.964 273.56 122.425 273.56 122.425C278.611 121.24 278.7 117.553 278.035 114.062L286.999 106.778Z" fill="#E58A7B"/>
<path d="M283.345 109.75L278.043 114.062C278.207 114.864 278.302 115.679 278.327 116.498C279.878 118.04 282.988 114.135 283.304 112.137C283.465 111.351 283.479 110.541 283.345 109.75Z" fill="#CF6F64"/>
<path d="M268.924 106.721C269.293 107.361 269.79 107.917 270.384 108.356C270.977 108.795 271.655 109.106 272.375 109.271C274.324 109.701 275.298 107.907 274.762 106.104C274.283 104.48 272.683 102.296 270.702 102.669C270.278 102.757 269.881 102.945 269.544 103.217C269.207 103.49 268.94 103.839 268.766 104.236C268.592 104.632 268.515 105.065 268.543 105.498C268.57 105.93 268.701 106.35 268.924 106.721Z" fill="#CF6F64"/>
<path d="M272.148 92.4056C269.111 93.7941 268.039 105.86 271.855 107.647C275.672 109.433 277.897 89.7666 272.148 92.4056Z" fill="#263238"/>
<path d="M287.925 100.047C287.194 106.104 287.113 109.669 283.865 112.771C282.858 113.8 281.587 114.531 280.191 114.883C278.795 115.236 277.329 115.195 275.955 114.767C274.58 114.338 273.351 113.539 272.403 112.455C271.454 111.372 270.824 110.048 270.58 108.629C269.598 103.189 270.954 94.2001 277.028 91.7885C278.304 91.2256 279.707 91.0143 281.093 91.1765C282.478 91.3386 283.795 91.8684 284.906 92.7108C286.018 93.5532 286.884 94.6777 287.415 95.9675C287.946 97.2574 288.122 98.6657 287.925 100.047Z" fill="#E58A7B"/>
<path d="M277.945 95.5399C282.444 94.395 285.749 93.6155 284.563 97.3588C282.996 102.361 281.112 107.2 283.637 107.419C285.18 107.558 292.001 104.667 291.132 101.735C290.377 99.1858 293.568 98.4875 294.137 97.1964C296.24 92.5193 290.223 93.1364 291.295 90.2944C292.366 87.4524 286.423 82.8727 283.175 85.1545C277.888 88.8409 268.818 88.7841 273.585 82.7185C277.003 78.3905 270.905 79.2756 270.905 79.2756C270.905 79.2756 274.592 81.4599 268.388 84.8378C261.827 88.4431 267.844 98.1302 277.945 95.5399Z" fill="#263238"/>
<path d="M290.312 106.721C289.424 108.006 288.09 108.915 286.569 109.271C284.563 109.701 283.792 107.907 284.547 106.104C285.221 104.48 287.072 102.296 288.988 102.669C290.905 103.043 291.343 105.13 290.312 106.721Z" fill="#E58A7B"/>
<path d="M260.593 176.967C260.593 176.967 255.104 226.093 254.673 244.737C254.235 264.127 273.276 324.629 273.276 324.629L283.02 320.569C283.02 320.569 271.652 265.289 273.276 246.247C274.998 225.484 282.111 177 282.111 177L260.593 176.967Z" fill="#407BFF"/>
<path opacity="0.2" d="M274.234 190.455C269.858 199.533 272.805 217.486 275.176 228.123C276.078 220.612 277.15 212.46 278.165 204.916C278.067 193.321 277.166 184.365 274.234 190.455Z" fill="black"/>
<path d="M282.59 317.354C282.639 317.354 283.743 320.456 283.743 320.456L272.505 325.182L270.735 321.885L282.59 317.354Z" fill="#407BFF"/>
<path d="M272.196 176.967C272.196 176.967 276.394 223.69 279.171 241.188C282.224 260.36 294.193 324.207 294.193 324.207H305.391C305.391 324.207 298.684 261.911 297.417 242.926C296.037 222.334 293.292 176.967 293.292 176.967H272.196Z" fill="#407BFF"/>
<path d="M305.561 321.292C305.61 321.292 305.935 324.418 305.935 324.418H293.625L292.748 320.829L305.561 321.292Z" fill="#407BFF"/>
<path opacity="0.2" d="M301.274 317.589C301.249 317.59 301.224 317.581 301.205 317.564C301.185 317.548 301.172 317.525 301.168 317.5C301.103 316.932 295.054 260.66 293.917 243.608C292.683 225.111 290.198 184.08 290.174 183.666C290.173 183.653 290.175 183.639 290.179 183.627C290.183 183.614 290.19 183.602 290.199 183.592C290.209 183.582 290.22 183.574 290.232 183.569C290.245 183.563 290.258 183.561 290.271 183.561C290.298 183.561 290.324 183.571 290.343 183.589C290.363 183.607 290.375 183.632 290.377 183.658C290.377 184.072 292.886 225.07 294.12 243.6C295.257 260.652 301.306 316.883 301.363 317.492C301.366 317.505 301.365 317.519 301.362 317.532C301.358 317.546 301.352 317.558 301.344 317.569C301.335 317.579 301.325 317.588 301.313 317.595C301.301 317.601 301.288 317.605 301.274 317.606V317.589Z" fill="black"/>
<path d="M278.635 101.735C278.635 102.231 278.327 102.629 278.002 102.629C277.677 102.629 277.442 102.231 277.474 101.735C277.507 101.24 277.783 100.842 278.108 100.842C278.432 100.842 278.668 101.248 278.635 101.735Z" fill="#263238"/>
<path d="M273.065 101.735C273.065 102.231 272.748 102.629 272.432 102.629C272.115 102.629 271.871 102.231 271.896 101.735C271.92 101.24 272.213 100.842 272.537 100.842C272.862 100.842 273.098 101.248 273.065 101.735Z" fill="#263238"/>
<path d="M274.819 101.987C274.141 103.5 273.268 104.917 272.221 106.201C273.033 107.013 274.551 106.64 274.551 106.64L274.819 101.987Z" fill="#DF5753"/>
<path d="M274.965 108.711C274.946 108.711 274.928 108.707 274.91 108.699C274.893 108.692 274.878 108.681 274.865 108.667C274.852 108.654 274.842 108.637 274.835 108.62C274.829 108.602 274.826 108.583 274.827 108.564C274.829 108.525 274.846 108.488 274.875 108.461C274.904 108.433 274.942 108.418 274.981 108.418C275.602 108.423 276.217 108.288 276.779 108.023C277.341 107.759 277.836 107.373 278.229 106.892C278.258 106.867 278.294 106.854 278.331 106.854C278.368 106.854 278.404 106.867 278.432 106.892C278.459 106.919 278.473 106.955 278.473 106.993C278.473 107.031 278.459 107.067 278.432 107.095C278.012 107.606 277.482 108.016 276.882 108.296C276.282 108.575 275.627 108.717 274.965 108.711Z" fill="#263238"/>
<path d="M279.626 100.241C279.587 100.261 279.544 100.272 279.5 100.272C279.456 100.272 279.413 100.261 279.374 100.241C279.071 100.045 278.725 99.9229 278.365 99.8848C278.006 99.8467 277.642 99.8937 277.304 100.022C277.271 100.039 277.235 100.048 277.198 100.051C277.161 100.053 277.124 100.048 277.09 100.036C277.055 100.024 277.023 100.005 276.995 99.9802C276.968 99.9555 276.946 99.9256 276.93 99.8922C276.9 99.82 276.899 99.7388 276.928 99.666C276.957 99.5932 277.013 99.5345 277.085 99.5025C277.509 99.3291 277.969 99.2607 278.426 99.3031C278.882 99.3455 279.322 99.4975 279.707 99.7461C279.738 99.7672 279.765 99.7944 279.786 99.8259C279.806 99.8574 279.82 99.8927 279.827 99.9297C279.834 99.9667 279.833 100.005 279.825 100.042C279.817 100.078 279.802 100.113 279.78 100.144C279.739 100.191 279.686 100.224 279.626 100.241Z" fill="#263238"/>
<path d="M270.913 98.6174C270.87 98.6069 270.831 98.5844 270.8 98.5524C270.773 98.526 270.751 98.4944 270.737 98.4595C270.722 98.4247 270.714 98.3873 270.714 98.3494C270.714 98.3116 270.722 98.2742 270.737 98.2394C270.751 98.2045 270.773 98.1729 270.8 98.1464C271.111 97.7974 271.498 97.5249 271.932 97.3503C272.366 97.1756 272.834 97.1035 273.301 97.1396C273.338 97.1453 273.374 97.1587 273.406 97.1789C273.438 97.199 273.465 97.2255 273.487 97.2567C273.508 97.2879 273.522 97.3232 273.53 97.3603C273.537 97.3974 273.536 97.4356 273.528 97.4725C273.511 97.5477 273.466 97.6139 273.404 97.6588C273.341 97.7036 273.264 97.724 273.187 97.7161C272.818 97.6928 272.449 97.7539 272.107 97.8946C271.765 98.0352 271.459 98.2519 271.214 98.5281C271.177 98.5692 271.129 98.5993 271.076 98.615C271.023 98.6308 270.967 98.6316 270.913 98.6174Z" fill="#263238"/>
<path d="M301.461 131.804L293.016 129.555C293.016 129.555 284.734 149.944 281.802 151.267C277.823 153.086 267.747 159.387 263.459 162.368C263.224 163.383 263.41 166.07 263.946 166.809C271.254 165.477 285.245 160.094 288.168 157.357C294.835 151.113 301.461 131.804 301.461 131.804Z" fill="#E58A7B"/>
<path d="M295.566 332.839C295.154 332.871 294.743 332.759 294.404 332.522C294.3 332.428 294.222 332.308 294.178 332.174C294.133 332.04 294.125 331.897 294.153 331.759C294.158 331.673 294.186 331.589 294.235 331.518C294.283 331.446 294.35 331.389 294.429 331.353C295.111 331.004 297.019 332.214 297.238 332.352C297.262 332.366 297.281 332.389 297.291 332.415C297.302 332.442 297.303 332.471 297.295 332.498C297.288 332.526 297.274 332.552 297.254 332.574C297.234 332.595 297.209 332.611 297.182 332.62C296.652 332.75 296.111 332.823 295.566 332.839ZM294.754 331.572C294.692 331.558 294.628 331.558 294.567 331.572C294.536 331.588 294.51 331.612 294.493 331.643C294.475 331.673 294.467 331.708 294.469 331.743C294.448 331.837 294.451 331.936 294.48 332.028C294.508 332.121 294.561 332.204 294.632 332.27C294.949 332.555 295.744 332.587 296.792 332.384C296.168 331.973 295.466 331.697 294.729 331.572H294.754Z" fill="#407BFF"/>
<path d="M297.141 332.62C297.12 332.626 297.097 332.626 297.076 332.62C296.467 332.279 295.322 330.939 295.493 330.257C295.518 330.149 295.579 330.052 295.666 329.983C295.753 329.914 295.861 329.876 295.972 329.875C296.081 329.86 296.191 329.87 296.297 329.902C296.402 329.934 296.499 329.989 296.581 330.062C297.255 330.638 297.295 332.408 297.295 332.498C297.299 332.524 297.294 332.552 297.281 332.575C297.268 332.599 297.247 332.617 297.222 332.628C297.195 332.633 297.167 332.63 297.141 332.62ZM296.053 330.143H295.996C295.809 330.143 295.785 330.249 295.777 330.289C295.679 330.687 296.402 331.702 297.003 332.181C297 331.495 296.788 330.826 296.394 330.265C296.3 330.183 296.178 330.139 296.053 330.143Z" fill="#407BFF"/>
<path d="M274.007 331.824C273.51 331.997 272.969 331.997 272.472 331.824C272.359 331.763 272.264 331.674 272.194 331.566C272.125 331.458 272.084 331.335 272.074 331.207C272.064 331.126 272.074 331.045 272.104 330.97C272.134 330.894 272.183 330.828 272.245 330.776C272.895 330.192 275.55 330.776 275.85 330.89C275.879 330.897 275.904 330.914 275.922 330.938C275.939 330.961 275.949 330.99 275.948 331.02C275.949 331.05 275.941 331.081 275.925 331.107C275.909 331.133 275.886 331.153 275.858 331.166C275.26 331.436 274.641 331.656 274.007 331.824ZM272.683 330.858C272.591 330.876 272.504 330.918 272.432 330.979C272.406 330.999 272.386 331.025 272.375 331.055C272.363 331.085 272.36 331.118 272.367 331.15C272.372 331.235 272.399 331.318 272.444 331.39C272.489 331.462 272.552 331.522 272.627 331.564C273.057 331.791 274.056 331.613 275.347 331.069C274.477 330.849 273.577 330.778 272.683 330.858Z" fill="#407BFF"/>
<path d="M275.834 331.166H275.769C274.957 331.02 273.333 330.086 273.284 329.388C273.284 329.225 273.357 328.998 273.747 328.868C273.879 328.821 274.019 328.801 274.158 328.81C274.298 328.818 274.434 328.855 274.559 328.917C275.436 329.347 275.899 330.906 275.923 330.979C275.929 331.004 275.928 331.03 275.921 331.054C275.914 331.078 275.901 331.1 275.883 331.117C275.871 331.137 275.854 331.154 275.834 331.166ZM273.91 329.112H273.828C273.577 329.201 273.577 329.307 273.577 329.339C273.577 329.761 274.754 330.533 275.574 330.793C275.385 330.14 274.986 329.569 274.437 329.169C274.274 329.086 274.087 329.065 273.91 329.112Z" fill="#407BFF"/>
<path d="M264.149 161.888L255.68 165.786L254.698 168.222L257.824 170.325C257.824 170.325 263.67 169.692 265.335 165.932L264.149 161.888Z" fill="#E58A7B"/>
<path d="M264.507 166.947C264.317 165.32 263.78 163.752 262.931 162.351L264.271 161.344C265.279 162.959 265.922 164.774 266.155 166.663L264.507 166.947Z" fill="#263238"/>
<path d="M265.952 163.041C266.131 163.323 266.219 163.653 266.204 163.986C266.189 164.32 266.071 164.64 265.868 164.905C265.664 165.169 265.384 165.364 265.065 165.463C264.746 165.563 264.405 165.561 264.087 165.46C263.769 165.358 263.49 165.161 263.289 164.895C263.087 164.63 262.971 164.308 262.959 163.975C262.946 163.641 263.036 163.312 263.217 163.032C263.399 162.751 263.662 162.534 263.971 162.408C264.318 162.231 264.721 162.199 265.092 162.317C265.463 162.436 265.772 162.696 265.952 163.041Z" fill="#263238"/>
<path d="M249.956 168.937L251.084 170.073L258.685 166.825L255.68 165.786L249.956 168.937Z" fill="#E58A7B"/>
<path opacity="0.2" d="M282.59 317.354C282.639 317.354 283.743 320.456 283.743 320.456L272.505 325.182L270.735 321.885L282.59 317.354Z" fill="black"/>
<path opacity="0.2" d="M305.561 321.292C305.61 321.292 305.935 324.418 305.935 324.418H293.625L292.748 320.829L305.561 321.292Z" fill="black"/>
<path d="M303.661 129.465C305.894 136.668 297.165 146.517 297.165 146.517L285.107 141.597C286.536 137.434 288.184 133.349 290.044 129.36C293.747 121.378 301.404 122.198 303.661 129.465Z" fill="#407BFF"/>
<path opacity="0.2" d="M303.661 129.465C305.894 136.668 297.165 146.517 297.165 146.517L285.107 141.597C286.536 137.434 288.184 133.349 290.044 129.36C293.747 121.378 301.404 122.198 303.661 129.465Z" fill="black"/>
<path d="M183.843 57.3029H178.654V58.1392H183.843V57.3029Z" fill="#407BFF"/>
<path d="M251.01 90.4053L250.382 104.341L251.217 104.379L251.845 90.4429L251.01 90.4053Z" fill="#407BFF"/>
<path d="M249.395 61.0543H153.579L144.664 260.579H240.48L249.395 61.0543Z" fill="#407BFF"/>
<path opacity="0.56" d="M246.537 63.7989H150.721L141.805 263.324H237.621L246.537 63.7989Z" fill="#FAFAFA"/>
<path opacity="0.07" d="M243.679 66.5353H147.863L138.939 266.06H234.755L243.679 66.5353Z" fill="#407BFF"/>
<path d="M232.774 153.557H150.989L150.307 168.823H232.092L232.774 153.557Z" fill="white"/>
<path d="M195.966 142.417H151.484L151.184 149.246H195.665L195.966 142.417Z" fill="#407BFF"/>
<path d="M230.93 194.758H149.146L148.464 210.024H230.248L230.93 194.758Z" fill="white"/>
<path opacity="0.47" d="M215.933 230.641H160.936L160.116 248.935H215.113L215.933 230.641Z" fill="#407BFF"/>
<path d="M212.254 251.777H157.258C157.234 251.783 157.209 251.783 157.185 251.777C157.177 251.753 157.177 251.727 157.185 251.704L157.997 233.401C157.997 233.389 157.999 233.377 158.004 233.365C158.009 233.354 158.016 233.343 158.026 233.335C158.035 233.327 158.046 233.32 158.057 233.316C158.069 233.312 158.082 233.311 158.094 233.312H213.091C213.101 233.307 213.112 233.304 213.123 233.304C213.135 233.304 213.146 233.307 213.156 233.312C213.161 233.322 213.164 233.333 213.164 233.344C213.164 233.356 213.161 233.367 213.156 233.377L212.36 251.72C212.35 251.739 212.335 251.755 212.316 251.765C212.297 251.775 212.276 251.779 212.254 251.777ZM157.355 251.582H212.157L212.969 233.474H158.167L157.355 251.582Z" fill="white"/>
<path d="M186.36 183.618H149.641L149.341 190.455H186.051L186.36 183.618Z" fill="#407BFF"/>
<path d="M214.885 104.245C214.675 108.687 213.096 112.956 210.363 116.465C208.339 119.116 205.736 121.267 202.752 122.755C199.768 124.243 196.482 125.027 193.148 125.048C190.454 125.069 187.783 124.537 185.302 123.487C182.821 122.436 180.581 120.889 178.72 118.94C176.859 116.991 175.417 114.682 174.483 112.154C173.548 109.627 173.141 106.935 173.287 104.245C173.572 98.6613 175.98 93.398 180.017 89.531C184.055 85.6641 189.417 83.4856 195.008 83.4411C197.704 83.416 200.377 83.9441 202.861 84.9927C205.346 86.0414 207.589 87.5883 209.452 89.538C211.315 91.4877 212.758 93.7987 213.693 96.3282C214.627 98.8577 215.033 101.552 214.885 104.245Z" fill="white"/>
<path d="M216.842 87.7935C216.789 88.9748 216.369 90.1102 215.641 91.0415C215.101 91.7454 214.408 92.3169 213.615 92.7124C212.821 93.1078 211.948 93.3167 211.061 93.3232C210.202 93.3284 209.354 93.1232 208.593 92.7254C207.831 92.3277 207.179 91.7495 206.692 91.0415C206.048 90.0846 205.729 88.9457 205.783 87.7935C205.861 86.3111 206.502 84.9145 207.575 83.8884C208.648 82.8624 210.072 82.2843 211.556 82.2719C212.272 82.2653 212.982 82.4055 213.642 82.6837C214.302 82.962 214.898 83.3724 215.393 83.8897C215.888 84.407 216.272 85.0202 216.522 85.6916C216.771 86.363 216.88 87.0783 216.842 87.7935Z" fill="#407BFF"/>
<path d="M159.799 161.19C159.76 161.844 159.475 162.46 159 162.912C158.525 163.364 157.897 163.619 157.241 163.626C156.925 163.63 156.611 163.569 156.319 163.446C156.027 163.324 155.764 163.143 155.544 162.915C155.325 162.686 155.155 162.416 155.045 162.119C154.935 161.822 154.886 161.506 154.903 161.19C154.938 160.534 155.223 159.917 155.698 159.464C156.173 159.011 156.804 158.757 157.461 158.754C157.777 158.752 158.09 158.814 158.381 158.936C158.673 159.059 158.936 159.24 159.155 159.468C159.374 159.696 159.544 159.967 159.655 160.263C159.766 160.559 159.815 160.874 159.799 161.19Z" fill="#263238"/>
<path d="M170.745 161.19C170.708 161.845 170.423 162.461 169.948 162.914C169.473 163.366 168.843 163.621 168.187 163.626C167.871 163.629 167.558 163.567 167.268 163.444C166.977 163.321 166.714 163.14 166.496 162.912C166.277 162.684 166.108 162.413 165.998 162.117C165.888 161.821 165.84 161.505 165.857 161.19C165.892 160.536 166.175 159.92 166.649 159.467C167.123 159.014 167.751 158.759 168.406 158.754C168.723 158.75 169.037 158.812 169.329 158.934C169.621 159.056 169.884 159.237 170.103 159.466C170.323 159.694 170.493 159.965 170.603 160.261C170.713 160.558 170.762 160.874 170.745 161.19Z" fill="#263238"/>
<path d="M181.699 161.19C181.662 161.845 181.377 162.461 180.902 162.914C180.427 163.366 179.797 163.621 179.141 163.626C178.825 163.629 178.512 163.567 178.22 163.444C177.929 163.321 177.666 163.14 177.447 162.912C177.228 162.684 177.058 162.414 176.947 162.118C176.836 161.822 176.787 161.506 176.803 161.19C176.84 160.535 177.125 159.919 177.6 159.466C178.075 159.014 178.704 158.759 179.36 158.754C179.677 158.75 179.991 158.812 180.283 158.934C180.574 159.056 180.838 159.237 181.057 159.466C181.277 159.694 181.447 159.965 181.557 160.261C181.667 160.558 181.716 160.874 181.699 161.19Z" fill="#263238"/>
<path d="M157.956 202.391C157.917 203.045 157.631 203.661 157.157 204.113C156.682 204.565 156.054 204.82 155.398 204.827C155.082 204.83 154.769 204.768 154.477 204.645C154.186 204.522 153.923 204.341 153.704 204.113C153.485 203.885 153.315 203.615 153.204 203.319C153.093 203.022 153.044 202.707 153.06 202.391C153.097 201.736 153.382 201.12 153.857 200.667C154.332 200.215 154.961 199.96 155.617 199.955C155.934 199.952 156.247 200.014 156.538 200.137C156.83 200.26 157.093 200.441 157.312 200.669C157.531 200.897 157.701 201.167 157.812 201.464C157.922 201.76 157.971 202.075 157.956 202.391Z" fill="#263238"/>
<path d="M168.902 202.391C168.865 203.045 168.581 203.66 168.108 204.112C167.634 204.564 167.007 204.82 166.352 204.827C166.036 204.831 165.722 204.77 165.43 204.647C165.138 204.525 164.874 204.344 164.655 204.116C164.436 203.887 164.266 203.616 164.156 203.32C164.045 203.023 163.997 202.707 164.014 202.391C164.051 201.736 164.336 201.12 164.811 200.667C165.286 200.215 165.915 199.96 166.571 199.955C166.887 199.952 167.2 200.014 167.491 200.137C167.782 200.26 168.045 200.441 168.263 200.669C168.481 200.898 168.651 201.168 168.76 201.464C168.87 201.76 168.918 202.076 168.902 202.391Z" fill="#263238"/>
<path d="M179.88 202.391C179.843 203.046 179.558 203.662 179.083 204.115C178.608 204.567 177.978 204.822 177.322 204.827C177.006 204.828 176.694 204.766 176.403 204.643C176.112 204.519 175.849 204.338 175.631 204.111C175.412 203.883 175.242 203.613 175.131 203.317C175.019 203.022 174.969 202.707 174.984 202.391C175.023 201.737 175.308 201.122 175.783 200.669C176.258 200.217 176.886 199.962 177.541 199.955C177.858 199.951 178.172 200.012 178.464 200.135C178.756 200.257 179.019 200.438 179.238 200.666C179.458 200.895 179.628 201.166 179.738 201.462C179.848 201.759 179.897 202.075 179.88 202.391Z" fill="#263238"/>
<path d="M190.81 202.391C190.771 203.045 190.485 203.661 190.01 204.113C189.536 204.565 188.907 204.82 188.252 204.827C187.936 204.828 187.623 204.766 187.332 204.642C187.042 204.519 186.779 204.338 186.56 204.111C186.341 203.883 186.171 203.613 186.06 203.317C185.949 203.022 185.899 202.707 185.913 202.391C185.952 201.737 186.238 201.121 186.712 200.669C187.187 200.217 187.816 199.962 188.471 199.955C188.787 199.952 189.1 200.014 189.392 200.137C189.683 200.26 189.946 200.441 190.165 200.669C190.384 200.897 190.554 201.167 190.665 201.464C190.776 201.76 190.825 202.075 190.81 202.391Z" fill="#263238"/>
<path d="M201.804 202.391C201.765 203.045 201.479 203.661 201.005 204.113C200.53 204.565 199.902 204.82 199.246 204.827C198.93 204.831 198.616 204.77 198.324 204.647C198.032 204.525 197.768 204.344 197.549 204.116C197.33 203.887 197.16 203.616 197.05 203.32C196.939 203.023 196.891 202.707 196.908 202.391C196.945 201.736 197.23 201.12 197.705 200.667C198.18 200.215 198.809 199.96 199.465 199.955C199.782 199.952 200.095 200.014 200.386 200.137C200.678 200.26 200.941 200.441 201.16 200.669C201.379 200.897 201.549 201.167 201.66 201.464C201.77 201.76 201.819 202.075 201.804 202.391Z" fill="#263238"/>
<path d="M200.142 103.161C203.541 99.8375 203.721 94.5102 200.545 91.2623C197.369 88.0143 192.039 88.0756 188.64 91.3992C185.241 94.7227 185.061 100.05 188.237 103.298C191.414 106.546 196.744 106.485 200.142 103.161Z" fill="#407BFF"/>
<path d="M210.362 116.465C208.339 119.116 205.736 121.267 202.752 122.755C199.768 124.243 196.482 125.027 193.148 125.048C189.915 125.075 186.724 124.307 183.858 122.81C180.992 121.313 178.538 119.134 176.713 116.465C180.66 112.535 186.904 109.969 193.822 109.969C200.74 109.969 206.765 112.535 210.362 116.465Z" fill="#407BFF"/>
<path opacity="0.1" d="M200.142 103.161C203.541 99.8375 203.721 94.5102 200.545 91.2623C197.369 88.0143 192.039 88.0756 188.64 91.3992C185.241 94.7227 185.061 100.05 188.237 103.298C191.414 106.546 196.744 106.485 200.142 103.161Z" fill="white"/>
<path opacity="0.1" d="M210.362 116.465C208.339 119.116 205.736 121.267 202.752 122.755C199.768 124.243 196.482 125.027 193.148 125.048C189.915 125.075 186.724 124.307 183.858 122.81C180.992 121.313 178.538 119.134 176.713 116.465C180.66 112.535 186.904 109.969 193.822 109.969C200.74 109.969 206.765 112.535 210.362 116.465Z" fill="white"/>
<path d="M90.8929 172.501C90.1215 174.19 89.3095 176.05 88.603 177.852C87.8966 179.655 87.1739 181.514 86.5487 183.366C85.2721 187.014 84.2998 190.762 83.6417 194.571L83.4631 195.765C83.446 195.97 83.4653 196.176 83.5199 196.374C83.7116 197.047 84.0134 197.684 84.4131 198.258C85.4559 199.745 86.6655 201.107 88.0184 202.318C89.4448 203.645 90.941 204.894 92.5006 206.061C94.0597 207.263 95.6999 208.432 97.3158 209.537L95.7974 212.387C91.9389 210.706 88.2765 208.606 84.876 206.126C83.0617 204.803 81.4244 203.253 80.004 201.514C79.162 200.479 78.5054 199.306 78.0633 198.047C77.8062 197.26 77.6747 196.438 77.6735 195.611C77.6735 195.416 77.6735 195.132 77.6735 194.994V194.596L77.7547 193.784C78.2202 189.553 79.1098 185.38 80.41 181.328C81.0433 179.33 81.7173 177.341 82.4887 175.4C83.2601 173.459 84.0558 171.559 85.0384 169.586L90.8929 172.501Z" fill="#E58A7B"/>
<path d="M96.1709 209.033L101.912 206.126L100.426 212.427C100.426 212.427 96.4876 213.532 94.6606 211.615L96.1709 209.033Z" fill="#E58A7B"/>
<path d="M107.165 207.157L105.639 212.37L100.426 212.427L101.912 206.126L107.165 207.157Z" fill="#E58A7B"/>
<path d="M115.269 142.1C115.576 143.225 116.004 144.314 116.544 145.348C116.386 145.527 116.183 145.66 115.956 145.733C115.728 145.806 115.485 145.816 115.253 145.762L115.269 142.1Z" fill="#DF5753"/>
<path d="M115.099 142.149C115.435 142.149 115.708 141.731 115.708 141.215C115.708 140.699 115.435 140.281 115.099 140.281C114.762 140.281 114.49 140.699 114.49 141.215C114.49 141.731 114.762 142.149 115.099 142.149Z" fill="#263238"/>
<path d="M114.92 140.314L116.154 139.964C116.154 139.964 115.553 140.923 114.92 140.314Z" fill="#263238"/>
<path d="M99.4108 148.06C100.15 151.836 100.889 158.762 98.2415 161.288C98.2415 161.288 99.2809 165.12 106.305 165.12C114.027 165.12 109.991 161.288 109.991 161.288C105.777 160.281 105.882 157.154 106.621 154.215L99.4108 148.06Z" fill="#E58A7B"/>
<path d="M97.3564 139.453C97.7462 145.762 97.7787 148.442 100.962 151.682C105.761 156.554 113.426 154.702 114.928 148.434C116.284 142.75 115.423 133.395 109.244 130.886C107.888 130.328 106.411 130.124 104.954 130.295C103.497 130.466 102.108 131.006 100.918 131.864C99.7277 132.721 98.776 133.868 98.1528 135.196C97.5296 136.524 97.2555 137.989 97.3564 139.453Z" fill="#E58A7B"/>
<path d="M97.9816 132.356C94.8148 133.509 90.5924 132.648 92.2489 142.417C94.0028 152.762 91.307 156.164 91.307 156.164C91.307 156.164 103.316 158.722 115.578 156.01C115.578 156.01 111.834 149.465 112.882 144.642C114.222 138.552 113.166 136.302 113.166 136.302C113.166 136.302 102.431 130.732 97.9816 132.356Z" fill="#263238"/>
<path d="M111.38 142.741C111.383 143.941 111.727 145.115 112.37 146.128C113.231 147.443 114.246 146.94 114.498 145.543C114.725 144.317 114.555 142.149 113.458 141.304C112.362 140.46 111.396 141.288 111.38 142.741Z" fill="#E58A7B"/>
<path d="M95.229 133.42C94.3196 130.862 98.6556 126.924 107.831 128.548C117.007 130.172 117.405 137.813 117.405 137.813L115.553 135.604L115.635 137.926L106.207 139.737L95.229 133.42Z" fill="#263238"/>
<path d="M96.0085 161.718C95.9543 161.347 96.0471 160.97 96.267 160.667C96.487 160.363 96.8167 160.158 97.1859 160.094C100.044 159.623 106.54 158.665 109.804 159.12C112.24 159.461 112.874 160.873 112.979 162.035C112.996 162.238 112.969 162.442 112.9 162.634C112.83 162.826 112.721 163.001 112.579 163.147C112.436 163.294 112.265 163.408 112.075 163.482C111.884 163.556 111.681 163.588 111.477 163.577L97.3645 162.944C97.0318 162.927 96.7151 162.796 96.468 162.573C96.2209 162.349 96.0586 162.047 96.0085 161.718Z" fill="#407BFF"/>
<path opacity="0.6" d="M96.0085 161.718C95.9543 161.347 96.0471 160.97 96.267 160.667C96.487 160.363 96.8167 160.158 97.1859 160.094C100.044 159.623 106.54 158.665 109.804 159.12C112.24 159.461 112.874 160.873 112.979 162.035C112.996 162.238 112.969 162.442 112.9 162.634C112.83 162.826 112.721 163.001 112.579 163.147C112.436 163.294 112.265 163.408 112.075 163.482C111.884 163.556 111.681 163.588 111.477 163.577L97.3645 162.944C97.0318 162.927 96.7151 162.796 96.468 162.573C96.2209 162.349 96.0586 162.047 96.0085 161.718Z" fill="black"/>
<path d="M104.169 303.574L109.407 307.212L118.168 295.333L112.931 291.703L104.169 303.574Z" fill="#E58A7B"/>
<path d="M91.9566 303.339L97.4863 306.489L105.241 293.928L99.7112 290.777L91.9566 303.339Z" fill="#E58A7B"/>
<path d="M118.16 295.333L113.645 301.455L108.408 297.825L112.922 291.703L118.16 295.333Z" fill="#CF6F64"/>
<path d="M99.7031 290.777L105.241 293.936L101.246 300.408L95.7081 297.249L99.7031 290.777Z" fill="#CF6F64"/>
<path d="M108.586 201.376C108.586 201.376 129.033 227.141 125.192 251.785C122.098 271.687 104.153 298.637 104.153 298.637L95.7162 294.447C101.663 282.532 106.738 270.2 110.901 257.55C112.184 253.623 112.559 249.455 111.996 245.362C111.434 241.268 109.948 237.356 107.653 233.921C97.2915 218.793 80.6942 227.798 91.8592 201.376H108.586Z" fill="#407BFF"/>
<path opacity="0.6" d="M108.586 201.376C108.586 201.376 129.033 227.141 125.192 251.785C122.098 271.687 104.153 298.637 104.153 298.637L95.7162 294.447C101.663 282.532 106.738 270.2 110.901 257.55C112.184 253.623 112.559 249.455 111.996 245.362C111.434 241.268 109.948 237.356 107.653 233.921C97.2915 218.793 80.6942 227.798 91.8592 201.376H108.586Z" fill="black"/>
<path opacity="0.4" d="M118.615 217.925L115.643 214.969C115.643 215.204 121.4 250.746 123.016 260.733C123.969 257.816 124.699 254.83 125.2 251.801C127.1 239.711 123.129 227.36 118.615 217.925Z" fill="black"/>
<path d="M117.713 201.376C117.713 201.376 142.333 233.759 143.031 253.173C143.608 269.413 116.235 300.878 116.235 300.878L108.278 295.73C108.278 295.73 124.299 273.384 128.334 255.13C126.775 237.039 93.808 201.376 93.808 201.376H117.713Z" fill="#407BFF"/>
<path opacity="0.6" d="M117.713 201.376C117.713 201.376 142.333 233.759 143.031 253.173C143.608 269.413 116.235 300.878 116.235 300.878L108.278 295.73C108.278 295.73 124.299 273.384 128.334 255.13C126.775 237.039 93.808 201.376 93.808 201.376H117.713Z" fill="black"/>
<path d="M87.2551 162.733C84.6243 163.358 82.0989 172.924 82.0989 172.924L92.387 179.793C92.387 179.793 95.8136 172.225 94.6119 168.912C93.3695 165.461 90.56 161.945 87.2551 162.733Z" fill="#407BFF"/>
<path opacity="0.2" d="M89.2689 168.896L88.5543 177.235L92.3788 179.801C93.4349 177.424 94.2167 174.934 94.7093 172.379L89.2689 168.896Z" fill="black"/>
<path d="M120.758 162.92C120.758 162.92 123.795 163.983 117.713 201.368H91.8429C92.2814 190.812 92.2895 184.316 87.2551 162.733C90.8775 161.986 94.5493 161.503 98.2415 161.288C102.153 161.007 106.08 161.007 109.991 161.288C115.042 161.75 120.758 162.92 120.758 162.92Z" fill="#407BFF"/>
<path d="M123.389 168.896C123.974 170.52 124.591 172.266 125.241 173.947C125.89 175.627 126.507 177.357 127.165 179.062L129.154 184.162L129.658 185.436L129.918 186.07L130.039 186.386C130.039 186.443 130.039 186.443 130.039 186.435C129.891 186.226 129.697 186.054 129.471 185.932C129.15 185.743 128.788 185.634 128.415 185.615C128.106 185.605 127.798 185.664 127.514 185.786C127.141 185.956 127.141 186.029 127.149 186.021C127.216 185.967 127.276 185.904 127.327 185.834C127.777 185.244 128.166 184.61 128.489 183.942C128.87 183.195 129.236 182.4 129.601 181.596C130.316 179.972 130.973 178.291 131.631 176.594C132.289 174.897 132.914 173.183 133.523 171.454L135.374 166.273L138.5 167.085C137.883 170.788 137.088 174.393 136.129 178.063C135.667 179.89 135.123 181.701 134.505 183.528C134.197 184.446 133.856 185.355 133.466 186.289C133.06 187.303 132.56 188.276 131.972 189.196C131.756 189.506 131.517 189.799 131.257 190.073C130.843 190.521 130.34 190.878 129.78 191.12C129.283 191.334 128.745 191.434 128.204 191.413C127.599 191.39 127.01 191.214 126.491 190.901C125.879 190.519 125.372 189.992 125.013 189.367C124.891 189.155 124.786 188.944 124.713 188.79L124.558 188.481L124.25 187.848L123.633 186.589C122.821 184.901 122.009 183.195 121.302 181.482C120.596 179.769 119.849 178.031 119.151 176.285C118.452 174.539 117.827 172.794 117.234 170.91L123.389 168.896Z" fill="#E58A7B"/>
<path d="M120.758 162.92C123.868 163.659 127.368 172.85 127.368 172.85L118.119 180.719C118.119 180.719 112.135 170.699 113.345 167.394C114.603 163.951 116.698 161.953 120.758 162.92Z" fill="#407BFF"/>
<path d="M136.844 163.366L140.092 160.654L142.349 164.17L140.685 167.101C140.685 167.101 138.038 169.537 135.699 168.295C135.328 167.461 135.239 166.528 135.445 165.639C135.652 164.749 136.143 163.952 136.844 163.366Z" fill="#E58A7B"/>
<path d="M145.955 160.662L145.711 161.547L140.571 162.408L140.068 160.654L145.955 160.662Z" fill="#E58A7B"/>
<path d="M116.869 301.293L107.596 295.3L109.26 292.409L119.678 298.816L116.869 301.293Z" fill="#407BFF"/>
<path d="M101.116 306.067C100.302 305.968 99.5206 305.691 98.8261 305.255C98.7975 305.245 98.7726 305.227 98.7551 305.202C98.7375 305.177 98.728 305.147 98.728 305.117C98.728 305.087 98.7375 305.057 98.7551 305.032C98.7726 305.008 98.7975 304.989 98.8261 304.979C99.0779 304.898 101.262 304.224 101.896 304.744C101.967 304.803 102.021 304.88 102.052 304.967C102.084 305.054 102.091 305.148 102.074 305.239C102.063 305.385 102.014 305.526 101.933 305.648C101.852 305.77 101.742 305.87 101.611 305.937C101.459 306.02 101.289 306.065 101.116 306.067ZM99.289 305.174C100.304 305.694 101.116 305.88 101.506 305.686C101.591 305.639 101.662 305.571 101.713 305.488C101.764 305.406 101.794 305.312 101.798 305.215C101.798 305.085 101.798 305.028 101.725 304.995C101.384 304.719 100.166 304.93 99.2727 305.174H99.289Z" fill="#263238"/>
<path d="M98.883 305.312C98.8402 305.311 98.7993 305.294 98.7693 305.263C98.7572 305.241 98.7509 305.216 98.7509 305.19C98.7509 305.165 98.7572 305.14 98.7693 305.117C98.7693 305.044 99.2971 303.282 100.125 302.884C100.231 302.836 100.346 302.811 100.462 302.811C100.579 302.811 100.694 302.836 100.799 302.884C100.913 302.92 101.012 302.993 101.08 303.092C101.147 303.19 101.18 303.309 101.173 303.428C101.116 304.159 99.63 305.166 98.948 305.336L98.883 305.312ZM100.458 303.095C100.379 303.098 100.302 303.117 100.231 303.152C99.7275 303.396 99.3134 304.346 99.1104 304.922C99.8249 304.622 100.807 303.826 100.84 303.379C100.84 303.306 100.84 303.217 100.653 303.136C100.592 303.103 100.526 303.081 100.458 303.071V303.095Z" fill="#263238"/>
<path d="M112.703 309.575C111.786 309.575 110.511 308.398 109.813 307.675C109.795 307.65 109.785 307.62 109.785 307.59C109.785 307.559 109.795 307.529 109.813 307.504C109.829 307.478 109.851 307.457 109.879 307.443C109.906 307.428 109.936 307.422 109.967 307.423C110.292 307.423 113.109 307.845 113.507 308.641C113.549 308.713 113.572 308.794 113.572 308.877C113.572 308.96 113.549 309.041 113.507 309.112C113.447 309.236 113.357 309.343 113.245 309.422C113.133 309.502 113.002 309.552 112.866 309.567L112.703 309.575ZM110.348 307.789C111.372 308.779 112.273 309.331 112.784 309.266C112.874 309.255 112.959 309.221 113.033 309.169C113.107 309.116 113.166 309.047 113.207 308.966C113.225 308.938 113.235 308.906 113.235 308.873C113.235 308.839 113.225 308.807 113.207 308.779C112.996 308.341 111.493 307.967 110.348 307.789Z" fill="#263238"/>
<path d="M110.438 307.748C110.256 307.753 110.073 307.74 109.894 307.707C109.869 307.704 109.845 307.693 109.825 307.678C109.805 307.662 109.79 307.642 109.78 307.618C109.768 307.594 109.762 307.568 109.762 307.541C109.762 307.514 109.768 307.488 109.78 307.464C109.829 307.407 110.925 306.083 111.964 305.994C112.259 305.971 112.55 306.064 112.776 306.254C113.093 306.53 113.077 306.774 112.996 306.928C112.793 307.48 111.388 307.748 110.438 307.748ZM110.227 307.448C111.136 307.496 112.59 307.196 112.776 306.798C112.776 306.798 112.841 306.668 112.63 306.489C112.546 306.416 112.448 306.361 112.342 306.328C112.236 306.294 112.124 306.283 112.013 306.295C111.313 306.49 110.689 306.895 110.227 307.456V307.448Z" fill="#263238"/>
<path d="M99.1022 304.435L92.2165 302.486C92.0978 302.45 91.97 302.459 91.8576 302.512C91.7452 302.564 91.6562 302.656 91.6075 302.77L89.2852 307.992C89.2306 308.125 89.205 308.269 89.21 308.413C89.215 308.558 89.2505 308.699 89.3142 308.829C89.3779 308.959 89.4682 309.073 89.5794 309.165C89.6905 309.258 89.82 309.325 89.9591 309.364C92.3951 309.997 93.5644 310.176 96.5932 311.045C98.4608 311.564 101.124 312.531 103.698 313.262C106.272 313.992 107.133 311.483 106.134 310.947C101.619 308.56 101.262 306.887 100.028 305.101C99.8069 304.777 99.4793 304.542 99.1022 304.435Z" fill="#407BFF"/>
<path d="M109.999 306.725L104.12 302.665C104.021 302.592 103.898 302.559 103.775 302.571C103.652 302.583 103.538 302.639 103.455 302.73L99.557 306.92C99.462 307.028 99.3911 307.155 99.3491 307.293C99.3071 307.431 99.295 307.576 99.3134 307.719C99.3318 307.862 99.3805 307.999 99.4561 308.122C99.5317 308.244 99.6325 308.349 99.7518 308.43C101.822 309.819 102.894 310.379 105.485 312.173C107.109 313.278 110.251 315.73 112.443 317.257C114.636 318.783 116.268 316.688 115.488 315.86C111.997 312.133 111.234 309.794 110.657 307.675C110.557 307.29 110.324 306.954 109.999 306.725Z" fill="#407BFF"/>
<path d="M105.233 299.173L94.6362 293.903L95.7324 291.029L107.052 296.583L105.233 299.173Z" fill="#407BFF"/>
<path d="M91.4532 199.849L90.56 202.188C90.4707 202.367 90.6818 202.553 90.9822 202.553H117.843C118.079 202.553 118.274 202.44 118.29 202.294L118.517 199.971C118.517 199.817 118.33 199.679 118.079 199.679H91.8754C91.7965 199.671 91.717 199.683 91.6435 199.713C91.5701 199.742 91.5048 199.789 91.4532 199.849Z" fill="#407BFF"/>
<path opacity="0.4" d="M91.4532 199.849L90.56 202.188C90.4707 202.367 90.6818 202.553 90.9822 202.553H117.843C118.079 202.553 118.274 202.44 118.29 202.294L118.517 199.971C118.517 199.817 118.33 199.679 118.079 199.679H91.8754C91.7965 199.671 91.717 199.683 91.6435 199.713C91.5701 199.742 91.5048 199.789 91.4532 199.849Z" fill="white"/>
<path d="M95.6837 202.781H94.9773C94.8392 202.781 94.7337 202.708 94.7418 202.618L95.0747 199.606C95.0747 199.525 95.2046 199.452 95.3427 199.452H96.0491C96.1871 199.452 96.2927 199.525 96.2846 199.606L95.9517 202.618C95.9435 202.708 95.8217 202.781 95.6837 202.781Z" fill="#407BFF"/>
<path d="M112.249 202.781H111.55C111.412 202.781 111.307 202.708 111.315 202.618L111.64 199.606C111.64 199.525 111.778 199.452 111.916 199.452H112.614C112.752 199.452 112.866 199.525 112.849 199.606L112.525 202.618C112.484 202.708 112.395 202.781 112.249 202.781Z" fill="#407BFF"/>
<g style="mix-blend-mode:multiply">
<path d="M95.0666 340.293C107.081 340.293 116.82 339.588 116.82 338.718C116.82 337.848 107.081 337.142 95.0666 337.142C83.0525 337.142 73.3131 337.848 73.3131 338.718C73.3131 339.588 83.0525 340.293 95.0666 340.293Z" fill="#F5F5F5"/>
</g>
<path d="M108.318 336.493C104.47 335.372 100.198 333.935 97.6163 332.433C97.5432 332.384 97.462 332.36 97.3889 332.319V314.894H105.176C105.767 314.859 106.323 314.599 106.729 314.168C107.135 313.737 107.361 313.168 107.361 312.575C107.361 311.983 107.135 311.413 106.729 310.982C106.323 310.552 105.767 310.292 105.176 310.257H97.4295V230.827H92.7524V310.257H85.014C84.698 310.238 84.3816 310.284 84.0841 310.393C83.7865 310.501 83.5142 310.668 83.2839 310.885C83.0536 311.102 82.87 311.364 82.7446 311.655C82.6191 311.946 82.5544 312.259 82.5544 312.575C82.5544 312.892 82.6191 313.205 82.7446 313.496C82.87 313.786 83.0536 314.048 83.2839 314.265C83.5142 314.482 83.7865 314.65 84.0841 314.758C84.3816 314.866 84.698 314.912 85.014 314.894H92.7524V332.295C92.6793 332.295 92.6062 332.36 92.5331 332.408C89.9104 333.935 85.6717 335.372 81.8229 336.468C81.5629 336.547 81.3396 336.716 81.1935 336.945C81.0474 337.174 80.9881 337.448 81.0264 337.717C81.0647 337.986 81.198 338.232 81.4022 338.411C81.6064 338.59 81.8679 338.69 82.1395 338.693H108.002C108.261 338.676 108.507 338.569 108.698 338.393C108.888 338.216 109.013 337.979 109.05 337.721C109.087 337.464 109.034 337.201 108.901 336.978C108.768 336.754 108.562 336.583 108.318 336.493Z" fill="#E0E0E0"/>
<path d="M109.512 222.74H80.6374C78.3144 222.74 76.4312 224.623 76.4312 226.946V235.529C76.4312 237.852 78.3144 239.735 80.6374 239.735H109.512C111.835 239.735 113.718 237.852 113.718 235.529V226.946C113.718 224.623 111.835 222.74 109.512 222.74Z" fill="#407BFF"/>
<path d="M80.3694 239.743V241.221C80.3694 242.439 81.6929 243.429 83.3169 243.429H106.865C108.489 243.429 109.813 242.439 109.813 241.221V239.743H80.3694Z" fill="#407BFF"/>
<path opacity="0.3" d="M80.3694 239.743V241.221C80.3694 242.439 81.6929 243.429 83.3169 243.429H106.865C108.489 243.429 109.813 242.439 109.813 241.221V239.743H80.3694Z" fill="white"/>
</svg>
