<svg width="47" height="71" viewBox="0 0 47 71" fill="none" xmlns="http://www.w3.org/2000/svg">
<g clip-path="url(#clip0_0_613)">
<mask id="mask0_0_613" style="mask-type:luminance" maskUnits="userSpaceOnUse" x="4" y="0" width="40" height="40">
<path d="M24 40C35.0457 40 44 31.0457 44 20C44 8.9543 35.0457 0 24 0C12.9543 0 4 8.9543 4 20C4 31.0457 12.9543 40 24 40Z" fill="white"/>
</mask>
<g mask="url(#mask0_0_613)">
<path d="M24 40C35.0457 40 44 31.0457 44 20C44 8.9543 35.0457 0 24 0C12.9543 0 4 8.9543 4 20C4 31.0457 12.9543 40 24 40Z" fill="#1DA1F2"/>
<path fill-rule="evenodd" clip-rule="evenodd" d="M36 12.309C35.1014 12.7073 34.1481 12.9685 33.172 13.084C34.2004 12.4689 34.9699 11.5007 35.337 10.36C34.371 10.9353 33.3138 11.3411 32.211 11.56C31.4686 10.7707 30.4868 10.2481 29.4175 10.073C28.3482 9.89791 27.2509 10.0802 26.2956 10.5915C25.3403 11.1029 24.5802 11.9148 24.1328 12.9018C23.6855 13.8887 23.5759 14.9955 23.821 16.051C21.8626 15.9524 19.9469 15.4428 18.1984 14.5554C16.4499 13.6679 14.9077 12.4225 13.672 10.9C13.0424 11.9847 12.85 13.2685 13.1339 14.4901C13.4178 15.7117 14.1566 16.7791 15.2 17.475C14.4179 17.4505 13.6529 17.2393 12.969 16.859V16.921C12.9696 18.0578 13.363 19.1595 14.0826 20.0395C14.8023 20.9195 15.8039 21.5238 16.918 21.75C16.1928 21.9474 15.432 21.9761 14.694 21.834C15.0086 22.8124 15.6211 23.668 16.4459 24.2812C17.2707 24.8944 18.2664 25.2345 19.294 25.254C17.2275 26.8704 14.6051 27.6031 12 27.292C14.1158 28.6484 16.5577 29.4103 19.0694 29.4977C21.5811 29.585 24.07 28.9946 26.2749 27.7885C28.4798 26.5823 30.3194 24.8048 31.6005 22.6426C32.8816 20.4804 33.5571 18.0132 33.556 15.5C33.556 15.286 33.556 15.074 33.542 14.863C34.5065 14.1644 35.3388 13.2995 36 12.309Z" fill="white"/>
</g>
</g>
<path d="M7.084 55.242V56.278H4.424V65H3.15V56.278H0.476V55.242H7.084ZM18.8722 57.328L16.4782 65H15.1622L13.3142 58.91L11.4662 65H10.1502L7.74222 57.328H9.04422L10.8082 63.768L12.7122 57.328H14.0142L15.8762 63.782L17.6122 57.328H18.8722ZM20.7946 56.082C20.5519 56.082 20.3466 55.998 20.1786 55.83C20.0106 55.662 19.9266 55.4567 19.9266 55.214C19.9266 54.9713 20.0106 54.766 20.1786 54.598C20.3466 54.43 20.5519 54.346 20.7946 54.346C21.0279 54.346 21.2239 54.43 21.3826 54.598C21.5506 54.766 21.6346 54.9713 21.6346 55.214C21.6346 55.4567 21.5506 55.662 21.3826 55.83C21.2239 55.998 21.0279 56.082 20.7946 56.082ZM21.4106 57.328V65H20.1366V57.328H21.4106ZM25.1359 58.378V62.9C25.1359 63.2733 25.2152 63.5393 25.3739 63.698C25.5326 63.8473 25.8079 63.922 26.1999 63.922H27.1379V65H25.9899C25.2806 65 24.7486 64.8367 24.3939 64.51C24.0392 64.1833 23.8619 63.6467 23.8619 62.9V58.378H22.8679V57.328H23.8619V55.396H25.1359V57.328H27.1379V58.378H25.1359ZM30.2355 58.378V62.9C30.2355 63.2733 30.3148 63.5393 30.4735 63.698C30.6322 63.8473 30.9075 63.922 31.2995 63.922H32.2375V65H31.0895C30.3802 65 29.8482 64.8367 29.4935 64.51C29.1388 64.1833 28.9615 63.6467 28.9615 62.9V58.378H27.9675V57.328H28.9615V55.396H30.2355V57.328H32.2375V58.378H30.2355ZM40.7811 60.87C40.7811 61.1127 40.7671 61.3693 40.7391 61.64H34.6071C34.6538 62.396 34.9105 62.9887 35.3771 63.418C35.8531 63.838 36.4271 64.048 37.0991 64.048C37.6498 64.048 38.1071 63.922 38.4711 63.67C38.8445 63.4087 39.1058 63.0633 39.2551 62.634H40.6271C40.4218 63.3713 40.0111 63.9733 39.3951 64.44C38.7791 64.8973 38.0138 65.126 37.0991 65.126C36.3711 65.126 35.7178 64.9627 35.1391 64.636C34.5698 64.3093 34.1218 63.8473 33.7951 63.25C33.4685 62.6433 33.3051 61.9433 33.3051 61.15C33.3051 60.3567 33.4638 59.6613 33.7811 59.064C34.0985 58.4667 34.5418 58.0093 35.1111 57.692C35.6898 57.3653 36.3525 57.202 37.0991 57.202C37.8271 57.202 38.4711 57.3607 39.0311 57.678C39.5911 57.9953 40.0205 58.434 40.3191 58.994C40.6271 59.5447 40.7811 60.17 40.7811 60.87ZM39.4651 60.604C39.4651 60.1187 39.3578 59.7033 39.1431 59.358C38.9285 59.0033 38.6345 58.7373 38.2611 58.56C37.8971 58.3733 37.4911 58.28 37.0431 58.28C36.3991 58.28 35.8485 58.4853 35.3911 58.896C34.9431 59.3067 34.6865 59.876 34.6211 60.604H39.4651ZM43.7368 58.574C43.9608 58.1353 44.2781 57.7947 44.6888 57.552C45.1088 57.3093 45.6174 57.188 46.2148 57.188V58.504H45.8788C44.4508 58.504 43.7368 59.2787 43.7368 60.828V65H42.4628V57.328H43.7368V58.574Z" fill="black"/>
<defs>
<clipPath id="clip0_0_613">
<rect width="40" height="40" fill="white" transform="translate(4)"/>
</clipPath>
</defs>
</svg>
