<svg width="48" height="48" viewBox="0 0 48 48" fill="none" xmlns="http://www.w3.org/2000/svg">
<rect width="48" height="48" rx="10" fill="#9644E6"/>
<path d="M23.125 12.3333C21.5311 12.3349 20.1864 12.3452 19.0417 12.4132V17.2914H23.125V12.3333Z" fill="white"/>
<path d="M17.2917 12.5916C15.8651 12.8183 14.8399 13.2436 14.0419 14.0416C13.2438 14.8396 12.8185 15.8649 12.5919 17.2914H17.2917V12.5916Z" fill="white"/>
<path fill-rule="evenodd" clip-rule="evenodd" d="M12.3333 23.9998C12.3333 22.0159 12.3333 20.3898 12.4135 19.0414H35.5865C35.6667 20.3898 35.6667 22.0159 35.6667 23.9998C35.6667 25.9836 35.6667 27.6097 35.5865 28.9581H12.4135C12.3333 27.6097 12.3333 25.9836 12.3333 23.9998ZM24.4797 22.1384C25.7155 22.9689 26.3333 23.3842 26.3333 24C26.3333 24.6158 25.7155 25.0311 24.4797 25.8617C23.2271 26.7035 22.6007 27.1245 22.1337 26.8154C21.6667 26.5064 21.6667 25.6709 21.6667 24C21.6667 22.3291 21.6667 21.4937 22.1337 21.1846C22.6007 20.8756 23.2271 21.2965 24.4797 22.1384Z" fill="white"/>
<path d="M35.4081 17.2914C35.1815 15.8649 34.7562 14.8396 33.9581 14.0416C33.1601 13.2436 32.1348 12.8183 30.7083 12.5916V17.2914H35.4081Z" fill="white"/>
<path d="M24.875 12.3333C26.4689 12.3349 27.8136 12.3452 28.9583 12.4132V17.2914H24.875V12.3333Z" fill="white"/>
<path d="M35.4081 30.7081H30.7083V35.4078C32.1348 35.1812 33.1601 34.7558 33.9581 33.9578C34.7562 33.1598 35.1815 32.1346 35.4081 30.7081Z" fill="white"/>
<path d="M28.9583 30.7081V35.5862C27.8136 35.6543 26.4689 35.6646 24.875 35.6661V30.7081H28.9583Z" fill="white"/>
<path d="M23.125 35.6661V30.7081H19.0417V35.5862C20.1864 35.6543 21.5311 35.6646 23.125 35.6661Z" fill="white"/>
<path d="M17.2917 30.7081V35.4078C15.8651 35.1812 14.8399 34.7558 14.0419 33.9578C13.2438 33.1598 12.8185 32.1346 12.5919 30.7081H17.2917Z" fill="white"/>
</svg>
